<?xml version="1.0" encoding="utf-8"?>
<!-- Generator: Adobe Illustrator 24.0.2, SVG Export Plug-In . SVG Version: 6.00 Build 0)  -->
<svg version="1.1" id="Layer_1" xmlns="http://www.w3.org/2000/svg" xmlns:xlink="http://www.w3.org/1999/xlink" x="0px" y="0px"
	 viewBox="0 0 400 400" style="enable-background:new 0 0 400 400;" xml:space="preserve">
<style type="text/css">
	.st0{fill:#E22028;}
	.st1{fill:#2180C3;}
	.st2{fill:#10497E;stroke:#10497E;stroke-width:5.4115;stroke-miterlimit:10;}
	.st3{fill:none;stroke:#D1D3D4;stroke-width:5.9746;stroke-miterlimit:10;}
	.st4{fill:#10497E;}
	.st5{fill:#FFFFFF;stroke:#FFFFFF;stroke-width:0.9958;stroke-miterlimit:10;}
	.st6{fill:#BCBEC0;}
</style>
<g>
	<g>
		<g>
			<path class="st0" d="M246.6,97.1c0,15.4-13.1,28-29.2,28c-16.1,0-29.2-12.5-29.2-28s13.1-28,29.2-28
				C233.5,69.1,246.6,81.7,246.6,97.1z"/>
			<path class="st1" d="M142.9,136.6c0,12.1-10.2,21.9-22.8,21.9c-12.6,0-22.8-9.8-22.8-21.9s10.2-21.9,22.8-21.9
				C132.7,114.7,142.9,124.5,142.9,136.6z"/>
			<g>
				<path class="st2" d="M114.4,221.6v-55.4H126v55.4H114.4z"/>
				<path class="st2" d="M140.9,221.6v-30.2c0-7.7,2.3-13.9,6.9-18.6c4.9-5,11.7-7.6,20.5-7.6c8.7,0,15.6,2.5,20.5,7.6
					c4.5,4.7,6.8,11,6.8,18.6v30.2h-11.4v-32c0-4.2-1.4-7.8-4.2-10.5c-2.9-2.9-6.8-4.3-11.7-4.3c-4.8,0-8.7,1.5-11.7,4.4
					c-2.8,2.8-4.3,6.2-4.3,10.4v32H140.9z"/>
				<path class="st2" d="M210.6,221.6v-60.3c0-13.8,9-20.6,27.1-20.6h6.9v9.5H238c-10.7,0-16,4.3-16,12.9v3.1h22.7v9.4H222v46H210.6
					z"/>
			</g>
			<path class="st3" d="M140,115c0,0,18.5-19.9,43-18.2"/>
			<path class="st3" d="M248.8,111.6c0,0,29.5,16.7,32.5,51.6"/>
			<path class="st4" d="M274.8,171.6c-15.6,0-28.2,11.9-28.2,26.5c0,14.7,12.6,26.5,28.2,26.5c15.5,0,28.2-11.9,28.2-26.5
				C302.9,183.4,290.3,171.6,274.8,171.6z M284.8,201.3c-6.8,0-12.3-4.9-12.3-11s5.5-11,12.3-11c6.8,0,12.3,4.9,12.3,11
				S291.6,201.3,284.8,201.3z"/>
		</g>
		<g>
			<g>
				<path class="st5" d="M212.9,108.3v-11h-9.3v-3h9.3v-0.9c0-4.3-1.7-6.4-5.1-6.4s-5.1,2.1-5.1,6.4v14.9h-3.2v-15
					c0-2.7,0.7-4.9,2.1-6.6c1.5-1.8,3.6-2.7,6.2-2.7c2.5,0,4.5,0.8,6,2.5c1.5,1.7,2.3,3.9,2.3,6.8v15H212.9z"/>
				<path class="st5" d="M234.5,105.3v3h-12.4c-2.3,0-3.5-0.9-3.5-2.7c0-0.7,0.6-1.8,1.7-3.4l0.1-0.2L231,87.3h-11v-3h10.8
					c2.3,0,3.5,0.9,3.5,2.7c0,0.8-0.6,2-1.8,3.7l-10.5,14.6H234.5z"/>
			</g>
		</g>
	</g>
	<g>
		<g>
			<path class="st4" d="M87.6,273.9c-5.1-5.4-9.8-11.2-14.1-17.2c-4.3-6-8.1-12.4-11.5-19c-6.7-13.2-11.6-27.4-14.2-42
				c-5.3-29.2-2.3-60,9.3-87.4c11.4-27.5,31-51.4,55.6-68.2c6.2-4.1,12.6-7.9,19.3-11.2c6.7-3.2,13.6-6,20.7-8.3
				c1.8-0.6,3.6-1,5.4-1.6l2.7-0.8l2.7-0.6c1.8-0.4,3.6-0.9,5.4-1.2l5.5-1c7.3-1.1,14.8-2,22.2-2l2.8-0.1l2.8,0.1
				c1.9,0.1,3.7,0.1,5.6,0.1c3.7,0.3,7.4,0.5,11.1,1l2.8,0.3l1.4,0.2l1.4,0.2l5.5,1c1.8,0.3,3.6,0.8,5.5,1.2l2.7,0.6l2.7,0.8
				c7.2,1.9,14.2,4.5,21.1,7.4c6.9,2.9,13.4,6.5,19.8,10.4c25.3,15.8,45.9,39,58.5,66c12.7,27,17.2,57.8,13,87.4
				c-2.1,14.8-6.3,29.3-12.6,42.9c-3.1,6.8-6.7,13.3-10.8,19.7c-0.2,0.3-0.3,0.4-0.5,0.6l-0.5,0.5l-0.9,1.1l-1.8,2.1l-3.6,4.2
				l-3.6,4.2l-1.8,2.1l-0.9,1.1l-0.8,1l-2-1.4l0.3-0.4l0.2-0.3l0.5-0.5l0.9-1.1l1.8-2.1l3.6-4.2l3.6-4.2l1.8-2.1l1.7-2
				c4-6.1,7.6-12.6,10.7-19.3c6.2-13.4,10.4-27.6,12.5-42.2c4.3-29.2-0.1-59.5-12.5-86.3c-12.4-26.8-32.7-49.8-57.7-65.5
				c-6.3-3.9-12.7-7.5-19.5-10.4c-6.8-2.9-13.7-5.6-20.8-7.5l-2.7-0.8l-2.7-0.6c-1.8-0.4-3.6-0.9-5.4-1.2l-5.5-1l-1.4-0.2l-1.4-0.2
				l-2.7-0.4c-3.7-0.6-7.3-0.7-11-1c-1.8-0.1-3.7-0.1-5.5-0.2l-2.8-0.1l-2.8,0.1c-7.4,0-14.8,0.8-22.1,1.9l-5.5,1
				c-1.8,0.4-3.6,0.8-5.4,1.2l-2.7,0.6l-2.7,0.8c-1.8,0.5-3.6,1-5.3,1.5c-7.1,2.2-13.9,5-20.6,8.2c-6.6,3.2-13,7-19.2,11.1
				c-24.5,16.6-44.1,40.4-55.6,67.7c-11.6,27.3-14.8,58-9.6,87.1c2.6,14.6,7.4,28.8,14.1,42c3.4,6.6,7.1,13,11.4,19.1
				C77.9,262.7,82.6,268.5,87.6,273.9z"/>
		</g>
		<g>
			<path class="st4" d="M90.3,258c-8.8-10.2-16.3-21.7-21.9-34.1c-2.8-6.2-5.1-12.6-7-19.2c-1.9-6.6-3.2-13.3-4.2-20
				c-0.2-1.7-0.5-3.4-0.6-5.1l-0.4-5.1c-0.1-3.4-0.3-6.8-0.2-10.3c0-3.4,0.2-6.8,0.4-10.3c0.1-1.7,0.4-3.4,0.5-5.1l0.3-2.6
				c0.1-0.9,0.3-1.7,0.4-2.5c2.1-13.6,6.3-26.8,12.1-39.3c11.8-24.9,31.1-46.2,54.7-60.6c5.9-3.6,12.1-6.7,18.4-9.5
				c6.4-2.6,12.9-5,19.6-6.7c13.4-3.5,27.3-5.2,41.1-4.8c3.5,0,6.9,0.4,10.4,0.6c1.7,0.2,3.4,0.4,5.1,0.6l2.6,0.3l2.6,0.5
				c6.8,1.1,13.5,2.9,20.1,5l4.9,1.7l4.8,1.9c1.6,0.6,3.2,1.3,4.8,2.1l2.4,1.1c0.8,0.3,1.6,0.7,2.3,1.1l4.6,2.4
				c1.5,0.8,3,1.7,4.5,2.6c0.7,0.4,1.5,0.9,2.2,1.3l2.2,1.4c1.4,1,2.9,1.8,4.3,2.9c22.7,15.8,40.8,38.1,51.2,63.6
				c2.6,6.4,4.7,12.9,6.4,19.6c0.4,1.7,0.8,3.4,1.1,5l0.5,2.5l0.4,2.5c0.3,1.7,0.6,3.4,0.8,5.1l0.6,5.1c0.6,6.8,0.9,13.7,0.5,20.5
				l-0.1,2.6l-0.2,2.6c-0.2,1.7-0.3,3.4-0.5,5.1l-0.7,5.1c-0.2,1.7-0.6,3.4-0.9,5c-1.3,6.7-3,13.3-5.3,19.8
				c-2.3,6.4-4.9,12.7-8.1,18.7c-3.2,6-6.7,11.8-10.7,17.3c-4,5.5-8.4,10.6-13.1,15.5c8.8-10.2,16.3-21.5,22-33.7
				c2.9-6,5.2-12.3,7.2-18.7c2-6.4,3.4-12.9,4.5-19.5c4.1-26.3,0.8-53.7-9.8-78c-2.7-6-5.7-11.9-9.2-17.5c-3.5-5.6-7.3-11-11.5-16.1
				c-4.3-5-8.8-9.9-13.7-14.3c-4.9-4.4-10.1-8.5-15.5-12.2c-5.5-3.6-11.1-7-17.1-9.9c-0.7-0.4-1.5-0.7-2.2-1.1l-2.2-1
				c-1.5-0.7-3-1.4-4.5-1.9l-4.6-1.8l-4.7-1.6c-6.3-2-12.6-3.6-19.1-4.7l-2.4-0.4l-2.4-0.3c-1.6-0.2-3.3-0.4-4.9-0.6
				c-3.3-0.2-6.6-0.6-9.8-0.6c-13.1-0.5-26.3,1.1-39.1,4.4c-6.4,1.7-12.6,3.8-18.7,6.3c-6,2.6-11.9,5.6-17.6,8.9
				c-5.6,3.4-11,7.2-16.2,11.3c-5.1,4.2-9.9,8.7-14.4,13.5c-4.4,4.9-8.6,10-12.4,15.4c-3.7,5.4-7.2,11.1-10.1,17
				c-11.9,23.6-16.8,50.8-14.2,77.3c0.7,6.6,1.7,13.2,3.3,19.7c1.6,6.5,3.7,12.9,6.2,19.1c2.5,6.2,5.4,12.3,8.8,18.1
				C82.4,247,86.2,252.6,90.3,258z"/>
		</g>
		<path class="st4" d="M324.7,257.9c-28,38.9-73.6,64.2-125.2,64.2c-28.9,0-50.3-4.1-78.9-21.7c0,0-41.8-27.7-7.2-53.8
			c28.3-21.3,46.5,27,108.5,38.7c62,11.7,103.5-29.1,104.4-30.1L324.7,257.9z"/>
	</g>
</g>
<g>
	<path class="st6" d="M51,376.3l-3.9-15.2l-3.9,15.2h-5l-6.3-22.1h5.3l3.9,16l4.2-16H49l4.2,16l3.9-16h5.3L56,376.3H51z"/>
	<path class="st6" d="M78,376.3l-1.4-3.8h-9.5l-1.4,3.8h-5.4l8.6-22.1h5.9l8.5,22.1H78z M71.9,358.9l-3.5,9.5h6.9L71.9,358.9z"/>
	<path class="st6" d="M88.1,376.3v-18h-6.5v-4.2h17.7v4.2h-6.4v18H88.1z"/>
	<path class="st6" d="M102,376.3v-22.1h15.7v4.2h-11v4.7h10.7v4.2h-10.7v5h11v4.2H102z"/>
	<path class="st6" d="M133.6,376.3l-4.3-7.9h-3.5v7.9h-4.7v-22.1h10.4c4.6,0,7.4,3,7.4,7.1c0,3.9-2.5,6-4.8,6.6l5,8.4H133.6z
		 M134,361.3c0-1.9-1.4-3-3.3-3h-4.9v6h4.9C132.6,364.3,134,363.2,134,361.3z"/>
	<path class="st6" d="M155.4,376.3v-18h-6.5v-4.2h17.7v4.2h-6.4v18H155.4z"/>
	<path class="st6" d="M169.2,376.3v-22.1h15.7v4.2h-11v4.7h10.7v4.2H174v5h11v4.2H169.2z"/>
	<path class="st6" d="M187.2,365.2c0-6.8,5.1-11.5,11.8-11.5c4.9,0,7.7,2.7,9.3,5.4l-4.1,2c-0.9-1.8-2.9-3.2-5.2-3.2
		c-4,0-6.9,3.1-6.9,7.3s2.9,7.3,6.9,7.3c2.3,0,4.3-1.4,5.2-3.2l4.1,2c-1.6,2.8-4.4,5.4-9.3,5.4C192.4,376.7,187.2,372.1,187.2,365.2
		z"/>
	<path class="st6" d="M225.9,376.3V367h-10.5v9.3h-4.7v-22.1h4.7v8.7h10.5v-8.7h4.7v22.1H225.9z"/>
	<path class="st6" d="M250,376.3l-10.6-14.4v14.4h-4.7v-22.1h4.8l10.3,13.9v-13.9h4.7v22.1H250z"/>
	<path class="st6" d="M257.5,365.2c0-6.7,4.9-11.5,11.6-11.5c6.7,0,11.6,4.8,11.6,11.5s-4.9,11.5-11.6,11.5
		C262.4,376.7,257.5,371.9,257.5,365.2z M275.8,365.2c0-4.2-2.7-7.3-6.7-7.3s-6.7,3.1-6.7,7.3c0,4.1,2.6,7.3,6.7,7.3
		S275.8,369.4,275.8,365.2z"/>
	<path class="st6" d="M283.6,376.3v-22.1h4.7v18h9.4v4.2H283.6z"/>
	<path class="st6" d="M298.7,365.2c0-6.7,4.9-11.5,11.6-11.5c6.7,0,11.6,4.8,11.6,11.5s-4.9,11.5-11.6,11.5
		C303.6,376.7,298.7,371.9,298.7,365.2z M317,365.2c0-4.2-2.7-7.3-6.7-7.3s-6.7,3.1-6.7,7.3c0,4.1,2.6,7.3,6.7,7.3
		S317,369.4,317,365.2z"/>
	<path class="st6" d="M323.8,365.2c0-7,5.3-11.5,11.8-11.5c4.6,0,7.5,2.3,9.2,4.9l-3.9,2.1c-1-1.6-2.9-2.9-5.2-2.9
		c-4,0-6.9,3.1-6.9,7.3s2.9,7.3,6.9,7.3c2,0,3.8-0.9,4.7-1.7v-2.7h-5.8V364H345v8.5c-2.3,2.5-5.4,4.2-9.4,4.2
		C329.1,376.7,323.8,372.2,323.8,365.2z"/>
	<path class="st6" d="M354,376.3v-9.1l-8.5-13.1h5.4l5.5,8.9l5.4-8.9h5.4l-8.5,13.1v9.1H354z"/>
</g>
</svg>
