<?xml version="1.0" encoding="iso-8859-1"?>
<!-- Generator: Adobe Illustrator 19.0.0, SVG Export Plug-In . SVG Version: 6.00 Build 0)  -->
<svg xmlns="http://www.w3.org/2000/svg" xmlns:xlink="http://www.w3.org/1999/xlink" version="1.1" id="Capa_1" x="0px" y="0px" viewBox="0 0 512.001 512.001" style="enable-background:new 0 0 512.001 512.001;" xml:space="preserve" width="512px" height="512px">
<g>
	<g>
		<path d="M375.069,141.931c-1.859-1.86-4.439-2.93-7.069-2.93s-5.21,1.07-7.07,2.93c-1.86,1.86-2.93,4.43-2.93,7.07    c0,2.63,1.069,5.21,2.93,7.07c1.861,1.86,4.44,2.93,7.07,2.93s5.21-1.07,7.069-2.93c1.86-1.86,2.931-4.44,2.931-7.07    S376.93,143.791,375.069,141.931z" fill="#FFFFFF"/>
	</g>
</g>
<g>
	<g>
		<path d="M150,282.001H70c-5.522,0-10,4.477-10,10v80c0,5.523,4.478,10,10,10h80c5.522,0,10-4.477,10-10v-80    C160,286.478,155.523,282.001,150,282.001z M140,362.001H80v-60h60V362.001z" fill="#FFFFFF"/>
	</g>
</g>
<g>
	<g>
		<path d="M505.827,209.762c-3.737-1.549-8.039-0.691-10.898,2.167L393.031,313.827c-0.001,0.002-0.003,0.003-0.005,0.005    s-0.003,0.003-0.004,0.005L274.238,432.621c-0.002,0.002-0.003,0.003-0.005,0.005s-0.003,0.003-0.005,0.005l-62.299,62.299    c-2.859,2.86-3.715,7.162-2.168,10.898c1.548,3.737,5.194,6.173,9.239,6.173h283c5.522,0,10-4.477,10-10v-283    C512,214.957,509.564,211.31,505.827,209.762z M492,492.001H243.143l38.161-38.161l9.546,9.546    c1.953,1.953,4.512,2.929,7.071,2.929s5.118-0.976,7.071-2.929c3.905-3.905,3.905-10.237,0-14.143l-9.546-9.546l25.456-25.456    l9.545,9.545c1.953,1.953,4.512,2.929,7.071,2.929s5.118-0.977,7.071-2.929c3.905-3.905,3.905-10.237,0-14.142l-9.546-9.546    l25.456-25.456l9.546,9.546c1.953,1.953,4.512,2.929,7.071,2.929s5.118-0.976,7.071-2.929c3.905-3.905,3.905-10.237,0-14.143    l-9.546-9.546l25.455-25.455l9.546,9.546c1.953,1.953,4.512,2.929,7.071,2.929s5.118-0.976,7.071-2.929    c3.905-3.905,3.905-10.237,0-14.143l-9.546-9.546l25.456-25.456l9.545,9.545c1.953,1.953,4.512,2.929,7.071,2.929    c2.559,0,5.118-0.977,7.071-2.929c3.905-3.905,3.905-10.237,0-14.142l-9.546-9.546L492,243.143V492.001z" fill="#FFFFFF"/>
	</g>
</g>
<g>
	<g>
		<path d="M455.827,330.473c-3.737-1.549-8.039-0.692-10.898,2.167L332.64,444.93c-2.859,2.86-3.716,7.161-2.168,10.898    c1.548,3.737,5.194,6.173,9.239,6.173H452c5.522,0,10-4.477,10-10V339.712C462,335.668,459.564,332.021,455.827,330.473z     M442,442.001h-78.146L442,363.854V442.001z" fill="#FFFFFF"/>
	</g>
</g>
<g>
	<g>
		<path d="M463.06,149.261c-2.753-2.752-6.851-3.658-10.51-2.319l-68.281,25.005c-1.365,0.5-2.604,1.291-3.633,2.319l-19.199,19.199    L236.071,68.098c-1.876-1.875-4.419-2.929-7.071-2.929s-5.196,1.054-7.071,2.929L71.026,219.001H34.143L229,24.143    l106.929,106.929c3.906,3.905,10.236,3.905,14.143,0c3.905-3.905,3.905-10.237,0-14.143l-114-114    c-3.906-3.905-10.236-3.905-14.143,0l-219,219c-2.859,2.86-3.715,7.161-2.168,10.898c1.548,3.738,5.194,6.174,9.239,6.174h10v263    c0,5.523,4.478,10,10,10h158.986c5.522,0,10-4.477,10-10s-4.478-10-10-10H40v-253h35.168c2.652,0,5.195-1.054,7.071-2.929    L229,89.311l118.294,118.295L199,355.901v-89.9h70c5.522,0,10-4.477,10-10c0-5.523-4.478-10-10-10h-80c-5.522,0-10,4.477-10,10    v116c0,1.167,0.21,2.281,0.577,3.322l-8.959,8.959c-15.83,15.83-15.83,41.588,0,57.418c7.916,7.916,18.311,11.874,28.709,11.873    c10.396,0,20.795-3.958,28.709-11.872l84.332-84.332c3.905-3.905,3.905-10.237,0-14.142c-3.905-3.905-10.235-3.905-14.143,0    l-63.892,63.892L205.2,377.986l182.707-182.707l29.133,29.133l-69.815,69.816c-3.905,3.905-3.905,10.237,0,14.142    c3.906,3.905,10.236,3.905,14.143,0l76.686-76.686c1.027-1.028,1.819-2.268,2.318-3.632l25.006-68.281    C466.717,156.115,465.813,152.014,463.06,149.261z M220.192,421.26l-6.298,6.298c-3.891,3.891-9.063,6.034-14.566,6.034    s-10.676-2.143-14.566-6.034c-3.892-3.891-6.034-9.064-6.034-14.566s2.141-10.676,6.033-14.567l6.298-6.298L220.192,421.26z     M427.086,206.171l-20.938-20.938l33.038-12.099L427.086,206.171z" fill="#FFFFFF"/>
	</g>
</g>
<g>
	<g>
		<path d="M336.689,318.901c-1.859-1.86-4.439-2.93-7.069-2.93s-5.21,1.07-7.07,2.93c-1.86,1.87-2.93,4.44-2.93,7.07    c0,2.64,1.069,5.21,2.93,7.08c1.86,1.86,4.43,2.92,7.07,2.92c2.63,0,5.21-1.06,7.069-2.92c1.86-1.87,2.931-4.45,2.931-7.08    C339.62,323.341,338.55,320.771,336.689,318.901z" fill="#FFFFFF"/>
	</g>
</g>
<g>
	<g>
		<path d="M229,151.001c-20.953,0-38,17.047-38,38s17.047,38,38,38s38-17.047,38-38S249.953,151.001,229,151.001z M229,207.001    c-9.925,0-18-8.074-18-18c0-9.925,8.075-18,18-18s18,8.075,18,18S238.925,207.001,229,207.001z" fill="#FFFFFF"/>
	</g>
</g>
<g>
</g>
<g>
</g>
<g>
</g>
<g>
</g>
<g>
</g>
<g>
</g>
<g>
</g>
<g>
</g>
<g>
</g>
<g>
</g>
<g>
</g>
<g>
</g>
<g>
</g>
<g>
</g>
<g>
</g>
</svg>
