<svg xmlns="http://www.w3.org/2000/svg" viewBox="0 0 717.33 533.14"><defs><style>.a{fill:#e12429;}.b,.i{fill:#2480c4;}.c,.e,.h,.q,.w{fill:#124a7e;}.c,.q{stroke:#124a7e;}.c,.d,.f,.q,.r,.s,.t,.u{stroke-miterlimit:10;}.c{stroke-width:2.76px;}.d,.r,.u{fill:none;}.d,.r{stroke:#d2d3d4;}.d{stroke-width:3.05px;}.f,.s,.t,.v{fill:#fff;}.f,.s,.t,.u{stroke:#fff;}.f{stroke-width:0.51px;}.g{fill:#10497e;}.h{font-size:13.41px;font-family:GothamX-Bold, Gotham X;font-weight:700;}.i{font-size:10.06px;font-family:GothamX, Gotham X;}.j,.k{fill:#33a3dc;}.j{stroke:#33a3dc;stroke-width:0.72px;}.k,.l{fill-rule:evenodd;}.l,.m{fill:#0072bc;}.m{stroke:#0072bc;stroke-width:1.65px;}.n{fill:#20345d;}.o{fill:#10a7e0;}.p{fill:#ed2027;}.q{stroke-width:1.98px;}.r,.u{stroke-width:2.18px;}.s{stroke-width:0.36px;}.w{opacity:0.5;}</style></defs><title>azinfo-logo</title><path class="a" d="M300.4,80.68c0,7.87-6.69,14.3-14.91,14.3s-14.91-6.38-14.91-14.3,6.69-14.29,14.91-14.29S300.4,72.82,300.4,80.68Z" transform="translate(180.16 -43.41)"/><path class="b" d="M247.45,100.85a11.65,11.65,0,1,1-11.64-11.18A11.41,11.41,0,0,1,247.45,100.85Z" transform="translate(180.16 -43.41)"/><path class="c" d="M232.9,144.25V116h5.92v28.29Z" transform="translate(180.16 -43.41)"/><path class="c" d="M246.43,144.25V128.83a13,13,0,0,1,3.52-9.5c2.5-2.55,6-3.88,10.47-3.88s8,1.28,10.47,3.88a13.3,13.3,0,0,1,3.47,9.5v15.42h-5.82V127.91a7.2,7.2,0,0,0-2.15-5.36,8.06,8.06,0,0,0-6-2.2,8.25,8.25,0,0,0-6,2.25,7.21,7.21,0,0,0-2.2,5.31v16.34Z" transform="translate(180.16 -43.41)"/><path class="c" d="M282,144.25V113.46c0-7,4.59-10.52,13.83-10.52h3.52v4.86H296c-5.47,0-8.17,2.19-8.17,6.58V116h11.59v4.8H287.84v23.49Z" transform="translate(180.16 -43.41)"/><path class="d" d="M246,89.82s9.45-10.16,22-9.29" transform="translate(180.16 -43.41)"/><path class="d" d="M301.52,88.09s15.06,8.52,16.59,26.34" transform="translate(180.16 -43.41)"/><path class="e" d="M314.79,118.72c-8,0-14.39,6.08-14.39,13.53s6.43,13.53,14.39,13.53,14.4-6.07,14.4-13.53S322.71,118.72,314.79,118.72Zm5.11,15.16c-3.47,0-6.28-2.5-6.28-5.61s2.81-5.62,6.28-5.62,6.28,2.5,6.28,5.62S323.37,133.88,319.9,133.88Z" transform="translate(180.16 -43.41)"/><path class="f" d="M283.19,86.4V80.79h-4.75V79.25h4.75V78.8c0-2.2-.87-3.27-2.6-3.27S278,76.6,278,78.8v7.6h-1.63V78.74a5.17,5.17,0,0,1,1.07-3.37A4,4,0,0,1,280.59,74a3.86,3.86,0,0,1,3.06,1.27,5,5,0,0,1,1.17,3.47V86.4Z" transform="translate(180.16 -43.41)"/><path class="f" d="M294.22,84.87V86.4h-6.33c-1.18,0-1.79-.46-1.79-1.38a4.09,4.09,0,0,1,.87-1.73l0-.1,5.41-7.51h-5.61V74.15h5.51c1.17,0,1.79.46,1.79,1.38a4.07,4.07,0,0,1-.92,1.89l-5.36,7.45Z" transform="translate(180.16 -43.41)"/><path class="e" d="M219.22,176.47a82.64,82.64,0,0,1-7.2-8.79,76.27,76.27,0,0,1-5.87-9.7,77.44,77.44,0,0,1-7.25-21.44A78.79,78.79,0,0,1,232,57.1a88.71,88.71,0,0,1,9.86-5.72,84.62,84.62,0,0,1,10.56-4.24c.92-.31,1.84-.51,2.76-.82l1.38-.4,1.38-.31c.92-.21,1.84-.46,2.76-.61l2.8-.51a75.64,75.64,0,0,1,11.34-1l1.43-.05,1.43.05c1,.06,1.89.06,2.86.06,1.89.15,3.77.25,5.66.51l1.43.15.72.1.71.1,2.81.51c.92.16,1.84.41,2.81.62l1.38.3,1.38.41A81.9,81.9,0,0,1,308.26,50a76.67,76.67,0,0,1,10.11,5.31,79.11,79.11,0,0,1,36.5,78.32,78,78,0,0,1-6.43,21.9,80.81,80.81,0,0,1-5.51,10.06,3,3,0,0,1-.26.31l-.26.25-.45.56-.92,1.08-1.84,2.14-1.84,2.14-.92,1.08-.46.56-.41.51-1-.72.16-.2.1-.15.25-.26.46-.56.92-1.07,1.84-2.15,1.84-2.14.92-1.07.86-1a77.4,77.4,0,0,0,11.85-31.4A78.1,78.1,0,0,0,317.91,56a74.92,74.92,0,0,0-10-5.31,79.65,79.65,0,0,0-10.62-3.83l-1.38-.4-1.37-.31c-.92-.2-1.84-.46-2.76-.61L289,45l-.71-.11-.72-.1-1.38-.2c-1.89-.31-3.72-.36-5.61-.51-.92,0-1.89,0-2.81-.1l-1.43-.06-1.43.06a74.67,74.67,0,0,0-11.28,1l-2.81.51-2.76.61-1.38.3-1.38.41c-.92.26-1.83.51-2.7.77a76.32,76.32,0,0,0-10.52,4.19,84.91,84.91,0,0,0-9.8,5.66,78.51,78.51,0,0,0-33.29,79,77.66,77.66,0,0,0,7.2,21.44,80.16,80.16,0,0,0,5.82,9.75A91.22,91.22,0,0,0,219.22,176.47Z" transform="translate(180.16 -43.41)"/><path class="e" d="M220.6,168.35a70.24,70.24,0,0,1-14.76-27.22,78.86,78.86,0,0,1-2.14-10.21c-.11-.86-.26-1.73-.31-2.6l-.2-2.6c-.06-1.74-.16-3.48-.11-5.26s.11-3.47.21-5.26c.05-.87.2-1.74.25-2.61l.16-1.32c.05-.46.15-.87.2-1.28a74.88,74.88,0,0,1,6.18-20.06A73.24,73.24,0,0,1,238,59a79.38,79.38,0,0,1,9.39-4.85,77.24,77.24,0,0,1,10-3.43,75.11,75.11,0,0,1,21-2.45c1.79,0,3.52.21,5.31.31l2.6.31,1.33.15,1.33.26a71.87,71.87,0,0,1,10.26,2.55l2.5.87,2.45,1a22.75,22.75,0,0,1,2.45,1.07l1.23.56a7.91,7.91,0,0,1,1.17.56l2.35,1.23c.77.41,1.53.86,2.3,1.32l1.12.67,1.13.71c.71.51,1.48.92,2.19,1.48a74,74,0,0,1,26.14,32.47,76.49,76.49,0,0,1,3.27,10c.2.87.41,1.74.56,2.55l.26,1.28.2,1.28c.15.87.31,1.73.41,2.6l.31,2.6a71.84,71.84,0,0,1,.25,10.47l-.05,1.33-.1,1.33c-.1.86-.15,1.73-.26,2.6l-.35,2.6c-.11.87-.31,1.74-.46,2.56a71.86,71.86,0,0,1-2.71,10.11,70.68,70.68,0,0,1-4.14,9.54,74.22,74.22,0,0,1-5.46,8.84,76.43,76.43,0,0,1-6.69,7.91,74.91,74.91,0,0,0,11.24-17.21,69.59,69.59,0,0,0,3.67-9.54,74.08,74.08,0,0,0,2.3-10,72.34,72.34,0,0,0-5-39.82,73.91,73.91,0,0,0-4.7-8.94,79.15,79.15,0,0,0-5.87-8.22,80.46,80.46,0,0,0-7-7.3A76.25,76.25,0,0,0,316,64.14a77.7,77.7,0,0,0-8.73-5c-.36-.21-.77-.36-1.12-.56L305,58a19.75,19.75,0,0,0-2.3-1l-2.34-.92-2.4-.82a71.64,71.64,0,0,0-9.76-2.4l-1.22-.2-1.23-.16-2.5-.3c-1.68-.11-3.37-.31-5-.31a69.14,69.14,0,0,0-20,2.25,77,77,0,0,0-9.55,3.21,87.08,87.08,0,0,0-9,4.55,81.19,81.19,0,0,0-8.27,5.77,78.51,78.51,0,0,0-7.35,6.89,84,84,0,0,0-6.33,7.86,70.87,70.87,0,0,0-5.16,8.68,72.56,72.56,0,0,0-7.25,39.47,75.18,75.18,0,0,0,1.69,10.06,72.93,72.93,0,0,0,3.16,9.75,70.35,70.35,0,0,0,4.5,9.24A84.18,84.18,0,0,0,220.6,168.35Z" transform="translate(180.16 -43.41)"/><path class="e" d="M340.27,168.3a78.57,78.57,0,0,1-63.92,32.77c-14.76,0-25.68-2.09-40.28-11.07,0,0-21.35-14.15-3.68-27.47,14.45-10.88,23.74,13.78,55.4,19.76s52.84-14.86,53.3-15.37Z" transform="translate(180.16 -43.41)"/><path class="g" d="M278.12,159.31a4.6,4.6,0,0,1-1.48,3.61,6,6,0,0,1-4.14,1.35,12.78,12.78,0,0,1-3.46-.54l.43-1.62a11.78,11.78,0,0,0,3.08.54,3.8,3.8,0,0,0,2.64-.86,3,3,0,0,0,.94-2.32v-4.33a3.18,3.18,0,0,0-.91-2.34,3.49,3.49,0,0,0-2.58-1,3.55,3.55,0,0,0-2.58,1,3.07,3.07,0,0,0-.95,2.31,3.12,3.12,0,0,0,1,2.36,3.67,3.67,0,0,0,2.65,1,4.93,4.93,0,0,0,2.75-.87v1.83a6.92,6.92,0,0,1-1.43.49,7.41,7.41,0,0,1-1.55.15,5.59,5.59,0,0,1-2.95-.79,4.72,4.72,0,0,1-.91-7.61,5.73,5.73,0,0,1,4-1.38,6.11,6.11,0,0,1,2.89.69,4.79,4.79,0,0,1,2,1.87,6.19,6.19,0,0,1,.61,3.1Z" transform="translate(180.16 -43.41)"/><path class="g" d="M280.6,159.86V150.4h1.81v1.4c.65-1.05,1.9-1.57,3.77-1.57h.52v1.64h-.3a4.12,4.12,0,0,0-3,.89,3.53,3.53,0,0,0-.85,2.64v4.46Z" transform="translate(180.16 -43.41)"/><path class="g" d="M287.38,155.12a4.47,4.47,0,0,1,1.64-3.46,6.12,6.12,0,0,1,7.83,0,4.51,4.51,0,0,1,1.63,3.49,4.45,4.45,0,0,1-1.62,3.49,5.7,5.7,0,0,1-3.93,1.42,5.9,5.9,0,0,1-3.09-.82,5,5,0,0,1-2-2.19,4.51,4.51,0,0,1-.43-1.9m2.05,0a3.09,3.09,0,0,0,1,2.29,3.43,3.43,0,0,0,2.53,1,3.39,3.39,0,0,0,2.51-1,3.2,3.2,0,0,0,0-4.57,3.7,3.7,0,0,0-5,0,3.08,3.08,0,0,0-1,2.28" transform="translate(180.16 -43.41)"/><path class="g" d="M309.68,150.4v5.16a4.36,4.36,0,0,1-1.18,3.18,5.37,5.37,0,0,1-7,0,4.39,4.39,0,0,1-1.17-3.18V150.4h2v5.47a2.34,2.34,0,0,0,.73,1.78,3,3,0,0,0,4,0,2.4,2.4,0,0,0,.72-1.79V150.4Z" transform="translate(180.16 -43.41)"/><path class="g" d="M312.06,164.06v-8.17a6.31,6.31,0,0,1,.6-3.1,4.76,4.76,0,0,1,2-1.9,6.25,6.25,0,0,1,2.9-.66,5.68,5.68,0,0,1,4,1.39,4.69,4.69,0,0,1,0,6.9,5.46,5.46,0,0,1-1.78,1.11,5.81,5.81,0,0,1-2.14.38,6.72,6.72,0,0,1-3-.64v-1.83a5.4,5.4,0,0,0,2.06.82,4.43,4.43,0,0,0,.72,0,3.7,3.7,0,0,0,2.64-1,3.13,3.13,0,0,0,1-2.37,3.08,3.08,0,0,0-.95-2.31,3.6,3.6,0,0,0-2.59-.94,3.5,3.5,0,0,0-2.59,1,3.21,3.21,0,0,0-.92,2.35v8.91Z" transform="translate(180.16 -43.41)"/><text class="h" transform="translate(332.93 494.98)">TÜRKİYE</text><text class="i" transform="translate(343.48 511.69)">İSTANBUL</text><text class="h" transform="translate(537.48 494.98)">KATAR</text><text class="i" transform="translate(549.25 511.69)">DOHA</text><path class="j" d="M134.3,511.69v-4.77h.6v4.77Z" transform="translate(180.16 -43.41)"/><path class="j" d="M136.26,511.69v-4.77h.62l2.38,3.75v-3.75h.58v4.77h-.62l-2.38-3.75v3.75Z" transform="translate(180.16 -43.41)"/><path class="j" d="M141.16,511.69v-4.77h1.56a3.3,3.3,0,0,1,.81.07,1.47,1.47,0,0,1,.67.34,1.91,1.91,0,0,1,.53.81,3.37,3.37,0,0,1,.18,1.14,3.5,3.5,0,0,1-.12,1,2.38,2.38,0,0,1-.31.7,1.7,1.7,0,0,1-.41.43,1.48,1.48,0,0,1-.54.24,3.2,3.2,0,0,1-.73.08Zm.6-.56h1a2.16,2.16,0,0,0,.7-.09,1,1,0,0,0,.41-.25,1.56,1.56,0,0,0,.33-.6,3.07,3.07,0,0,0,.12-.92,2.39,2.39,0,0,0-.23-1.15,1.22,1.22,0,0,0-.57-.54,2.12,2.12,0,0,0-.78-.1h-1Z" transform="translate(180.16 -43.41)"/><path class="j" d="M149,506.92h.6v2.76a3.21,3.21,0,0,1-.16,1.14,1.42,1.42,0,0,1-.55.69,2,2,0,0,1-1.06.26,2,2,0,0,1-1.05-.23,1.25,1.25,0,0,1-.57-.67,3.2,3.2,0,0,1-.18-1.19v-2.76h.6v2.75a2.93,2.93,0,0,0,.11.92.85.85,0,0,0,.38.45,1.52,1.52,0,0,0,1.6-.15,2,2,0,0,0,.28-1.22Z" transform="translate(180.16 -43.41)"/><path class="j" d="M150.74,510.16l.57-.05a1.37,1.37,0,0,0,.18.58,1,1,0,0,0,.46.38,1.75,1.75,0,0,0,.7.14,1.6,1.6,0,0,0,.6-.11.76.76,0,0,0,.39-.3.66.66,0,0,0,.13-.4.68.68,0,0,0-.12-.4,1,1,0,0,0-.41-.28,6.48,6.48,0,0,0-.81-.23,4.35,4.35,0,0,1-.87-.3,1.32,1.32,0,0,1-.49-.44,1.22,1.22,0,0,1-.16-.6,1.25,1.25,0,0,1,.2-.67,1.23,1.23,0,0,1,.57-.48,2,2,0,0,1,.83-.16,2.08,2.08,0,0,1,.89.17,1.26,1.26,0,0,1,.59.5,1.46,1.46,0,0,1,.22.75l-.57.05a1,1,0,0,0-.32-.68,1.13,1.13,0,0,0-.79-.24,1.22,1.22,0,0,0-.79.21.63.63,0,0,0-.25.51.54.54,0,0,0,.18.42,2.22,2.22,0,0,0,.9.34,6,6,0,0,1,1,.31,1.41,1.41,0,0,1,.58.48,1.22,1.22,0,0,1,.19.68,1.32,1.32,0,0,1-.21.72,1.38,1.38,0,0,1-.59.53,2.07,2.07,0,0,1-.88.18,2.43,2.43,0,0,1-1-.19A1.42,1.42,0,0,1,151,511,1.69,1.69,0,0,1,150.74,510.16Z" transform="translate(180.16 -43.41)"/><path class="j" d="M156.64,511.69v-4.21h-1.49v-.56h3.59v.56h-1.5v4.21Z" transform="translate(180.16 -43.41)"/><path class="j" d="M159.68,511.69v-4.77h2a2.43,2.43,0,0,1,.92.13,1,1,0,0,1,.51.45,1.49,1.49,0,0,1,.19.72,1.25,1.25,0,0,1-.32.86,1.52,1.52,0,0,1-1,.44,1.4,1.4,0,0,1,.36.24,3.3,3.3,0,0,1,.5.63l.79,1.3h-.76l-.6-1a7.75,7.75,0,0,0-.43-.66,1.35,1.35,0,0,0-.3-.32,1.17,1.17,0,0,0-.28-.13l-.33,0h-.7v2.12Zm.6-2.66h1.29a1.56,1.56,0,0,0,.64-.1.64.64,0,0,0,.36-.28.82.82,0,0,0,.12-.43.74.74,0,0,0-.24-.56,1.06,1.06,0,0,0-.73-.21h-1.44Z" transform="translate(180.16 -43.41)"/><path class="j" d="M164.67,511.69v-4.77h.6v4.77Z" transform="translate(180.16 -43.41)"/><path class="j" d="M166.14,511.69l1.74-4.77h.65l1.86,4.77h-.69l-.53-1.44h-1.89l-.5,1.44Zm1.31-2H169l-.48-1.32c-.14-.4-.25-.73-.32-1a5.81,5.81,0,0,1-.24.91Z" transform="translate(180.16 -43.41)"/><path class="j" d="M171.16,511.69v-4.77h.6v4.21H174v.56Z" transform="translate(180.16 -43.41)"/><path class="j" d="M176.66,510.16l.57-.05a1.24,1.24,0,0,0,.18.58,1,1,0,0,0,.46.38,1.74,1.74,0,0,0,.69.14,1.62,1.62,0,0,0,.61-.11.76.76,0,0,0,.39-.3.66.66,0,0,0,.13-.4.68.68,0,0,0-.12-.4,1,1,0,0,0-.41-.28,6.48,6.48,0,0,0-.81-.23,4.12,4.12,0,0,1-.87-.3,1.32,1.32,0,0,1-.49-.44,1.22,1.22,0,0,1-.16-.6,1.25,1.25,0,0,1,.2-.67,1.23,1.23,0,0,1,.57-.48,2,2,0,0,1,.83-.16,2.11,2.11,0,0,1,.89.17,1.31,1.31,0,0,1,.59.5,1.46,1.46,0,0,1,.22.75l-.57.05a1,1,0,0,0-.32-.68,1.13,1.13,0,0,0-.79-.24,1.22,1.22,0,0,0-.79.21.63.63,0,0,0-.25.51.54.54,0,0,0,.18.42,2.15,2.15,0,0,0,.9.34,6,6,0,0,1,1,.31,1.48,1.48,0,0,1,.58.48,1.22,1.22,0,0,1,.19.68,1.32,1.32,0,0,1-.21.72,1.38,1.38,0,0,1-.59.53,2.07,2.07,0,0,1-.88.18,2.43,2.43,0,0,1-1-.19,1.42,1.42,0,0,1-.65-.56A1.69,1.69,0,0,1,176.66,510.16Z" transform="translate(180.16 -43.41)"/><path class="j" d="M181.22,509.37a2.62,2.62,0,0,1,.61-1.86,2,2,0,0,1,1.56-.68,2.13,2.13,0,0,1,1.14.32,2,2,0,0,1,.76.88,2.93,2.93,0,0,1,.27,1.28,2.86,2.86,0,0,1-.28,1.3,2,2,0,0,1-.79.87,2.2,2.2,0,0,1-1.1.29,2.08,2.08,0,0,1-1.14-.32,2.15,2.15,0,0,1-.77-.89A2.86,2.86,0,0,1,181.22,509.37Zm.62,0a2,2,0,0,0,.44,1.36,1.42,1.42,0,0,0,1.11.49,1.39,1.39,0,0,0,1.11-.5,2.1,2.1,0,0,0,.44-1.42,2.48,2.48,0,0,0-.19-1,1.44,1.44,0,0,0-.54-.67,1.43,1.43,0,0,0-.81-.24,1.49,1.49,0,0,0-1.1.46A2.12,2.12,0,0,0,181.84,509.38Z" transform="translate(180.16 -43.41)"/><path class="j" d="M186.62,511.69v-4.77h.6v4.21h2.24v.56Z" transform="translate(180.16 -43.41)"/><path class="j" d="M193.46,506.92h.6v2.76a3.49,3.49,0,0,1-.15,1.14,1.39,1.39,0,0,1-.56.69,2,2,0,0,1-1.06.26,2,2,0,0,1-1-.23,1.32,1.32,0,0,1-.58-.67,3.45,3.45,0,0,1-.17-1.19v-2.76h.6v2.75a2.65,2.65,0,0,0,.11.92.81.81,0,0,0,.38.45,1.18,1.18,0,0,0,.65.16,1.2,1.2,0,0,0,.94-.31,1.89,1.89,0,0,0,.28-1.22Z" transform="translate(180.16 -43.41)"/><path class="j" d="M196.53,511.69v-4.21H195v-.56h3.59v.56h-1.5v4.21Z" transform="translate(180.16 -43.41)"/><path class="j" d="M199.67,511.69v-4.77h.6v4.77Z" transform="translate(180.16 -43.41)"/><path class="j" d="M201.46,509.37a2.62,2.62,0,0,1,.61-1.86,2,2,0,0,1,1.56-.68,2.07,2.07,0,0,1,1.13.32,1.94,1.94,0,0,1,.77.88,2.93,2.93,0,0,1,.27,1.28,3,3,0,0,1-.28,1.3,2,2,0,0,1-.79.87,2.23,2.23,0,0,1-1.1.29,2,2,0,0,1-1.91-1.21A2.86,2.86,0,0,1,201.46,509.37Zm.62,0a2,2,0,0,0,.44,1.36,1.41,1.41,0,0,0,1.11.49,1.39,1.39,0,0,0,1.11-.5,2.1,2.1,0,0,0,.44-1.42,2.48,2.48,0,0,0-.19-1,1.46,1.46,0,0,0-.55-.67,1.43,1.43,0,0,0-.81-.24,1.47,1.47,0,0,0-1.09.46A2.12,2.12,0,0,0,202.08,509.38Z" transform="translate(180.16 -43.41)"/><path class="j" d="M206.88,511.69v-4.77h.62l2.38,3.75v-3.75h.57v4.77h-.61l-2.38-3.75v3.75Z" transform="translate(180.16 -43.41)"/><path class="j" d="M213.85,511.69v-4.77h1.71a4.16,4.16,0,0,1,.7,0,1.31,1.31,0,0,1,.55.23,1.07,1.07,0,0,1,.37.46,1.6,1.6,0,0,1-.23,1.68,1.72,1.72,0,0,1-1.33.42h-1.17v1.94Zm.6-2.5h1.18a1.2,1.2,0,0,0,.82-.23.81.81,0,0,0,.25-.64.85.85,0,0,0-.15-.51.65.65,0,0,0-.38-.29,3,3,0,0,0-.55,0h-1.17Z" transform="translate(180.16 -43.41)"/><path class="j" d="M217.43,511.69l1.74-4.77h.65l1.85,4.77H221l-.53-1.44h-1.9l-.49,1.44Zm1.31-2h1.53l-.47-1.32c-.14-.4-.25-.73-.32-1a5.85,5.85,0,0,1-.25.91Z" transform="translate(180.16 -43.41)"/><path class="j" d="M222.48,511.69v-4.77h2a2.46,2.46,0,0,1,.92.13,1,1,0,0,1,.5.45,1.39,1.39,0,0,1,.19.72,1.25,1.25,0,0,1-.31.86,1.54,1.54,0,0,1-1,.44,1.87,1.87,0,0,1,.36.24,3.75,3.75,0,0,1,.5.63l.78,1.3h-.75l-.6-1c-.18-.29-.32-.51-.43-.66a1.59,1.59,0,0,0-.31-.32,1.11,1.11,0,0,0-.27-.13l-.34,0h-.69v2.12Zm.6-2.66h1.29a1.59,1.59,0,0,0,.64-.1.62.62,0,0,0,.35-.28.82.82,0,0,0,.12-.43.73.73,0,0,0-.23-.56,1.09,1.09,0,0,0-.74-.21h-1.43Z" transform="translate(180.16 -43.41)"/><path class="j" d="M228.4,511.69v-4.21h-1.5v-.56h3.6v.56H229v4.21Z" transform="translate(180.16 -43.41)"/><path class="j" d="M231.42,511.69v-4.77H232l2.38,3.75v-3.75H235v4.77h-.62L232,507.94v3.75Z" transform="translate(180.16 -43.41)"/><path class="j" d="M236.33,511.69v-4.77h3.28v.56h-2.68v1.46h2.51v.56h-2.51v1.63h2.79v.56Z" transform="translate(180.16 -43.41)"/><path class="j" d="M240.87,511.69v-4.77h2a2.48,2.48,0,0,1,.93.13,1,1,0,0,1,.5.45,1.39,1.39,0,0,1,.19.72,1.3,1.3,0,0,1-.31.86,1.55,1.55,0,0,1-1,.44,1.4,1.4,0,0,1,.36.24,3.3,3.3,0,0,1,.5.63l.79,1.3h-.76l-.6-1a5.88,5.88,0,0,0-.43-.66,1.35,1.35,0,0,0-.3-.32,1,1,0,0,0-.28-.13l-.33,0h-.7v2.12Zm.6-2.66h1.29a1.64,1.64,0,0,0,.65-.1.65.65,0,0,0,.35-.28.82.82,0,0,0,.12-.43.77.77,0,0,0-.23-.56,1.11,1.11,0,0,0-.74-.21h-1.44Z" transform="translate(180.16 -43.41)"/><polygon class="k" points="280.36 453.1 292.12 432.72 289 426.79 280.36 441.77 276.13 434.44 261.87 434.44 265.14 440.11 272.86 440.11 280.36 453.1"/><polygon class="l" points="293.13 434.44 300.68 447.5 304.91 440.17 312.81 440.17 316.08 445.83 308.2 445.83 300.68 458.82 293.13 445.77 284.58 460.58 281.35 454.85 293.13 434.44"/><path class="m" d="M142.6,489.51h-4.87L135,503.14h4.89l1.89-9.39h3.12a36.09,36.09,0,0,0,4.31-.17,11.65,11.65,0,0,0,3.14-.83,7.37,7.37,0,0,0,2.17-1.61,7.27,7.27,0,0,0,1.15-1.63H142.6Z" transform="translate(180.16 -43.41)"/><path class="m" d="M153.66,478a10.72,10.72,0,0,0-4.07-.63H140l-1.75,8.65h4.88l.93-4.6h3.49a10.74,10.74,0,0,1,3.07.26,2.13,2.13,0,0,1,1.07.83A2.62,2.62,0,0,1,152,484a4.15,4.15,0,0,1-.53,2.05h5.09a9.8,9.8,0,0,0,.33-2.47,6.65,6.65,0,0,0-.88-3.47A4.93,4.93,0,0,0,153.66,478Z" transform="translate(180.16 -43.41)"/><path class="m" d="M173.51,492a22.66,22.66,0,0,1-1.28,4.62,4.55,4.55,0,0,1-1.78,2.05,5.6,5.6,0,0,1-2.91.69,4.27,4.27,0,0,1-3-.95,3.17,3.17,0,0,1-1-2.41,5.64,5.64,0,0,1,.07-.79l.66-3.3.48-2.37h-4.89l-.39,2q-.51,2.52-.57,3.06a10.06,10.06,0,0,0-.11,1.49,7.15,7.15,0,0,0,2.2,5.42c1.46,1.41,3.58,2.11,6.34,2.11a10.67,10.67,0,0,0,5.73-1.41,8.92,8.92,0,0,0,3.38-3.66,27.58,27.58,0,0,0,2-6.51l.5-2.47H174Z" transform="translate(180.16 -43.41)"/><polygon class="m" points="347.1 433.99 342.23 433.99 340.48 442.65 345.36 442.65 347.1 433.99"/><polygon class="m" points="354.63 442.65 359.52 442.65 361.25 433.99 356.38 433.99 354.63 442.65"/><polygon class="m" points="368.94 446.1 364.07 446.1 361.32 459.73 378.28 459.73 379.1 455.61 367.03 455.61 368.94 446.1"/><polygon class="m" points="371.16 433.99 366.29 433.99 364.54 442.65 369.42 442.65 371.16 433.99"/><path class="m" d="M211.41,486.06a5.81,5.81,0,0,1-1.06-.71,2.2,2.2,0,0,1-.79-1.74,2.37,2.37,0,0,1,.86-1.87,4.48,4.48,0,0,1,2.89-.74,4.57,4.57,0,0,1,3.11.94,4,4,0,0,1,1.23,2.71l4.67-.22a7.61,7.61,0,0,0-2.51-5.41,9.4,9.4,0,0,0-6.47-2q-4.11,0-6.27,2.05a6.76,6.76,0,0,0-2.17,5.15,6.88,6.88,0,0,0,.24,1.87Z" transform="translate(180.16 -43.41)"/><path class="m" d="M216.21,489.51h-9.8a5.82,5.82,0,0,0,1.21,1.05,31.18,31.18,0,0,0,4,2.08,16.89,16.89,0,0,1,3.38,1.8,2.35,2.35,0,0,1,.87,1.85,2.73,2.73,0,0,1-1.07,2.15,5.4,5.4,0,0,1-3.46.89c-1.92,0-3.24-.44-4-1.31a5.63,5.63,0,0,1-.76-3.11l-4.64.25a9.29,9.29,0,0,0,.85,4.37,6.43,6.43,0,0,0,3.17,3,12.08,12.08,0,0,0,5.3,1.07,9.75,9.75,0,0,0,6.91-2.31,7.33,7.33,0,0,0,2.49-5.57,5.88,5.88,0,0,0-1.67-4.32A12,12,0,0,0,216.21,489.51Z" transform="translate(180.16 -43.41)"/><polygon class="m" points="417.09 439.17 417.58 442.65 421.99 442.65 420.64 433.99 415.22 433.99 410.5 442.65 415.08 442.65 417.09 439.17"/><polygon class="m" points="422.36 446.1 417.9 446.1 418.47 450.18 411.37 450.18 413.73 446.1 409.23 446.1 401.8 459.73 406.82 459.73 409.67 454.28 419.07 454.28 419.86 459.73 424.49 459.73 422.36 446.1"/><path class="n" d="M353.38,456.86a7.36,7.36,0,0,1-.93,9.74,22,22,0,0,1,10.16,4.12V459.35A33.2,33.2,0,0,0,353.38,456.86Z" transform="translate(180.16 -43.41)"/><path class="n" d="M354.8,511.5a7.38,7.38,0,0,1-1.54,4.49,33.36,33.36,0,0,0,9.35-2.51V502.11a22,22,0,0,1-10,4.1A7.47,7.47,0,0,1,354.8,511.5Z" transform="translate(180.16 -43.41)"/><path class="n" d="M328.67,491.26a7.34,7.34,0,0,1-10.43.81c2.28,11.12,11.13,20,22.61,23a7.33,7.33,0,0,1,2.07-9.59A20.66,20.66,0,0,1,328.67,491.26Z" transform="translate(180.16 -43.41)"/><path class="n" d="M323.05,479a7.37,7.37,0,0,1,5.62,2.61A20.7,20.7,0,0,1,343,467.27a7.34,7.34,0,0,1-2.28-9.52c-11.44,3-20.25,11.92-22.52,23A7.38,7.38,0,0,1,323.05,479Z" transform="translate(180.16 -43.41)"/><path class="o" d="M353.42,511.65a6.09,6.09,0,1,1-6.08-6.09A6.08,6.08,0,0,1,353.42,511.65Z" transform="translate(180.16 -43.41)"/><path class="o" d="M353.42,461.34a6.09,6.09,0,1,1-6.08-6.08A6.08,6.08,0,0,1,353.42,461.34Z" transform="translate(180.16 -43.41)"/><path class="p" d="M328.92,486.35a6.09,6.09,0,1,1-6.09-6.08A6.09,6.09,0,0,1,328.92,486.35Z" transform="translate(180.16 -43.41)"/><path class="n" d="M355.31,495.87a12,12,0,0,1-5.22,1,8.79,8.79,0,0,1-6.61-2.47,9,9,0,0,1-2.41-6.59,9.64,9.64,0,0,1,2.71-7.11,9.49,9.49,0,0,1,7-2.72,13.09,13.09,0,0,1,4.5.67v4a7.87,7.87,0,0,0-4.17-1.1,5.56,5.56,0,0,0-4.16,1.62,6,6,0,0,0-1.58,4.38,5.88,5.88,0,0,0,1.49,4.22,5.29,5.29,0,0,0,4,1.58,8.55,8.55,0,0,0,4.4-1.17Z" transform="translate(180.16 -43.41)"/><path class="n" d="M375,496.52h-4.13v-7.44h-7.57v7.44h-4.11V478.25h4.11v7.29h7.57v-7.29H375Z" transform="translate(180.16 -43.41)"/><path class="n" d="M390.81,496.52h-11V478.25h10.54v3.35H384v4.07h6V489h-6v4.18h6.85Z" transform="translate(180.16 -43.41)"/><path class="n" d="M415.24,496.52h-4.07V485.59c0-1.18.05-2.48.15-3.91h-.1a18.86,18.86,0,0,1-.57,2.42l-4.28,12.42H403l-4.35-12.29a24.59,24.59,0,0,1-.58-2.55H398c.11,1.8.16,3.38.16,4.74v10.1h-3.7V478.25h6l3.74,10.83a16.44,16.44,0,0,1,.65,2.62h.07a24.69,24.69,0,0,1,.73-2.64l3.73-10.81h5.88Z" transform="translate(180.16 -43.41)"/><path class="n" d="M433.17,495.87a12,12,0,0,1-5.23,1,8.79,8.79,0,0,1-6.61-2.47,9,9,0,0,1-2.41-6.59,9.64,9.64,0,0,1,2.71-7.11,9.49,9.49,0,0,1,7-2.72,13.22,13.22,0,0,1,4.52.67v4a7.93,7.93,0,0,0-4.18-1.1,5.56,5.56,0,0,0-4.16,1.62,6,6,0,0,0-1.58,4.38,5.88,5.88,0,0,0,1.49,4.22,5.29,5.29,0,0,0,4,1.58,8.61,8.61,0,0,0,4.41-1.17Z" transform="translate(180.16 -43.41)"/><path class="n" d="M444.41,496.84a8.52,8.52,0,0,1-6.4-2.55,9.16,9.16,0,0,1-2.47-6.66,9.81,9.81,0,0,1,2.51-7A8.69,8.69,0,0,1,444.7,478a8.29,8.29,0,0,1,6.33,2.56,9.44,9.44,0,0,1,2.41,6.75,9.64,9.64,0,0,1-2.5,6.94A8.6,8.6,0,0,1,444.41,496.84Zm.17-15.35a4.15,4.15,0,0,0-3.44,1.62,6.79,6.79,0,0,0-1.27,4.3,6.67,6.67,0,0,0,1.27,4.3,4.4,4.4,0,0,0,6.72,0,6.57,6.57,0,0,0,1.25-4.26,7.17,7.17,0,0,0-1.21-4.42A4,4,0,0,0,444.58,481.49Z" transform="translate(180.16 -43.41)"/><path class="n" d="M366.31,507h-1.15v-5.11h1.15Z" transform="translate(180.16 -43.41)"/><path class="n" d="M372.07,507h-1.16l-2.11-3.21-.26-.42h0a8.09,8.09,0,0,1,0,.82V507h-1.09v-5.11h1.24l2,3.11c.09.14.18.28.26.42h0a5.16,5.16,0,0,1,0-.7v-2.83h1.09Z" transform="translate(180.16 -43.41)"/><path class="n" d="M373.24,507v-5.11h1.81c1.82,0,2.72.83,2.72,2.49a2.52,2.52,0,0,1-.74,1.91,2.78,2.78,0,0,1-2,.71Zm1.15-4.17V506H375a1.52,1.52,0,0,0,1.17-.45,1.69,1.69,0,0,0,.43-1.23,1.54,1.54,0,0,0-.42-1.14,1.61,1.61,0,0,0-1.19-.42Z" transform="translate(180.16 -43.41)"/><path class="n" d="M382.79,504.74c0,1.53-.72,2.3-2.15,2.3s-2.08-.75-2.08-2.25v-3h1.16v3c0,.83.32,1.24,1,1.24s.95-.39.95-1.19v-3h1.15Z" transform="translate(180.16 -43.41)"/><path class="n" d="M383.67,506.76v-1.15a1.9,1.9,0,0,0,.67.39,2.08,2.08,0,0,0,.73.13,2,2,0,0,0,.38,0,1.49,1.49,0,0,0,.28-.11.52.52,0,0,0,.16-.17.46.46,0,0,0,.05-.2.5.5,0,0,0-.08-.27,1,1,0,0,0-.24-.22,2.76,2.76,0,0,0-.35-.19l-.44-.19a2.21,2.21,0,0,1-.89-.61,1.31,1.31,0,0,1-.3-.87,1.34,1.34,0,0,1,.17-.68,1.32,1.32,0,0,1,.43-.48,2.17,2.17,0,0,1,.64-.27,3.19,3.19,0,0,1,.77-.09,4.93,4.93,0,0,1,.71.05,2.38,2.38,0,0,1,.57.15V503a1.56,1.56,0,0,0-.28-.16,1.92,1.92,0,0,0-.31-.11,1.32,1.32,0,0,0-.32-.07l-.3,0a1.37,1.37,0,0,0-.36,0,.85.85,0,0,0-.27.1.66.66,0,0,0-.17.16.42.42,0,0,0-.06.21.41.41,0,0,0,.06.23.64.64,0,0,0,.2.2,1.39,1.39,0,0,0,.3.17l.4.18a4,4,0,0,1,.55.28,1.58,1.58,0,0,1,.42.33,1.13,1.13,0,0,1,.27.41,1.51,1.51,0,0,1,.09.55,1.41,1.41,0,0,1-.16.71,1.24,1.24,0,0,1-.44.47,1.89,1.89,0,0,1-.65.26,3.81,3.81,0,0,1-.78.08,4.18,4.18,0,0,1-.8-.07A2.61,2.61,0,0,1,383.67,506.76Z" transform="translate(180.16 -43.41)"/><path class="n" d="M391.59,502.78h-1.46V507H389v-4.17h-1.45v-.94h4.07Z" transform="translate(180.16 -43.41)"/><path class="n" d="M396.56,507h-1.32l-.8-1.32c-.06-.09-.11-.18-.17-.26a1.16,1.16,0,0,0-.16-.2.68.68,0,0,0-.18-.13.42.42,0,0,0-.2-.05h-.31v2h-1.15v-5.11h1.83c1.24,0,1.86.46,1.86,1.39a1.53,1.53,0,0,1-.08.49,1.5,1.5,0,0,1-.23.41,1.64,1.64,0,0,1-.37.32,2,2,0,0,1-.47.2v0a.65.65,0,0,1,.22.11,1.8,1.8,0,0,1,.21.19,2.11,2.11,0,0,1,.19.23l.17.24Zm-3.14-4.25v1.42h.5a.84.84,0,0,0,.6-.21.73.73,0,0,0,.23-.54c0-.45-.27-.67-.81-.67Z" transform="translate(180.16 -43.41)"/><path class="n" d="M398.19,507H397v-5.11h1.15Z" transform="translate(180.16 -43.41)"/><path class="n" d="M403.85,507h-1.26l-.36-1.13h-1.82l-.36,1.13H398.8l1.87-5.11H402Zm-1.88-2-.55-1.72a2.5,2.5,0,0,1-.09-.46h0a1.8,1.8,0,0,1-.09.45l-.55,1.73Z" transform="translate(180.16 -43.41)"/><path class="n" d="M407.53,507h-3v-5.11h1.15V506h1.89Z" transform="translate(180.16 -43.41)"/><path class="n" d="M410,506.76v-1.15a2,2,0,0,0,.67.39,2.14,2.14,0,0,0,.74.13,2.17,2.17,0,0,0,.38,0,1.16,1.16,0,0,0,.27-.11.43.43,0,0,0,.16-.17.35.35,0,0,0,0-.2.43.43,0,0,0-.08-.27,1,1,0,0,0-.23-.22,3.69,3.69,0,0,0-.35-.19l-.44-.19a2.33,2.33,0,0,1-.9-.61,1.36,1.36,0,0,1-.29-.87,1.34,1.34,0,0,1,.6-1.16,2,2,0,0,1,.64-.27,3.19,3.19,0,0,1,.77-.09,4.79,4.79,0,0,1,.7.05,2.38,2.38,0,0,1,.57.15V503a1.28,1.28,0,0,0-.28-.16,1.63,1.63,0,0,0-.31-.11,1.23,1.23,0,0,0-.32-.07l-.3,0a1.37,1.37,0,0,0-.36,0,1.08,1.08,0,0,0-.27.1.66.66,0,0,0-.17.16.42.42,0,0,0-.06.21.35.35,0,0,0,.07.23.72.72,0,0,0,.19.2,1.8,1.8,0,0,0,.31.17,3.89,3.89,0,0,0,.4.18,4.69,4.69,0,0,1,.55.28,2,2,0,0,1,.42.33,1.25,1.25,0,0,1,.26.41,1.32,1.32,0,0,1,.1.55,1.41,1.41,0,0,1-.17.71,1.22,1.22,0,0,1-.43.47,1.89,1.89,0,0,1-.65.26,4,4,0,0,1-.78.08,4.11,4.11,0,0,1-.8-.07A2.7,2.7,0,0,1,410,506.76Z" transform="translate(180.16 -43.41)"/><path class="n" d="M416.49,507a2.4,2.4,0,0,1-1.79-.71,2.59,2.59,0,0,1-.69-1.87,2.75,2.75,0,0,1,.7-2,2.43,2.43,0,0,1,1.86-.75,2.31,2.31,0,0,1,1.77.72,2.65,2.65,0,0,1,.68,1.89,2.73,2.73,0,0,1-.7,1.94A2.39,2.39,0,0,1,416.49,507Zm.05-4.29a1.13,1.13,0,0,0-1,.45,1.87,1.87,0,0,0-.36,1.2,1.83,1.83,0,0,0,.36,1.2,1.12,1.12,0,0,0,.93.44,1.15,1.15,0,0,0,.94-.42,1.83,1.83,0,0,0,.36-1.2,2,2,0,0,0-.34-1.23A1.1,1.1,0,0,0,416.54,502.75Z" transform="translate(180.16 -43.41)"/><path class="n" d="M422.91,507h-3.05v-5.11H421V506h1.89Z" transform="translate(180.16 -43.41)"/><path class="n" d="M427.66,504.74c0,1.53-.71,2.3-2.14,2.3s-2.09-.75-2.09-2.25v-3h1.16v3c0,.83.32,1.24,1,1.24s.95-.39.95-1.19v-3h1.15Z" transform="translate(180.16 -43.41)"/><path class="n" d="M432.37,502.78h-1.46V507h-1.16v-4.17H428.3v-.94h4.07Z" transform="translate(180.16 -43.41)"/><path class="n" d="M434.21,507h-1.16v-5.11h1.16Z" transform="translate(180.16 -43.41)"/><path class="n" d="M437.53,507a2.4,2.4,0,0,1-1.79-.71,2.59,2.59,0,0,1-.69-1.87,2.75,2.75,0,0,1,.7-2,2.43,2.43,0,0,1,1.86-.75,2.31,2.31,0,0,1,1.77.72,2.65,2.65,0,0,1,.68,1.89,2.73,2.73,0,0,1-.7,1.94A2.39,2.39,0,0,1,437.53,507Zm.05-4.29a1.12,1.12,0,0,0-1,.45,1.87,1.87,0,0,0-.36,1.2,1.83,1.83,0,0,0,.36,1.2,1.12,1.12,0,0,0,.93.44,1.15,1.15,0,0,0,.94-.42,1.83,1.83,0,0,0,.36-1.2,2,2,0,0,0-.34-1.23A1.1,1.1,0,0,0,437.58,502.75Z" transform="translate(180.16 -43.41)"/><path class="n" d="M445.51,507h-1.17l-2.11-3.21c-.12-.19-.2-.33-.25-.42h0a8.09,8.09,0,0,1,0,.82V507H440.9v-5.11h1.25l2,3.11c.09.14.17.28.25.42h0c0-.12,0-.35,0-.7v-2.83h1.09Z" transform="translate(180.16 -43.41)"/><path class="n" d="M446.44,506.76v-1.15a1.9,1.9,0,0,0,.67.39,2.12,2.12,0,0,0,.73.13,2.21,2.21,0,0,0,.39,0,1.69,1.69,0,0,0,.27-.11.52.52,0,0,0,.16-.17.46.46,0,0,0,0-.2.5.5,0,0,0-.08-.27,1,1,0,0,0-.24-.22,2.21,2.21,0,0,0-.35-.19l-.44-.19a2.37,2.37,0,0,1-.89-.61,1.31,1.31,0,0,1-.29-.87,1.34,1.34,0,0,1,.16-.68,1.32,1.32,0,0,1,.43-.48,2.17,2.17,0,0,1,.64-.27,3.25,3.25,0,0,1,.77-.09,4.83,4.83,0,0,1,.71.05,2.38,2.38,0,0,1,.57.15V503a1.56,1.56,0,0,0-.28-.16,1.92,1.92,0,0,0-.31-.11,1.23,1.23,0,0,0-.32-.07l-.3,0a1.37,1.37,0,0,0-.36,0,.85.85,0,0,0-.27.1.66.66,0,0,0-.17.16.42.42,0,0,0-.06.21.35.35,0,0,0,.07.23.6.6,0,0,0,.19.2,1.39,1.39,0,0,0,.3.17l.41.18a5.64,5.64,0,0,1,.55.28,1.7,1.7,0,0,1,.41.33,1.13,1.13,0,0,1,.27.41,1.5,1.5,0,0,1,.1.55,1.41,1.41,0,0,1-.17.71,1.24,1.24,0,0,1-.44.47,1.83,1.83,0,0,1-.64.26,4,4,0,0,1-.78.08,4.28,4.28,0,0,1-.81-.07A2.61,2.61,0,0,1,446.44,506.76Z" transform="translate(180.16 -43.41)"/><path class="a" d="M90,290.37a10.67,10.67,0,1,1-10.66-10.22A10.48,10.48,0,0,1,90,290.37Z" transform="translate(180.16 -43.41)"/><path class="b" d="M52.11,304.79a8.33,8.33,0,1,1-8.33-8A8.17,8.17,0,0,1,52.11,304.79Z" transform="translate(180.16 -43.41)"/><path class="q" d="M41.7,335.83V315.6h4.24v20.23Z" transform="translate(180.16 -43.41)"/><path class="q" d="M51.38,335.83v-11A9.3,9.3,0,0,1,53.9,318a10,10,0,0,1,7.48-2.77A9.93,9.93,0,0,1,68.87,318a9.51,9.51,0,0,1,2.48,6.8v11H67.19V324.15a5.13,5.13,0,0,0-1.54-3.84,5.78,5.78,0,0,0-4.27-1.57,5.91,5.91,0,0,0-4.27,1.61,5.15,5.15,0,0,0-1.57,3.8v11.68Z" transform="translate(180.16 -43.41)"/><path class="q" d="M76.83,335.83v-22c0-5,3.28-7.52,9.89-7.52h2.52v3.47H86.83c-3.9,0-5.84,1.57-5.84,4.71v1.13h8.29V319H81v16.79Z" transform="translate(180.16 -43.41)"/><path class="r" d="M51.05,296.91s6.75-7.27,15.7-6.65" transform="translate(180.16 -43.41)"/><path class="r" d="M90.78,295.67s10.77,6.09,11.86,18.84" transform="translate(180.16 -43.41)"/><path class="e" d="M100.27,317.58c-5.7,0-10.3,4.34-10.3,9.67s4.6,9.68,10.3,9.68,10.3-4.35,10.3-9.68A10,10,0,0,0,100.27,317.58Zm3.65,10.84a4,4,0,1,1,4.49-4A4.27,4.27,0,0,1,103.92,328.42Z" transform="translate(180.16 -43.41)"/><path class="s" d="M77.67,294.46v-4h-3.4v-1.09h3.4V289c0-1.57-.62-2.34-1.86-2.34s-1.87.77-1.87,2.34v5.44H72.77V289a3.68,3.68,0,0,1,.77-2.41,2.84,2.84,0,0,1,2.27-1,2.77,2.77,0,0,1,2.19.91,3.61,3.61,0,0,1,.84,2.48v5.48Z" transform="translate(180.16 -43.41)"/><path class="s" d="M85.56,293.37v1.09H81c-.84,0-1.28-.33-1.28-1a3,3,0,0,1,.62-1.24l0-.07,3.87-5.37h-4V285.7H84.2c.84,0,1.28.33,1.28,1a2.89,2.89,0,0,1-.65,1.35L81,293.37Z" transform="translate(180.16 -43.41)"/><path class="e" d="M31.91,354.93a60.42,60.42,0,0,1-5.14-6.28,54.26,54.26,0,0,1-4.2-6.94,55.41,55.41,0,0,1-5.19-15.33,56.35,56.35,0,0,1,23.7-56.82,62.47,62.47,0,0,1,7.05-4.09,60.51,60.51,0,0,1,7.56-3c.65-.22,1.31-.37,2-.59l1-.29,1-.22c.66-.15,1.31-.33,2-.44l2-.36a55.06,55.06,0,0,1,8.11-.73l1,0,1,0c.69,0,1.35,0,2,0,1.35.11,2.7.19,4,.37l1,.11.51.07.51.07,2,.37c.66.11,1.32.29,2,.44l1,.22,1,.29a57.77,57.77,0,0,1,7.71,2.7,54.15,54.15,0,0,1,7.23,3.8,56.6,56.6,0,0,1,26.11,56,56.14,56.14,0,0,1-4.6,15.67,57.93,57.93,0,0,1-4,7.19,1.06,1.06,0,0,1-.18.22l-.18.18-.33.41-.66.76-1.31,1.54-1.32,1.53-.66.77-.32.4-.3.36-.73-.51.11-.14.08-.11.18-.19.33-.4.65-.76,1.32-1.54,1.31-1.53.66-.77.62-.73a55.33,55.33,0,0,0,8.47-22.46,55.85,55.85,0,0,0-25.63-55.43A54,54,0,0,0,95.38,265a56,56,0,0,0-7.6-2.74l-1-.29-1-.22c-.66-.15-1.31-.33-2-.44l-2-.37-.51-.07-.51-.07-1-.15c-1.35-.22-2.66-.25-4-.36-.66,0-1.36,0-2-.08l-1,0-1,0a53.29,53.29,0,0,0-8.07.7l-2,.36-2,.44-1,.22-1,.29-1.93.55a54.88,54.88,0,0,0-7.53,3,61.56,61.56,0,0,0-7,4.06A56.16,56.16,0,0,0,17.45,326.3a55.72,55.72,0,0,0,5.15,15.34,56.56,56.56,0,0,0,4.17,7A66.15,66.15,0,0,0,31.91,354.93Z" transform="translate(180.16 -43.41)"/><path class="e" d="M32.9,349.12a50.21,50.21,0,0,1-10.55-19.46,56.09,56.09,0,0,1-1.54-7.3c-.07-.62-.18-1.24-.22-1.86l-.14-1.87c0-1.24-.11-2.48-.08-3.76s.08-2.48.15-3.76c0-.62.15-1.24.18-1.86l.11-.95c0-.33.11-.62.15-.91A53.53,53.53,0,0,1,25.38,293a52.39,52.39,0,0,1,20-22.13,57.7,57.7,0,0,1,6.72-3.47A55,55,0,0,1,59.23,265a53.21,53.21,0,0,1,15-1.75c1.27,0,2.52.15,3.79.22l1.87.22.94.11,1,.18a50.48,50.48,0,0,1,7.34,1.83l1.79.62,1.76.69c.58.22,1.16.48,1.75.77l.88.4a5.31,5.31,0,0,1,.83.4l1.68.88c.55.29,1.1.62,1.65.95l.8.47.8.51c.52.37,1.06.66,1.57,1.06a52.87,52.87,0,0,1,18.7,23.23,54.3,54.3,0,0,1,2.34,7.15c.14.62.29,1.24.4,1.83l.18.91.15.91c.11.62.22,1.25.29,1.87l.22,1.86a50.52,50.52,0,0,1,.18,7.48l0,.95-.08.95c-.07.62-.11,1.24-.18,1.87l-.26,1.86c-.07.62-.21,1.24-.32,1.82a50.9,50.9,0,0,1-4.9,14.06,53.93,53.93,0,0,1-3.9,6.32,55.1,55.1,0,0,1-4.79,5.66,53.82,53.82,0,0,0,8-12.31,51.06,51.06,0,0,0,2.62-6.82A53,53,0,0,0,123,325a51.8,51.8,0,0,0-3.58-28.48,54,54,0,0,0-3.36-6.39,57.64,57.64,0,0,0-4.2-5.88,57.32,57.32,0,0,0-5-5.22A51.08,51.08,0,0,0,94.9,271c-.25-.14-.54-.25-.8-.4l-.8-.37a16.52,16.52,0,0,0-1.65-.69L90,268.86l-1.71-.58a50.8,50.8,0,0,0-7-1.72l-.87-.14-.88-.11-1.79-.22c-1.2-.07-2.41-.22-3.58-.22a49.7,49.7,0,0,0-14.28,1.61,54.12,54.12,0,0,0-6.82,2.3A61.48,61.48,0,0,0,46.63,273a59.67,59.67,0,0,0-5.92,4.12,57,57,0,0,0-5.25,4.93,60,60,0,0,0-4.53,5.63,50.91,50.91,0,0,0-3.69,6.2,51.92,51.92,0,0,0-5.19,28.23,55.06,55.06,0,0,0,1.21,7.19,52.44,52.44,0,0,0,5.48,13.59A59.32,59.32,0,0,0,32.9,349.12Z" transform="translate(180.16 -43.41)"/><path class="e" d="M118.49,349.09a56.19,56.19,0,0,1-45.72,23.44c-10.55,0-18.36-1.5-28.81-7.92,0,0-15.26-10.12-2.63-19.65,10.34-7.78,17,9.86,39.62,14.13s37.8-10.62,38.13-11Z" transform="translate(180.16 -43.41)"/><path class="t" d="M-106.64,290.37A10.48,10.48,0,0,1-117.3,300.6,10.46,10.46,0,0,1-128,290.37a10.45,10.45,0,0,1,10.67-10.22A10.47,10.47,0,0,1-106.64,290.37Z" transform="translate(180.16 -43.41)"/><path class="t" d="M-144.51,304.79a8.16,8.16,0,0,1-8.32,8,8.17,8.17,0,0,1-8.33-8,8.17,8.17,0,0,1,8.33-8A8.16,8.16,0,0,1-144.51,304.79Z" transform="translate(180.16 -43.41)"/><path class="t" d="M-154.92,335.83V315.6h4.24v20.23Z" transform="translate(180.16 -43.41)"/><path class="t" d="M-145.24,335.83v-11a9.3,9.3,0,0,1,2.52-6.8,10,10,0,0,1,7.49-2.77,9.92,9.92,0,0,1,7.48,2.77,9.48,9.48,0,0,1,2.49,6.8v11h-4.17V324.15a5.16,5.16,0,0,0-1.53-3.84,5.79,5.79,0,0,0-4.27-1.57,5.91,5.91,0,0,0-4.28,1.61,5.15,5.15,0,0,0-1.57,3.8v11.68Z" transform="translate(180.16 -43.41)"/><path class="t" d="M-119.79,335.83v-22c0-5,3.29-7.52,9.9-7.52h2.52v3.47h-2.41c-3.91,0-5.84,1.57-5.84,4.71v1.13h8.28V319h-8.28v16.79Z" transform="translate(180.16 -43.41)"/><path class="u" d="M-145.57,296.91s6.76-7.27,15.7-6.65" transform="translate(180.16 -43.41)"/><path class="u" d="M-105.84,295.67s10.77,6.09,11.87,18.84" transform="translate(180.16 -43.41)"/><path class="t" d="M-96.34,317.58c-5.7,0-10.3,4.34-10.3,9.67s4.6,9.68,10.3,9.68S-86,332.58-86,327.25A10,10,0,0,0-96.34,317.58Zm3.65,10.84a4.26,4.26,0,0,1-4.49-4,4.26,4.26,0,0,1,4.49-4,4.27,4.27,0,0,1,4.49,4A4.27,4.27,0,0,1-92.69,328.42Z" transform="translate(180.16 -43.41)"/><path class="e" d="M-118.95,294.46v-4h-3.39v-1.09h3.39V289c0-1.57-.62-2.34-1.86-2.34s-1.86.77-1.86,2.34v5.44h-1.17V289a3.68,3.68,0,0,1,.77-2.41,2.8,2.8,0,0,1,2.26-1,2.77,2.77,0,0,1,2.19.91,3.56,3.56,0,0,1,.84,2.48v5.48Z" transform="translate(180.16 -43.41)"/><path class="e" d="M-111.06,293.37v1.09h-4.53c-.84,0-1.28-.33-1.28-1a3,3,0,0,1,.62-1.24l0-.07,3.87-5.37h-4V285.7h3.94c.84,0,1.28.33,1.28,1a2.84,2.84,0,0,1-.66,1.35l-3.83,5.34Z" transform="translate(180.16 -43.41)"/><path class="v" d="M-164.7,354.93a60.51,60.51,0,0,1-5.15-6.28,55.43,55.43,0,0,1-4.2-6.94,55.06,55.06,0,0,1-5.18-15.33,56.51,56.51,0,0,1,3.39-31.92,56.6,56.6,0,0,1,20.3-24.9,63.37,63.37,0,0,1,7-4.09,61.76,61.76,0,0,1,7.56-3c.66-.22,1.31-.37,2-.59l1-.29,1-.22c.66-.15,1.32-.33,2-.44l2-.36a55.18,55.18,0,0,1,8.11-.73l1,0,1,0c.69,0,1.35,0,2,0,1.35.11,2.7.19,4,.37l1,.11.51.07.51.07,2,.37c.65.11,1.31.29,2,.44l1,.22,1,.29a57.63,57.63,0,0,1,7.7,2.7,54.15,54.15,0,0,1,7.23,3.8,57,57,0,0,1,21.36,24.1,56.76,56.76,0,0,1,4.75,31.91A56.14,56.14,0,0,1-72.28,340a57.85,57.85,0,0,1-3.94,7.19,1.08,1.08,0,0,1-.19.22l-.18.18-.33.41-.66.76-1.31,1.54-1.31,1.53-.66.77-.33.4-.29.36-.73-.51.11-.14.07-.11.18-.19.33-.4.66-.76,1.31-1.54,1.32-1.53.65-.77.63-.73a54.82,54.82,0,0,0,3.9-7.05,55.28,55.28,0,0,0,4.57-15.41A56,56,0,0,0-73,292.67a56.47,56.47,0,0,0-21.07-23.92,53.35,53.35,0,0,0-7.12-3.79,56.4,56.4,0,0,0-7.59-2.74l-1-.29-1-.22c-.66-.15-1.32-.33-2-.44l-2-.37-.52-.07-.51-.07-1-.15c-1.35-.22-2.67-.25-4-.36-.66,0-1.35,0-2-.08l-1,0-1,0a53.06,53.06,0,0,0-8.07.7l-2,.36-2,.44-1,.22-1,.29-1.94.55a54.75,54.75,0,0,0-7.52,3,60.71,60.71,0,0,0-7,4.06,56.61,56.61,0,0,0-20.31,24.72,56.5,56.5,0,0,0-3.5,31.8A55.39,55.39,0,0,0-174,341.64a57.75,57.75,0,0,0,4.16,7A66.24,66.24,0,0,0-164.7,354.93Z" transform="translate(180.16 -43.41)"/><path class="v" d="M-163.72,349.12a51.56,51.56,0,0,1-8-12.45,51.43,51.43,0,0,1-2.56-7,56.05,56.05,0,0,1-1.53-7.3c-.08-.62-.18-1.24-.22-1.86l-.15-1.87c0-1.24-.11-2.48-.07-3.76s.07-2.48.15-3.76c0-.62.14-1.24.18-1.86l.11-.95c0-.33.11-.62.14-.91A53.53,53.53,0,0,1-171.24,293a52.42,52.42,0,0,1,20-22.13,56.15,56.15,0,0,1,6.72-3.47,54.81,54.81,0,0,1,7.15-2.45,53.26,53.26,0,0,1,15-1.75c1.28,0,2.52.15,3.8.22l1.86.22,1,.11,1,.18a50.81,50.81,0,0,1,7.34,1.83l1.79.62,1.75.69a19,19,0,0,1,1.75.77l.88.4a5.9,5.9,0,0,1,.84.4l1.68.88c.55.29,1.09.62,1.64.95.26.14.55.33.81.47l.8.51c.51.37,1.06.66,1.57,1.06a52.87,52.87,0,0,1,18.7,23.23,55.78,55.78,0,0,1,2.33,7.15c.15.62.29,1.24.4,1.83l.19.91.14.91c.11.62.22,1.25.29,1.87l.22,1.86a51.92,51.92,0,0,1,.19,7.48l0,.95-.07.95c-.08.62-.11,1.24-.19,1.87l-.25,1.86c-.07.62-.22,1.24-.33,1.82a49.47,49.47,0,0,1-1.94,7.23,49.72,49.72,0,0,1-3,6.83,54,54,0,0,1-3.91,6.32A55,55,0,0,1-86,351.28a53.78,53.78,0,0,0,8-12.31,49.78,49.78,0,0,0,2.63-6.82A53,53,0,0,0-73.67,325a51.71,51.71,0,0,0-3.58-28.48,52.6,52.6,0,0,0-3.36-6.39,54.7,54.7,0,0,0-4.2-5.88,57.32,57.32,0,0,0-5-5.22,54.8,54.8,0,0,0-5.66-4.45,55.09,55.09,0,0,0-6.24-3.62c-.26-.14-.55-.25-.81-.4l-.8-.37a16.36,16.36,0,0,0-1.64-.69l-1.68-.66-1.72-.58a51,51,0,0,0-7-1.72l-.88-.14-.88-.11-1.78-.22c-1.21-.07-2.41-.22-3.58-.22a49.62,49.62,0,0,0-14.28,1.61,54.26,54.26,0,0,0-6.83,2.3A62.48,62.48,0,0,0-150,273a60.73,60.73,0,0,0-5.91,4.12,57.11,57.11,0,0,0-5.26,4.93,60,60,0,0,0-4.53,5.63,50.91,50.91,0,0,0-3.69,6.2,51.91,51.91,0,0,0-5.18,28.23,53.4,53.4,0,0,0,1.2,7.19,53.14,53.14,0,0,0,2.27,7,50.34,50.34,0,0,0,3.21,6.61A62.63,62.63,0,0,0-163.72,349.12Z" transform="translate(180.16 -43.41)"/><path class="v" d="M-78.12,349.09a56.21,56.21,0,0,1-45.72,23.44c-10.55,0-18.37-1.5-28.81-7.92,0,0-15.26-10.12-2.63-19.65,10.33-7.78,17,9.86,39.62,14.13s37.79-10.62,38.12-11Z" transform="translate(180.16 -43.41)"/><text class="h" transform="translate(216.66 349.12)">TÜRKİYE</text><text class="i" transform="translate(227.21 365.84)">İSTANBUL</text><path class="a" d="M293.63,290.37A10.67,10.67,0,1,1,283,280.15,10.48,10.48,0,0,1,293.63,290.37Z" transform="translate(180.16 -43.41)"/><path class="b" d="M255.76,304.79a8.33,8.33,0,1,1-8.32-8A8.16,8.16,0,0,1,255.76,304.79Z" transform="translate(180.16 -43.41)"/><path class="q" d="M245.35,335.83V315.6h4.24v20.23Z" transform="translate(180.16 -43.41)"/><path class="q" d="M255,335.83v-11a9.3,9.3,0,0,1,2.52-6.8,10,10,0,0,1,7.49-2.77,9.92,9.92,0,0,1,7.48,2.77,9.51,9.51,0,0,1,2.48,6.8v11h-4.16V324.15a5.16,5.16,0,0,0-1.53-3.84,5.81,5.81,0,0,0-4.27-1.57,5.91,5.91,0,0,0-4.28,1.61,5.15,5.15,0,0,0-1.57,3.8v11.68Z" transform="translate(180.16 -43.41)"/><path class="q" d="M280.48,335.83v-22c0-5,3.29-7.52,9.9-7.52h2.52v3.47h-2.41c-3.91,0-5.85,1.57-5.85,4.71v1.13h8.29V319h-8.29v16.79Z" transform="translate(180.16 -43.41)"/><path class="r" d="M254.7,296.91s6.76-7.27,15.7-6.65" transform="translate(180.16 -43.41)"/><path class="r" d="M294.43,295.67s10.77,6.09,11.87,18.84" transform="translate(180.16 -43.41)"/><path class="e" d="M303.92,317.58c-5.69,0-10.29,4.34-10.29,9.67s4.6,9.68,10.29,9.68,10.3-4.35,10.3-9.68S309.58,317.58,303.92,317.58Zm3.66,10.84a4,4,0,1,1,4.49-4A4.26,4.26,0,0,1,307.58,328.42Z" transform="translate(180.16 -43.41)"/><path class="s" d="M281.32,294.46v-4h-3.39v-1.09h3.39V289c0-1.57-.62-2.34-1.86-2.34s-1.86.77-1.86,2.34v5.44h-1.17V289a3.63,3.63,0,0,1,.77-2.41,2.8,2.8,0,0,1,2.26-1,2.77,2.77,0,0,1,2.19.91,3.56,3.56,0,0,1,.84,2.48v5.48Z" transform="translate(180.16 -43.41)"/><path class="s" d="M289.21,293.37v1.09h-4.53c-.84,0-1.28-.33-1.28-1a3,3,0,0,1,.62-1.24l0-.07,3.87-5.37h-4V285.7h3.95c.84,0,1.28.33,1.28,1a2.84,2.84,0,0,1-.66,1.35l-3.84,5.34Z" transform="translate(180.16 -43.41)"/><path class="e" d="M235.57,354.93a60.51,60.51,0,0,1-5.15-6.28A55.93,55.93,0,0,1,221,326.38a56.35,56.35,0,0,1,23.7-56.82,63.37,63.37,0,0,1,7.05-4.09,61.76,61.76,0,0,1,7.56-3c.66-.22,1.31-.37,2-.59l1-.29,1-.22c.66-.15,1.32-.33,2-.44l2-.36a55.18,55.18,0,0,1,8.11-.73l1,0,1,0c.7,0,1.36,0,2,0,1.35.11,2.7.19,4.05.37l1,.11.51.07.51.07,2,.37c.65.11,1.31.29,2,.44l1,.22,1,.29a57.63,57.63,0,0,1,7.7,2.7,54.15,54.15,0,0,1,7.23,3.8,56.6,56.6,0,0,1,26.11,56A56.14,56.14,0,0,1,328,340a57.85,57.85,0,0,1-3.94,7.19,1.08,1.08,0,0,1-.19.22l-.18.18-.33.41-.66.76-1.31,1.54-1.32,1.53-.65.77-.33.4-.29.36-.73-.51.11-.14.07-.11.18-.19.33-.4.66-.76,1.31-1.54,1.32-1.53.65-.77.62-.73a53.69,53.69,0,0,0,3.91-7.05,55.28,55.28,0,0,0,4.57-15.41,55.88,55.88,0,0,0-25.64-55.43A54,54,0,0,0,299,265a56.4,56.4,0,0,0-7.59-2.74l-1-.29-1-.22c-.65-.15-1.31-.33-2-.44l-2-.37-.51-.07-.51-.07-1-.15c-1.35-.22-2.67-.25-4-.36-.66,0-1.35,0-2-.08l-1,0-1,0a53.06,53.06,0,0,0-8.07.7l-2,.36-2,.44-1,.22-1,.29-1.93.55a54.75,54.75,0,0,0-7.52,3,60.71,60.71,0,0,0-7,4.06,56.11,56.11,0,0,0-23.81,56.52,55.39,55.39,0,0,0,5.15,15.34,57.75,57.75,0,0,0,4.16,7A66.24,66.24,0,0,0,235.57,354.93Z" transform="translate(180.16 -43.41)"/><path class="e" d="M236.55,349.12a51.56,51.56,0,0,1-8-12.45,50.13,50.13,0,0,1-2.56-7,56.05,56.05,0,0,1-1.53-7.3c-.08-.62-.19-1.24-.22-1.86l-.15-1.87c0-1.24-.11-2.48-.07-3.76s.07-2.48.14-3.76c0-.62.15-1.24.19-1.86l.11-.95c0-.33.11-.62.14-.91A53.53,53.53,0,0,1,229,293a52.42,52.42,0,0,1,20-22.13,56.78,56.78,0,0,1,6.71-3.47,55,55,0,0,1,7.16-2.45,53.21,53.21,0,0,1,15-1.75c1.28,0,2.52.15,3.8.22l1.86.22.95.11.95.18a50.81,50.81,0,0,1,7.34,1.83l1.79.62,1.75.69a19,19,0,0,1,1.75.77l.88.4a5.9,5.9,0,0,1,.84.4l1.68.88c.55.29,1.09.62,1.64.95.26.14.55.33.8.47l.81.51c.51.37,1.06.66,1.57,1.06A52.77,52.77,0,0,1,325,295.78a54.3,54.3,0,0,1,2.34,7.15c.15.62.29,1.24.4,1.83l.19.91.14.91c.11.62.22,1.25.29,1.87l.22,1.86a51.92,51.92,0,0,1,.19,7.48l0,.95-.07.95c-.08.62-.11,1.24-.19,1.87l-.25,1.86c-.08.62-.22,1.24-.33,1.82a50.77,50.77,0,0,1-1.94,7.23A52.3,52.3,0,0,1,323,339.3a54,54,0,0,1-3.91,6.32,55,55,0,0,1-4.78,5.66,53.78,53.78,0,0,0,8-12.31,49.78,49.78,0,0,0,2.63-6.82A53,53,0,0,0,326.6,325,51.71,51.71,0,0,0,323,296.54a52.6,52.6,0,0,0-3.36-6.39,54.7,54.7,0,0,0-4.2-5.88,57.32,57.32,0,0,0-5-5.22,51.3,51.3,0,0,0-11.9-8.07c-.26-.14-.55-.25-.81-.4l-.8-.37a17.41,17.41,0,0,0-1.64-.69l-1.68-.66-1.72-.58a51,51,0,0,0-7-1.72l-.88-.14-.88-.11-1.79-.22c-1.2-.07-2.41-.22-3.57-.22a49.62,49.62,0,0,0-14.28,1.61,54.26,54.26,0,0,0-6.83,2.3,61.48,61.48,0,0,0-6.43,3.25,60.73,60.73,0,0,0-5.91,4.12,57.11,57.11,0,0,0-5.26,4.93,60,60,0,0,0-4.53,5.63,50.91,50.91,0,0,0-3.69,6.2,51.91,51.91,0,0,0-5.18,28.23,53.4,53.4,0,0,0,1.2,7.19,51.69,51.69,0,0,0,2.27,7,50.34,50.34,0,0,0,3.21,6.61A62.63,62.63,0,0,0,236.55,349.12Z" transform="translate(180.16 -43.41)"/><path class="e" d="M322.15,349.09a56.21,56.21,0,0,1-45.72,23.44c-10.55,0-18.37-1.5-28.81-7.92,0,0-15.27-10.12-2.63-19.65,10.33-7.78,17,9.86,39.62,14.13s37.79-10.62,38.12-11Z" transform="translate(180.16 -43.41)"/><text class="h" transform="translate(400.28 349.12)">AZERBAYCAN</text><text class="i" transform="translate(441.75 365.84)">BAKÜ</text><path class="a" d="M497.28,290.37a10.67,10.67,0,1,1-10.66-10.22A10.48,10.48,0,0,1,497.28,290.37Z" transform="translate(180.16 -43.41)"/><path class="b" d="M459.41,304.79a8.33,8.33,0,1,1-8.32-8A8.16,8.16,0,0,1,459.41,304.79Z" transform="translate(180.16 -43.41)"/><path class="q" d="M449,335.83V315.6h4.23v20.23Z" transform="translate(180.16 -43.41)"/><path class="q" d="M458.68,335.83v-11a9.3,9.3,0,0,1,2.52-6.8,10,10,0,0,1,7.49-2.77c3.18,0,5.7.91,7.48,2.77a9.48,9.48,0,0,1,2.49,6.8v11H474.5V324.15a5.17,5.17,0,0,0-1.54-3.84,5.79,5.79,0,0,0-4.27-1.57,5.89,5.89,0,0,0-4.27,1.61,5.11,5.11,0,0,0-1.57,3.8v11.68Z" transform="translate(180.16 -43.41)"/><path class="q" d="M484.14,335.83v-22c0-5,3.28-7.52,9.89-7.52h2.52v3.47h-2.41c-3.91,0-5.84,1.57-5.84,4.71v1.13h8.29V319H488.3v16.79Z" transform="translate(180.16 -43.41)"/><path class="r" d="M458.36,296.91s6.75-7.27,15.7-6.65" transform="translate(180.16 -43.41)"/><path class="r" d="M498.08,295.67s10.78,6.09,11.87,18.84" transform="translate(180.16 -43.41)"/><path class="e" d="M507.58,317.58c-5.7,0-10.3,4.34-10.3,9.67s4.6,9.68,10.3,9.68,10.3-4.35,10.3-9.68A10,10,0,0,0,507.58,317.58Zm3.65,10.84a4,4,0,1,1,4.49-4A4.27,4.27,0,0,1,511.23,328.42Z" transform="translate(180.16 -43.41)"/><path class="s" d="M485,294.46v-4h-3.4v-1.09H485V289c0-1.57-.63-2.34-1.87-2.34s-1.86.77-1.86,2.34v5.44h-1.17V289a3.68,3.68,0,0,1,.77-2.41,2.82,2.82,0,0,1,2.26-1,2.74,2.74,0,0,1,2.19.91,3.56,3.56,0,0,1,.84,2.48v5.48Z" transform="translate(180.16 -43.41)"/><path class="s" d="M492.86,293.37v1.09h-4.53c-.84,0-1.27-.33-1.27-1a3,3,0,0,1,.62-1.24l0-.07,3.87-5.37h-4V285.7h3.94c.84,0,1.28.33,1.28,1a2.84,2.84,0,0,1-.66,1.35l-3.83,5.34Z" transform="translate(180.16 -43.41)"/><path class="e" d="M439.22,354.93a60.51,60.51,0,0,1-5.15-6.28,55.77,55.77,0,0,1-9.38-22.27,56.31,56.31,0,0,1,23.7-56.82,63.23,63.23,0,0,1,7-4.09,61.76,61.76,0,0,1,7.56-3c.66-.22,1.32-.37,2-.59l1-.29,1-.22c.65-.15,1.31-.33,2-.44l2-.36a54.92,54.92,0,0,1,8.1-.73l1,0,1,0c.69,0,1.35,0,2,0,1.35.11,2.71.19,4.06.37l1,.11.51.07.51.07,2,.37c.66.11,1.31.29,2,.44l1,.22,1,.29a57.63,57.63,0,0,1,7.7,2.7,53.54,53.54,0,0,1,7.23,3.8,56.56,56.56,0,0,1,26.11,56,55.81,55.81,0,0,1-4.6,15.67,56.58,56.58,0,0,1-3.94,7.19,1.06,1.06,0,0,1-.18.22l-.19.18L527,348l-.65.76L525,350.26l-1.31,1.53-.66.77-.33.4-.29.36-.73-.51.11-.14.07-.11.19-.19.32-.4.66-.76,1.32-1.54,1.31-1.53.66-.77.62-.73a55.89,55.89,0,0,0-17.16-77.89,54,54,0,0,0-7.12-3.79,57,57,0,0,0-7.6-2.74l-1-.29-1-.22c-.66-.15-1.32-.33-2-.44l-2-.37-.51-.07-.51-.07-1-.15c-1.35-.22-2.67-.25-4-.36-.65,0-1.35,0-2-.08l-1,0-1,0a53.29,53.29,0,0,0-8.07.7l-2,.36-2,.44-1,.22-1,.29-1.94.55a55.26,55.26,0,0,0-7.52,3,60.71,60.71,0,0,0-7,4.06,56.16,56.16,0,0,0-23.81,56.52,55.39,55.39,0,0,0,5.15,15.34,57.75,57.75,0,0,0,4.16,7A67.8,67.8,0,0,0,439.22,354.93Z" transform="translate(180.16 -43.41)"/><path class="e" d="M440.21,349.12a51.3,51.3,0,0,1-8-12.45,52.8,52.8,0,0,1-2.56-7,57.76,57.76,0,0,1-1.53-7.3c-.07-.62-.18-1.24-.22-1.86l-.14-1.87c0-1.24-.11-2.48-.08-3.76s.08-2.48.15-3.76c0-.62.14-1.24.18-1.86l.11-.95c0-.33.11-.62.15-.91A53.51,53.51,0,0,1,432.68,293a52.42,52.42,0,0,1,20-22.13,56.91,56.91,0,0,1,6.72-3.47,54.81,54.81,0,0,1,7.15-2.45,53.26,53.26,0,0,1,15-1.75c1.28,0,2.52.15,3.8.22l1.86.22.95.11,1,.18a50.81,50.81,0,0,1,7.34,1.83l1.79.62,1.75.69a19.19,19.19,0,0,1,1.76.77l.87.4a5.42,5.42,0,0,1,.84.4l1.68.88c.55.29,1.1.62,1.65.95.25.14.54.33.8.47l.8.51c.51.37,1.06.66,1.57,1.06a52.87,52.87,0,0,1,18.7,23.23,55.82,55.82,0,0,1,2.34,7.15c.14.62.29,1.24.4,1.83l.18.91.15.91c.11.62.21,1.25.29,1.87l.22,1.86a50.52,50.52,0,0,1,.18,7.48l0,.95-.07.95c-.07.62-.11,1.24-.18,1.87l-.26,1.86c-.07.62-.22,1.24-.33,1.82a49.44,49.44,0,0,1-1.93,7.23,51,51,0,0,1-3,6.83,50.43,50.43,0,0,1-8.69,12A53.78,53.78,0,0,0,526,339a49.78,49.78,0,0,0,2.63-6.82,53,53,0,0,0,1.64-7.13,51.7,51.7,0,0,0-3.57-28.48,55.57,55.57,0,0,0-3.36-6.39,50,50,0,0,0-9.21-11.1,52.74,52.74,0,0,0-5.66-4.45,54.23,54.23,0,0,0-6.24-3.62c-.25-.14-.55-.25-.8-.4l-.81-.37a15.44,15.44,0,0,0-1.64-.69l-1.68-.66-1.72-.58a51,51,0,0,0-7-1.72l-.88-.14-.87-.11-1.79-.22c-1.21-.07-2.41-.22-3.58-.22a49.7,49.7,0,0,0-14.28,1.61,54.81,54.81,0,0,0-6.83,2.3,61.33,61.33,0,0,0-6.42,3.25,59.67,59.67,0,0,0-5.92,4.12,58.42,58.42,0,0,0-5.26,4.93,59.87,59.87,0,0,0-4.52,5.63,49.66,49.66,0,0,0-3.69,6.2,51.83,51.83,0,0,0-5.19,28.23,53.43,53.43,0,0,0,1.21,7.19,51.65,51.65,0,0,0,2.26,7,50.34,50.34,0,0,0,3.21,6.61A61,61,0,0,0,440.21,349.12Z" transform="translate(180.16 -43.41)"/><path class="e" d="M525.8,349.09a56.2,56.2,0,0,1-45.72,23.44c-10.55,0-18.37-1.5-28.81-7.92,0,0-15.26-10.12-2.63-19.65,10.34-7.78,17,9.86,39.62,14.13s37.8-10.62,38.12-11Z" transform="translate(180.16 -43.41)"/><text class="h" transform="translate(601.41 349.12)">MONTENEGRO</text><text class="i" transform="translate(642.04 365.84)">BUDVA</text><line class="e" x1="345.42" y1="365.84" x2="345.42" y2="205.38"/><line class="w" x1="568.15" y1="365.84" x2="568.15" y2="205.38"/><line class="w" x1="460.64" y1="533.14" x2="460.64" y2="411.85"/></svg>