<svg xmlns="http://www.w3.org/2000/svg" xmlns:xlink="http://www.w3.org/1999/xlink" width="66" height="69" viewBox="0 0 66 69">
  <defs>
    <clipPath id="clip-azinfo-beyaz-logo">
      <rect width="66" height="69"/>
    </clipPath>
  </defs>
  <g id="azinfo-beyaz-logo" clip-path="url(#clip-azinfo-beyaz-logo)">
    <g id="Group_20" data-name="Group 20" transform="translate(181.195 -255.759)">
      <g id="Group_16" data-name="Group 16" transform="translate(-169.817 267.863)">
        <g id="Group_13" data-name="Group 13" transform="translate(0 0)">
          <path id="Path_51" data-name="Path 51" d="M-116.359,285.712a5.7,5.7,0,0,1-5.8,5.565,5.687,5.687,0,0,1-5.8-5.565,5.687,5.687,0,0,1,5.8-5.565A5.7,5.7,0,0,1-116.359,285.712Z" transform="translate(146.036 -280.147)" fill="#fff" stroke="#fff" stroke-miterlimit="10" stroke-width="1"/>
          <path id="Path_52" data-name="Path 52" d="M-152.1,301.151a4.444,4.444,0,0,1-4.532,4.353,4.444,4.444,0,0,1-4.532-4.353,4.444,4.444,0,0,1,4.532-4.353A4.444,4.444,0,0,1-152.1,301.151Z" transform="translate(161.16 -287.734)" fill="#fff" stroke="#fff" stroke-miterlimit="10" stroke-width="1"/>
          <g id="Group_12" data-name="Group 12" transform="translate(3.399 14.232)">
            <path id="Path_53" data-name="Path 53" d="M-154.915,326.615V315.6h2.305v11.012Z" transform="translate(154.915 -310.535)" fill="#fff" stroke="#fff" stroke-miterlimit="10" stroke-width="1"/>
            <path id="Path_54" data-name="Path 54" d="M-145.239,326.449v-6a5.06,5.06,0,0,1,1.372-3.7,5.446,5.446,0,0,1,4.075-1.511,5.4,5.4,0,0,1,4.074,1.511,5.161,5.161,0,0,1,1.352,3.7v6h-2.266v-6.361a2.8,2.8,0,0,0-.835-2.087,3.136,3.136,0,0,0-2.325-.855,3.215,3.215,0,0,0-2.326.874,2.8,2.8,0,0,0-.855,2.067v6.361Z" transform="translate(150.506 -310.368)" fill="#fff" stroke="#fff" stroke-miterlimit="10" stroke-width="1"/>
            <path id="Path_55" data-name="Path 55" d="M-119.787,322.373V310.387c0-2.743,1.789-4.095,5.387-4.095h1.371v1.888h-1.312c-2.127,0-3.18.855-3.18,2.564v.616h4.512v1.869h-4.512v9.143Z" transform="translate(138.909 -306.292)" fill="#fff" stroke="#fff" stroke-miterlimit="10" stroke-width="1"/>
          </g>
          <path id="Path_56" data-name="Path 56" d="M-145.567,293.862s3.677-3.955,8.547-3.617" transform="translate(154.055 -284.739)" fill="none" stroke="#fff" stroke-miterlimit="10" stroke-width="2.182"/>
          <path id="Path_57" data-name="Path 57" d="M-105.838,295.666a13.886,13.886,0,0,1,6.46,10.257" transform="translate(135.952 -287.218)" fill="none" stroke="#fff" stroke-miterlimit="10" stroke-width="2.182"/>
          <path id="Path_58" data-name="Path 58" d="M-101.036,317.575a5.446,5.446,0,0,0-5.606,5.268,5.433,5.433,0,0,0,5.606,5.268,5.458,5.458,0,0,0,5.605-5.268A5.458,5.458,0,0,0-101.036,317.575Zm1.987,5.9a2.322,2.322,0,0,1-2.445-2.186,2.322,2.322,0,0,1,2.445-2.187,2.322,2.322,0,0,1,2.445,2.187A2.322,2.322,0,0,1-99.049,323.478Z" transform="translate(136.319 -297.201)" fill="#fff" stroke="#fff" stroke-miterlimit="10" stroke-width="1"/>
        </g>
        <g id="Group_15" data-name="Group 15" transform="translate(20.315 2.961)">
          <g id="Group_14" data-name="Group 14">
            <path id="Path_59" data-name="Path 59" d="M-121.177,290.418v-2.187h-1.849v-.6h1.849v-.179c0-.855-.338-1.272-1.014-1.272s-1.014.418-1.014,1.272v2.962h-.636v-2.982a2,2,0,0,1,.417-1.312,1.528,1.528,0,0,1,1.232-.537,1.505,1.505,0,0,1,1.193.5,1.951,1.951,0,0,1,.457,1.352v2.982Z" transform="translate(123.84 -285.587)" fill="#003a6c"/>
            <path id="Path_60" data-name="Path 60" d="M-113.706,289.871v.6h-2.465c-.457,0-.7-.179-.7-.537a1.564,1.564,0,0,1,.338-.676l.02-.04,2.107-2.922h-2.187v-.6h2.147c.457,0,.7.179.7.537a1.57,1.57,0,0,1-.358.735l-2.087,2.9Z" transform="translate(120.662 -285.637)" fill="#003a6c"/>
          </g>
        </g>
      </g>
      <g id="Group_19" data-name="Group 19" transform="translate(-180.158 259.771)">
        <g id="Group_17" data-name="Group 17">
          <path id="Path_61" data-name="Path 61" d="M-171.745,311.571a32.851,32.851,0,0,1-2.8-3.419,30.263,30.263,0,0,1-2.286-3.777,30.243,30.243,0,0,1-2.822-8.348,30.751,30.751,0,0,1,1.849-17.373A30.826,30.826,0,0,1-166.755,265.1a35.059,35.059,0,0,1,3.836-2.226,33.617,33.617,0,0,1,4.115-1.65c.358-.119.716-.2,1.073-.318l.537-.159.537-.119c.358-.079.715-.179,1.073-.238l1.093-.2a29.816,29.816,0,0,1,4.413-.4l.556-.02.556.02c.378.02.736.02,1.113.02.735.059,1.471.1,2.207.2l.556.06.278.04.278.04,1.094.2c.358.059.715.159,1.093.238l.537.119.537.159a31.834,31.834,0,0,1,4.194,1.471,29.719,29.719,0,0,1,3.936,2.067,31.071,31.071,0,0,1,11.628,13.119,30.9,30.9,0,0,1,2.584,17.373,30.5,30.5,0,0,1-2.5,8.527,31.3,31.3,0,0,1-2.147,3.916.6.6,0,0,1-.1.119l-.1.1-.179.218-.358.418-.716.835-.715.835-.358.417-.179.219-.159.2-.4-.278.06-.079.04-.06.1-.1.179-.219.358-.418.715-.834.716-.835.358-.417.338-.4a30.02,30.02,0,0,0,2.127-3.837,30.186,30.186,0,0,0,2.484-8.388,30.486,30.486,0,0,0-2.484-17.154,30.689,30.689,0,0,0-11.469-13.02,28.988,28.988,0,0,0-3.876-2.067,31.12,31.12,0,0,0-4.135-1.491l-.536-.159-.537-.119c-.358-.079-.716-.179-1.073-.238l-1.094-.2-.278-.04-.278-.04-.537-.079c-.735-.119-1.451-.139-2.187-.2-.358-.02-.735-.02-1.093-.04l-.556-.02-.557.02a29.607,29.607,0,0,0-4.393.377l-1.093.2-1.073.239-.537.119-.537.159c-.358.1-.716.2-1.053.3a30.23,30.23,0,0,0-4.1,1.63,33.277,33.277,0,0,0-3.816,2.206,30.831,30.831,0,0,0-11.051,13.457,30.74,30.74,0,0,0-1.908,17.313,30.182,30.182,0,0,0,2.8,8.348,31.823,31.823,0,0,0,2.266,3.8A36.448,36.448,0,0,0-171.745,311.571Z" transform="translate(180.158 -259.771)" fill="#fff"/>
        </g>
        <g id="Group_18" data-name="Group 18" transform="translate(2.127 1.877)">
          <path id="Path_62" data-name="Path 62" d="M-169.427,309.982a28.2,28.2,0,0,1-4.353-6.778,28.254,28.254,0,0,1-1.391-3.816,30.709,30.709,0,0,1-.834-3.975c-.04-.338-.1-.676-.12-1.014l-.079-1.014c-.02-.676-.059-1.352-.04-2.047,0-.676.04-1.352.079-2.047.02-.338.08-.676.1-1.014l.06-.517c.02-.179.059-.337.079-.5a29.147,29.147,0,0,1,2.4-7.811A28.543,28.543,0,0,1-162.649,267.4a31.956,31.956,0,0,1,3.657-1.888,29.983,29.983,0,0,1,3.9-1.331,29.09,29.09,0,0,1,8.17-.954c.7,0,1.372.079,2.067.119l1.014.119.517.06.517.1a27.951,27.951,0,0,1,4,.994l.974.338.954.378a9.917,9.917,0,0,1,.954.417l.477.219a3.281,3.281,0,0,1,.457.219l.914.477c.3.159.6.338.895.517.139.08.3.179.437.259l.437.278c.278.2.576.358.855.576a28.783,28.783,0,0,1,10.177,12.642,29.629,29.629,0,0,1,1.272,3.9c.08.338.159.676.219.994l.1.5.079.5c.059.338.119.676.159,1.014l.119,1.014a27.912,27.912,0,0,1,.1,4.074l-.02.517-.04.517c-.04.338-.059.676-.1,1.014l-.139,1.014c-.04.338-.119.675-.179.994a27.351,27.351,0,0,1-1.053,3.936,27.953,27.953,0,0,1-1.61,3.717,29.014,29.014,0,0,1-2.127,3.439,29.561,29.561,0,0,1-2.6,3.081,29.229,29.229,0,0,0,4.373-6.7,27.064,27.064,0,0,0,1.431-3.717,28.868,28.868,0,0,0,.894-3.876,28.161,28.161,0,0,0-1.948-15.5,29,29,0,0,0-1.829-3.478,30.123,30.123,0,0,0-2.286-3.2,30.674,30.674,0,0,0-2.723-2.843,29.981,29.981,0,0,0-3.081-2.425,30.277,30.277,0,0,0-3.4-1.968c-.139-.079-.3-.139-.437-.218l-.438-.2a8.548,8.548,0,0,0-.894-.377l-.915-.358-.934-.318a27.816,27.816,0,0,0-3.8-.934l-.477-.079-.477-.06-.974-.119c-.656-.04-1.312-.119-1.948-.119a27.063,27.063,0,0,0-7.772.875,30.148,30.148,0,0,0-3.717,1.252,34.038,34.038,0,0,0-3.5,1.769,32.215,32.215,0,0,0-3.22,2.246,30.5,30.5,0,0,0-2.863,2.684,33.331,33.331,0,0,0-2.465,3.061,27.538,27.538,0,0,0-2.008,3.379,28.236,28.236,0,0,0-2.822,15.365,29.317,29.317,0,0,0,.656,3.916,28.167,28.167,0,0,0,1.232,3.8,27.287,27.287,0,0,0,1.75,3.6A33.391,33.391,0,0,0-169.427,309.982Z" transform="translate(176.251 -263.219)" fill="#fff"/>
        </g>
        <path id="Path_63" data-name="Path 63" d="M-115.561,346.317a30.585,30.585,0,0,1-24.886,12.762,26.62,26.62,0,0,1-15.683-4.313s-8.309-5.506-1.432-10.694c5.625-4.234,9.243,5.367,21.567,7.693a24.39,24.39,0,0,0,20.752-5.983Z" transform="translate(171.104 -297.697)" fill="#fff"/>
      </g>
    </g>
    <g id="Group_21" data-name="Group 21" transform="translate(-240.108 -105.233)">
      <path id="Path_64" data-name="Path 64" d="M271.838,154.131a1.973,1.973,0,0,1-.635,1.552,2.572,2.572,0,0,1-1.778.578,5.443,5.443,0,0,1-1.485-.232l.183-.694a5.115,5.115,0,0,0,1.324.231,1.632,1.632,0,0,0,1.133-.367,1.273,1.273,0,0,0,.406-1v-1.857a1.368,1.368,0,0,0-.392-1.006,1.487,1.487,0,0,0-1.111-.421,1.528,1.528,0,0,0-1.108.409,1.316,1.316,0,0,0-.406.99,1.344,1.344,0,0,0,.418,1.015,1.568,1.568,0,0,0,1.135.419,2.1,2.1,0,0,0,1.181-.373v.783a2.779,2.779,0,0,1-.612.21,3,3,0,0,1-.667.068,2.414,2.414,0,0,1-1.267-.339,2.026,2.026,0,0,1-.39-3.27,2.451,2.451,0,0,1,1.706-.593,2.653,2.653,0,0,1,1.243.293,2.041,2.041,0,0,1,.861.807,2.655,2.655,0,0,1,.262,1.33Z" fill="#fff"/>
      <path id="Path_65" data-name="Path 65" d="M280.6,154.368v-4.062h.778v.6a1.753,1.753,0,0,1,1.62-.673h.221v.7h-.128a1.781,1.781,0,0,0-1.28.381,1.525,1.525,0,0,0-.366,1.134v1.917Z" transform="translate(-7.695)" fill="#fff"/>
      <path id="Path_66" data-name="Path 66" d="M287.381,152.331a1.919,1.919,0,0,1,.7-1.487,2.636,2.636,0,0,1,3.364-.01,1.964,1.964,0,0,1,0,3,2.457,2.457,0,0,1-1.69.611,2.533,2.533,0,0,1-1.327-.354,2.142,2.142,0,0,1-.871-.94,1.9,1.9,0,0,1-.186-.817m.882-.008a1.349,1.349,0,0,0,.413.986,1.489,1.489,0,0,0,1.088.431,1.465,1.465,0,0,0,1.08-.436,1.371,1.371,0,0,0,.007-1.962,1.589,1.589,0,0,0-2.171,0,1.324,1.324,0,0,0-.418.978" transform="translate(-11.564)" fill="#fff"/>
      <path id="Path_67" data-name="Path 67" d="M304.36,150.4v2.215a1.885,1.885,0,0,1-.505,1.367,2.306,2.306,0,0,1-3,0,1.891,1.891,0,0,1-.5-1.367V150.4h.84v2.349a1.009,1.009,0,0,0,.314.764,1.16,1.16,0,0,0,.855.321,1.174,1.174,0,0,0,.856-.315,1.042,1.042,0,0,0,.306-.77V150.4Z" transform="translate(-18.963 -0.097)" fill="#fff"/>
      <path id="Path_68" data-name="Path 68" d="M312.057,156.174v-3.511a2.7,2.7,0,0,1,.259-1.33,2.045,2.045,0,0,1,.866-.816,2.688,2.688,0,0,1,1.247-.284,2.437,2.437,0,0,1,1.7.6,2.008,2.008,0,0,1,.02,2.962,2.3,2.3,0,0,1-.761.475,2.513,2.513,0,0,1-.922.167,2.883,2.883,0,0,1-1.279-.277v-.784a2.344,2.344,0,0,0,.885.35,2.107,2.107,0,0,0,.308.023,1.582,1.582,0,0,0,1.135-.418,1.352,1.352,0,0,0,.416-1.017,1.327,1.327,0,0,0-.408-.992,1.549,1.549,0,0,0-1.114-.408,1.489,1.489,0,0,0-1.111.423,1.37,1.37,0,0,0-.394,1.007v3.83Z" transform="translate(-25.639)" fill="#fff"/>
    </g>
  </g>
</svg>
