<svg xmlns="http://www.w3.org/2000/svg" xmlns:xlink="http://www.w3.org/1999/xlink" width="88" height="32" viewBox="0 0 88 32">
  <defs>
    <clipPath id="clip-dijital34-logo">
      <rect width="88" height="32"/>
    </clipPath>
  </defs>
  <g id="dijital34-logo" clip-path="url(#clip-dijital34-logo)">
    <g id="Group_10" data-name="Group 10" transform="translate(4.367 -3.72)">
      <g id="Group_7" data-name="Group 7" transform="translate(1.633 9.324)">
        <path id="Path_39" data-name="Path 39" d="M13.206,11.96a1.458,1.458,0,0,1,1.075.425,1.489,1.489,0,0,1,.425,1.1V28.933a1.5,1.5,0,0,1-.425,1.087,1.539,1.539,0,0,1-2.15,0,1.5,1.5,0,0,1-.425-1.087V27.708l.55.225a1.407,1.407,0,0,1-.35.788,4.743,4.743,0,0,1-.951.912,5.8,5.8,0,0,1-1.412.763,4.883,4.883,0,0,1-1.762.312,5.713,5.713,0,0,1-3.124-.887A6.232,6.232,0,0,1,2.445,27.37a7.658,7.658,0,0,1-.812-3.587,7.716,7.716,0,0,1,.812-3.612,6.3,6.3,0,0,1,2.187-2.449,5.5,5.5,0,0,1,3.049-.887,5.774,5.774,0,0,1,1.975.325,5.923,5.923,0,0,1,1.562.824A4.751,4.751,0,0,1,12.243,19a1.609,1.609,0,0,1,.363.862l-.9.325v-6.7a1.5,1.5,0,0,1,.425-1.087A1.437,1.437,0,0,1,13.206,11.96Zm-5.049,16a3.391,3.391,0,0,0,1.925-.55,3.719,3.719,0,0,0,1.287-1.5,4.784,4.784,0,0,0,.462-2.125,4.848,4.848,0,0,0-.462-2.15,3.723,3.723,0,0,0-1.287-1.5,3.394,3.394,0,0,0-1.925-.55,3.349,3.349,0,0,0-1.9.55,3.715,3.715,0,0,0-1.287,1.5,4.841,4.841,0,0,0-.463,2.15,4.778,4.778,0,0,0,.463,2.125,3.712,3.712,0,0,0,1.287,1.5A3.345,3.345,0,0,0,8.157,27.958Z" transform="translate(-1.633 -11.96)" fill="#fff"/>
        <path id="Path_40" data-name="Path 40" d="M33.859,34.121a1.5,1.5,0,0,1-.425,1.087,1.538,1.538,0,0,1-2.15,0,1.5,1.5,0,0,1-.425-1.087V23.8a1.5,1.5,0,0,1,.425-1.087,1.538,1.538,0,0,1,2.15,0,1.5,1.5,0,0,1,.425,1.087Z" transform="translate(-16.338 -17.148)" fill="#fff"/>
        <path id="Path_41" data-name="Path 41" d="M41.037,35.9a5.2,5.2,0,0,1-.55,2.463,4.136,4.136,0,0,1-1.475,1.612,3.851,3.851,0,0,1-2.074.575,1.325,1.325,0,0,1-1.013-.412,1.393,1.393,0,0,1-.387-.987V38.87a1.117,1.117,0,0,1,.363-.875,2.458,2.458,0,0,1,.912-.5,1.611,1.611,0,0,0,.85-.562,1.926,1.926,0,0,0,.313-.862,8.552,8.552,0,0,0,.062-1.05V23.8a1.494,1.494,0,0,1,.426-1.087,1.538,1.538,0,0,1,2.149,0,1.5,1.5,0,0,1,.425,1.087Z" transform="translate(-18.691 -17.148)" fill="#fff"/>
        <path id="Path_42" data-name="Path 42" d="M53.025,34.121a1.5,1.5,0,0,1-.425,1.087,1.538,1.538,0,0,1-2.15,0,1.5,1.5,0,0,1-.425-1.087V23.8a1.5,1.5,0,0,1,.425-1.087,1.538,1.538,0,0,1,2.15,0,1.5,1.5,0,0,1,.425,1.087Z" transform="translate(-25.98 -17.148)" fill="#fff"/>
        <path id="Path_43" data-name="Path 43" d="M57.864,19.611h5.925a1.367,1.367,0,0,1,1.4,1.4,1.286,1.286,0,0,1-.4.962,1.379,1.379,0,0,1-1,.388H57.864a1.366,1.366,0,0,1-1.4-1.4,1.286,1.286,0,0,1,.4-.962A1.381,1.381,0,0,1,57.864,19.611Zm2.675-3.124a1.4,1.4,0,0,1,1.063.438,1.525,1.525,0,0,1,.412,1.087V29.135a1.091,1.091,0,0,0,.137.575.789.789,0,0,0,.375.324,1.3,1.3,0,0,0,.512.1,1.327,1.327,0,0,0,.551-.113,1.389,1.389,0,0,1,.574-.112.843.843,0,0,1,.637.325,1.349,1.349,0,0,1-.475,2.05,3.17,3.17,0,0,1-1.637.45,8.57,8.57,0,0,1-1.163-.088,3.137,3.137,0,0,1-1.2-.425,2.6,2.6,0,0,1-.937-1.037,4.112,4.112,0,0,1-.375-1.925V18.012a1.5,1.5,0,0,1,1.524-1.525Z" transform="translate(-29.22 -14.238)" fill="#fff"/>
        <path id="Path_44" data-name="Path 44" d="M86.348,21.77a1.457,1.457,0,0,1,1.075.425,1.487,1.487,0,0,1,.425,1.1V33.868a1.5,1.5,0,0,1-.425,1.087,1.538,1.538,0,0,1-2.15,0,1.5,1.5,0,0,1-.424-1.087V32.643l.55.225a1.407,1.407,0,0,1-.35.788,4.753,4.753,0,0,1-.95.912,5.817,5.817,0,0,1-1.413.763,4.878,4.878,0,0,1-1.762.312,5.713,5.713,0,0,1-3.124-.887,6.232,6.232,0,0,1-2.212-2.449,7.658,7.658,0,0,1-.813-3.587,7.716,7.716,0,0,1,.813-3.612,6.309,6.309,0,0,1,2.187-2.449,5.506,5.506,0,0,1,3.05-.887,5.777,5.777,0,0,1,1.975.325,5.9,5.9,0,0,1,1.562.824,4.754,4.754,0,0,1,1.025,1.013,1.611,1.611,0,0,1,.362.862l-.9.325V23.294a1.5,1.5,0,0,1,.424-1.087A1.435,1.435,0,0,1,86.348,21.77ZM81.3,32.893a3.387,3.387,0,0,0,1.924-.55,3.709,3.709,0,0,0,1.287-1.5,4.784,4.784,0,0,0,.463-2.125,4.848,4.848,0,0,0-.463-2.15,3.712,3.712,0,0,0-1.287-1.5,3.391,3.391,0,0,0-1.924-.55,3.347,3.347,0,0,0-1.9.55,3.712,3.712,0,0,0-1.287,1.5,4.848,4.848,0,0,0-.463,2.15,4.784,4.784,0,0,0,.463,2.125,3.709,3.709,0,0,0,1.287,1.5A3.343,3.343,0,0,0,81.3,32.893Z" transform="translate(-38.432 -16.896)" fill="#fff"/>
        <path id="Path_45" data-name="Path 45" d="M107.858,28.933a1.495,1.495,0,0,1-1.524,1.525,1.4,1.4,0,0,1-1.05-.438,1.5,1.5,0,0,1-.425-1.087V13.484a1.493,1.493,0,0,1,1.525-1.524,1.4,1.4,0,0,1,1.062.437,1.526,1.526,0,0,1,.412,1.087Z" transform="translate(-53.568 -11.96)" fill="#fff"/>
      </g>
      <g id="Group_9" data-name="Group 9" transform="translate(57.206 9.723)">
        <g id="Group_8" data-name="Group 8">
          <path id="Path_46" data-name="Path 46" d="M115.276,26.737a1.771,1.771,0,0,1,.487.075,2.046,2.046,0,0,1,.587.3,4.663,4.663,0,0,0,1.013.575,3.45,3.45,0,0,0,1.362.25,2.931,2.931,0,0,0,1.462-.387,3.184,3.184,0,0,0,1.137-1.1,3.139,3.139,0,0,0,.451-1.712,2.94,2.94,0,0,0-.388-1.575,2.558,2.558,0,0,0-1.025-.95A2.966,2.966,0,0,0,119,21.887a3.519,3.519,0,0,0-.912.1c-.242.067-.475.138-.7.213a2.5,2.5,0,0,1-.788.112,1.061,1.061,0,0,1-.888-.4,1.5,1.5,0,0,1-.312-.95,1.381,1.381,0,0,1,.137-.625,3.155,3.155,0,0,1,.412-.6l4.4-4.8.675.575h-6.149a1.366,1.366,0,0,1-1.4-1.4,1.285,1.285,0,0,1,.4-.962,1.378,1.378,0,0,1,1-.387h7.649a1.5,1.5,0,0,1,1.162.425,1.534,1.534,0,0,1,.388,1.075,1.3,1.3,0,0,1-.162.625,2.494,2.494,0,0,1-.437.574l-4.425,4.874-.675-.85a3.711,3.711,0,0,1,.763-.225,4.178,4.178,0,0,1,.812-.1,4.35,4.35,0,0,1,2.562.762,5.078,5.078,0,0,1,1.674,1.975,5.913,5.913,0,0,1,.588,2.612,6.015,6.015,0,0,1-.825,3.2,5.414,5.414,0,0,1-2.324,2.074,7.952,7.952,0,0,1-3.5.725,7.493,7.493,0,0,1-1.825-.225,6.019,6.019,0,0,1-1.55-.6,1.72,1.72,0,0,1-.737-.662,1.5,1.5,0,0,1-.188-.688,1.708,1.708,0,0,1,.412-1.087A1.279,1.279,0,0,1,115.276,26.737Z" transform="translate(-113.476 -12.764)" fill="#fff"/>
          <path id="Path_47" data-name="Path 47" d="M140.4,30.261a1.4,1.4,0,0,1-1.05-.437,1.5,1.5,0,0,1-.425-1.088V16.988l.525.125-4.824,5.974-.125-.325h8.474a1.367,1.367,0,0,1,1.4,1.4,1.284,1.284,0,0,1-.4.962,1.378,1.378,0,0,1-1,.387H132.431a1.527,1.527,0,0,1-1.012-.425,1.337,1.337,0,0,1-.487-1.049,1.528,1.528,0,0,1,.375-1l7.9-9.673a1.432,1.432,0,0,1,.525-.438,1.6,1.6,0,0,1,.725-.162,1.4,1.4,0,0,1,1.062.437,1.524,1.524,0,0,1,.412,1.087V28.736a1.494,1.494,0,0,1-1.524,1.525Z" transform="translate(-122.258 -12.764)" fill="#fff"/>
        </g>
      </g>
      <path id="Path_48" data-name="Path 48" d="M31.831,16.1a1.356,1.356,0,0,1-1.5-1.5v-.426a1.356,1.356,0,0,1,1.5-1.5h.325a1.356,1.356,0,0,1,1.5,1.5V14.6a1.356,1.356,0,0,1-1.5,1.5Z" transform="translate(-14.437 -2.994)" fill="#fff"/>
      <path id="Path_49" data-name="Path 49" d="M41.778,17.745a1.356,1.356,0,0,1-1.5-1.5v-.426a1.356,1.356,0,0,1,1.5-1.5H42.1a1.356,1.356,0,0,1,1.5,1.5v.426a1.356,1.356,0,0,1-1.5,1.5Z" transform="translate(-19.441 -3.821)" fill="#fff"/>
      <path id="Path_50" data-name="Path 50" d="M51.062,10.151a1.507,1.507,0,0,1-1.115-.389,1.507,1.507,0,0,1-.388-1.114V8.223a1.509,1.509,0,0,1,.388-1.115,1.509,1.509,0,0,1,1.115-.388h.325a1.51,1.51,0,0,1,1.115.388,1.509,1.509,0,0,1,.389,1.115v.426A1.507,1.507,0,0,1,52.5,9.762a1.508,1.508,0,0,1-1.115.389Z" transform="translate(-24.112)" fill="#fff"/>
      <line id="Line_5" data-name="Line 5" x2="3.101" y2="0.692" transform="translate(18.494 11.357)" fill="none" stroke="#fff" stroke-linecap="round" stroke-width="1"/>
      <line id="Line_6" data-name="Line 6" y1="3.378" x2="3.603" transform="translate(23.522 8.492)" fill="none" stroke="#fff" stroke-linecap="round" stroke-width="1"/>
    </g>
    <g id="Group_11" data-name="Group 11" transform="translate(30.217 25.32)">
      <path id="Path_8" data-name="Path 8" d="M58.842,53.9a.211.211,0,0,1,.157.069.239.239,0,0,1,.067.175.279.279,0,0,1,0,.049.225.225,0,0,1-.012.041l-.6,1.616a.215.215,0,0,1-.1.12A.223.223,0,0,1,58.2,56a.228.228,0,0,1-.2-.149l-.388-1.117.1,0-.364,1.114a.23.23,0,0,1-.2.149.218.218,0,0,1-.148-.03.216.216,0,0,1-.1-.12l-.6-1.616a.261.261,0,0,1,.047-.259.213.213,0,0,1,.173-.074.253.253,0,0,1,.133.035.189.189,0,0,1,.083.114l.474,1.286-.1-.008.357-.969a.219.219,0,0,1,.215-.145.2.2,0,0,1,.132.037.265.265,0,0,1,.073.108l.357.969-.117.016.482-1.294A.209.209,0,0,1,58.842,53.9Z" transform="translate(-56.289 -53.098)" fill="#fff"/>
      <path id="Path_9" data-name="Path 9" d="M62.977,56a1.153,1.153,0,0,1-.579-.139.959.959,0,0,1-.377-.379,1.1,1.1,0,0,1-.131-.541,1.2,1.2,0,0,1,.143-.6,1.017,1.017,0,0,1,.375-.382.972.972,0,0,1,.491-.133.892.892,0,0,1,.378.082,1.034,1.034,0,0,1,.315.226,1.108,1.108,0,0,1,.218.331,1.013,1.013,0,0,1,.081.4.2.2,0,0,1-.075.153.248.248,0,0,1-.164.059h-1.5l-.118-.392h1.439l-.086.078v-.106a.362.362,0,0,0-.08-.2.534.534,0,0,0-.18-.143.518.518,0,0,0-.229-.053.749.749,0,0,0-.22.032.422.422,0,0,0-.176.106.505.505,0,0,0-.118.2.987.987,0,0,0-.043.318.685.685,0,0,0,.089.359.6.6,0,0,0,.227.223.607.607,0,0,0,.3.076.9.9,0,0,0,.231-.023.524.524,0,0,0,.139-.057c.035-.022.067-.041.1-.057a.3.3,0,0,1,.133-.035.2.2,0,0,1,.2.2.242.242,0,0,1-.11.192.91.91,0,0,1-.286.151A1.146,1.146,0,0,1,62.977,56Z" transform="translate(-59.039 -53.06)" fill="#fff"/>
      <path id="Path_10" data-name="Path 10" d="M67.322,53.087a.893.893,0,0,1,.492.139.994.994,0,0,1,.346.382,1.2,1.2,0,0,1,.127.565,1.214,1.214,0,0,1-.127.567,1,1,0,0,1-.341.384.864.864,0,0,1-.481.139.847.847,0,0,1-.294-.051.939.939,0,0,1-.241-.129.756.756,0,0,1-.161-.159.253.253,0,0,1-.057-.135l.122-.051v.287a.235.235,0,0,1-.067.171.244.244,0,0,1-.337,0,.232.232,0,0,1-.067-.173V52.561a.235.235,0,0,1,.067-.171.241.241,0,0,1,.337,0,.236.236,0,0,1,.067.171v1l-.067-.035A.218.218,0,0,1,66.7,53.4a.777.777,0,0,1,.149-.145.852.852,0,0,1,.218-.12A.73.73,0,0,1,67.322,53.087Zm-.059.431a.531.531,0,0,0-.3.087.58.58,0,0,0-.2.233.74.74,0,0,0-.073.335.757.757,0,0,0,.073.335.58.58,0,0,0,.2.237.53.53,0,0,0,.3.086.523.523,0,0,0,.3-.086.589.589,0,0,0,.2-.237.772.772,0,0,0,.073-.335.752.752,0,0,0-.073-.335.591.591,0,0,0-.2-.233A.529.529,0,0,0,67.263,53.518Z" transform="translate(-61.172 -52.322)" fill="#fff"/>
      <path id="Path_11" data-name="Path 11" d="M73.19,55.378a1.022,1.022,0,0,1-.5-.122.95.95,0,0,1-.349-.318.757.757,0,0,1-.128-.42.913.913,0,0,1,.069-.359.811.811,0,0,1,.208-.288,1.185,1.185,0,0,1,.354-.212l.306.318a.618.618,0,0,0-.367.179.467.467,0,0,0-.092.292.489.489,0,0,0,.059.23.455.455,0,0,0,.192.184.752.752,0,0,0,.357.073.649.649,0,0,0,.331-.085.866.866,0,0,0,.255-.223,1.289,1.289,0,0,0,.177-.31,1.466,1.466,0,0,0,.092-.347.149.149,0,0,1,.049-.1.218.218,0,0,1,.139-.036.185.185,0,0,1,.16.083.256.256,0,0,1,.043.192,1.78,1.78,0,0,1-.135.461,1.526,1.526,0,0,1-.266.408,1.222,1.222,0,0,1-.4.29A1.33,1.33,0,0,1,73.19,55.378Zm1.4-.031a.244.244,0,0,1-.08-.012.171.171,0,0,1-.053-.027q-.282-.243-.516-.449c-.156-.137-.3-.268-.43-.394s-.254-.254-.369-.384l-.251-.283a1.382,1.382,0,0,1-.182-.245.526.526,0,0,1-.069-.265.666.666,0,0,1,.1-.359.777.777,0,0,1,.3-.271.943.943,0,0,1,.455-.1,1.268,1.268,0,0,1,.489.09.536.536,0,0,1,.292.239.209.209,0,0,1,.02.049.31.31,0,0,1,.015.1.175.175,0,0,1-.054.129.2.2,0,0,1-.149.055.176.176,0,0,1-.1-.023.256.256,0,0,1-.054-.047.473.473,0,0,0-.2-.159.694.694,0,0,0-.261-.045.359.359,0,0,0-.268.094.309.309,0,0,0-.093.223.411.411,0,0,0,.087.241,1.612,1.612,0,0,0,.2.226c.074.071.137.133.186.188.081.086.172.178.273.276s.2.193.3.287l.285.259q.131.119.214.2a.376.376,0,0,1,.076.094.239.239,0,0,1,.025.114.259.259,0,0,1-.045.126A.161.161,0,0,1,74.587,55.347Z" transform="translate(-64.107 -52.436)" fill="#fff"/>
      <path id="Path_12" data-name="Path 12" d="M80.979,52.323a.23.23,0,0,1,.168.067.234.234,0,0,1,.067.173v2.424a.235.235,0,0,1-.067.171.242.242,0,0,1-.338,0,.235.235,0,0,1-.067-.171v-.192l.087.035a.219.219,0,0,1-.055.123.722.722,0,0,1-.149.144.942.942,0,0,1-.221.12.769.769,0,0,1-.277.049.9.9,0,0,1-.49-.139.977.977,0,0,1-.347-.384,1.317,1.317,0,0,1,0-1.13.991.991,0,0,1,.343-.384.866.866,0,0,1,.479-.139.919.919,0,0,1,.554.18.741.741,0,0,1,.16.159.255.255,0,0,1,.057.135l-.141.051V52.563a.236.236,0,0,1,.067-.171A.227.227,0,0,1,80.979,52.323Zm-.792,2.51a.532.532,0,0,0,.3-.086.576.576,0,0,0,.2-.235.744.744,0,0,0,.073-.333.756.756,0,0,0-.073-.338.584.584,0,0,0-.2-.235.564.564,0,0,0-.6,0,.58.58,0,0,0-.2.235.754.754,0,0,0-.073.338.744.744,0,0,0,.073.333.581.581,0,0,0,.2.235A.526.526,0,0,0,80.187,54.833Z" transform="translate(-67.519 -52.323)" fill="#fff"/>
      <path id="Path_13" data-name="Path 13" d="M84.007,52.951a.313.313,0,0,1-.188-.043.183.183,0,0,1-.054-.153v-.075a.173.173,0,0,1,.061-.155.335.335,0,0,1,.186-.041.318.318,0,0,1,.192.043.184.184,0,0,1,.055.153v.074a.177.177,0,0,1-.059.155A.338.338,0,0,1,84.007,52.951Zm.239,2.114a.234.234,0,0,1-.067.171.223.223,0,0,1-.169.069.226.226,0,0,1-.169-.069.235.235,0,0,1-.067-.171v-1.62a.235.235,0,0,1,.067-.171.226.226,0,0,1,.169-.069.223.223,0,0,1,.169.069.234.234,0,0,1,.067.171Z" transform="translate(-69.778 -52.402)" fill="#fff"/>
      <path id="Path_14" data-name="Path 14" d="M85.512,55.344a.809.809,0,0,1-.087.386.643.643,0,0,1-.231.253.6.6,0,0,1-.325.09.209.209,0,0,1-.159-.065.219.219,0,0,1-.061-.155v-.043a.176.176,0,0,1,.057-.137.39.39,0,0,1,.143-.078.253.253,0,0,0,.133-.088.292.292,0,0,0,.049-.135,1.227,1.227,0,0,0,.01-.165V53.446a.234.234,0,0,1,.067-.171.241.241,0,0,1,.337,0,.234.234,0,0,1,.067.171Zm-.243-2.393a.315.315,0,0,1-.189-.043.185.185,0,0,1-.054-.153v-.075a.172.172,0,0,1,.061-.155.334.334,0,0,1,.186-.041.315.315,0,0,1,.192.043.185.185,0,0,1,.055.153v.074a.177.177,0,0,1-.059.155A.343.343,0,0,1,85.269,52.951Z" transform="translate(-70.212 -52.402)" fill="#fff"/>
      <path id="Path_15" data-name="Path 15" d="M87.235,52.951a.312.312,0,0,1-.188-.043.183.183,0,0,1-.055-.153v-.075a.174.174,0,0,1,.061-.155.334.334,0,0,1,.186-.041.319.319,0,0,1,.192.043.184.184,0,0,1,.054.153v.074a.178.178,0,0,1-.059.155A.34.34,0,0,1,87.235,52.951Zm.239,2.114a.233.233,0,0,1-.067.171.241.241,0,0,1-.337,0A.233.233,0,0,1,87,55.065v-1.62a.233.233,0,0,1,.067-.171.241.241,0,0,1,.337,0,.233.233,0,0,1,.067.171Z" transform="translate(-71.362 -52.402)" fill="#fff"/>
      <path id="Path_16" data-name="Path 16" d="M88.366,53.506H89.3a.214.214,0,0,1,.22.219.2.2,0,0,1-.063.151.217.217,0,0,1-.157.061h-.929a.216.216,0,0,1-.22-.22.2.2,0,0,1,.063-.151A.218.218,0,0,1,88.366,53.506Zm.419-.49a.219.219,0,0,1,.166.069.239.239,0,0,1,.065.171V55a.171.171,0,0,0,.021.09.122.122,0,0,0,.059.051.2.2,0,0,0,.08.016.206.206,0,0,0,.086-.018.22.22,0,0,1,.091-.017.13.13,0,0,1,.1.051.2.2,0,0,1,.045.142.207.207,0,0,1-.119.18.5.5,0,0,1-.257.071,1.347,1.347,0,0,1-.182-.014.5.5,0,0,1-.188-.067.409.409,0,0,1-.147-.162.644.644,0,0,1-.059-.3V53.256a.236.236,0,0,1,.239-.24Z" transform="translate(-71.929 -52.663)" fill="#fff"/>
      <path id="Path_17" data-name="Path 17" d="M92.913,53.825a.226.226,0,0,1,.168.067.232.232,0,0,1,.067.173v1.659a.233.233,0,0,1-.067.171.242.242,0,0,1-.338,0,.235.235,0,0,1-.067-.171v-.192l.087.035a.222.222,0,0,1-.054.123.748.748,0,0,1-.149.144.952.952,0,0,1-.221.12.769.769,0,0,1-.277.049.9.9,0,0,1-.49-.139.973.973,0,0,1-.347-.384,1.312,1.312,0,0,1,0-1.13.983.983,0,0,1,.343-.384.864.864,0,0,1,.478-.139.919.919,0,0,1,.555.18.756.756,0,0,1,.161.159.253.253,0,0,1,.057.135l-.142.051v-.287a.236.236,0,0,1,.067-.171A.228.228,0,0,1,92.913,53.825Zm-.792,1.745a.532.532,0,0,0,.3-.086.58.58,0,0,0,.2-.235.751.751,0,0,0,.073-.333.763.763,0,0,0-.073-.338.588.588,0,0,0-.2-.235.532.532,0,0,0-.3-.087.524.524,0,0,0-.3.087.58.58,0,0,0-.2.235.754.754,0,0,0-.073.338.744.744,0,0,0,.073.333.581.581,0,0,0,.2.235A.525.525,0,0,0,92.121,55.57Z" transform="translate(-73.378 -53.06)" fill="#fff"/>
      <path id="Path_18" data-name="Path 18" d="M96.321,54.985a.235.235,0,0,1-.239.239.22.22,0,0,1-.164-.069.233.233,0,0,1-.067-.171V52.561a.235.235,0,0,1,.239-.239.218.218,0,0,1,.166.069.239.239,0,0,1,.065.171Z" transform="translate(-75.712 -52.322)" fill="#fff"/>
      <path id="Path_19" data-name="Path 19" d="M100.39,53.825a.9.9,0,0,1,.492.139.994.994,0,0,1,.346.382,1.2,1.2,0,0,1,.127.565,1.22,1.22,0,0,1-.127.567,1,1,0,0,1-.342.384.86.86,0,0,1-.48.139.846.846,0,0,1-.294-.051.942.942,0,0,1-.242-.129.741.741,0,0,1-.16-.159.253.253,0,0,1-.057-.135l.121-.051v1.032a.236.236,0,0,1-.067.171.226.226,0,0,1-.169.069.228.228,0,0,1-.169-.067.234.234,0,0,1-.067-.173V54.1a.235.235,0,0,1,.067-.171.242.242,0,0,1,.338,0,.235.235,0,0,1,.067.171v.192l-.067-.035a.221.221,0,0,1,.054-.124.8.8,0,0,1,.149-.145.869.869,0,0,1,.218-.12A.737.737,0,0,1,100.39,53.825Zm-.06.431a.53.53,0,0,0-.3.087.58.58,0,0,0-.2.233.74.74,0,0,0-.073.335.757.757,0,0,0,.073.335.58.58,0,0,0,.2.237.529.529,0,0,0,.3.086.523.523,0,0,0,.3-.086.588.588,0,0,0,.2-.237.764.764,0,0,0,.073-.335.745.745,0,0,0-.073-.335.59.59,0,0,0-.2-.233A.524.524,0,0,0,100.331,54.256Z" transform="translate(-77.407 -53.06)" fill="#fff"/>
      <path id="Path_20" data-name="Path 20" d="M105.333,53.825a.228.228,0,0,1,.169.067.234.234,0,0,1,.067.173v1.659a.235.235,0,0,1-.067.171.242.242,0,0,1-.338,0,.233.233,0,0,1-.067-.171v-.192l.087.035a.219.219,0,0,1-.055.123.735.735,0,0,1-.149.144.922.922,0,0,1-.221.12.769.769,0,0,1-.277.049.9.9,0,0,1-.49-.139.986.986,0,0,1-.348-.384,1.322,1.322,0,0,1,0-1.13,1,1,0,0,1,.344-.384.862.862,0,0,1,.478-.139.919.919,0,0,1,.554.18.744.744,0,0,1,.161.159.253.253,0,0,1,.057.135l-.141.051v-.287a.234.234,0,0,1,.067-.171A.228.228,0,0,1,105.333,53.825Zm-.792,1.745a.529.529,0,0,0,.3-.086.576.576,0,0,0,.2-.235.744.744,0,0,0,.073-.333.755.755,0,0,0-.073-.338.584.584,0,0,0-.2-.235.53.53,0,0,0-.3-.087.521.521,0,0,0-.3.087.577.577,0,0,0-.2.235.761.761,0,0,0-.073.338.751.751,0,0,0,.073.333.578.578,0,0,0,.2.235A.522.522,0,0,0,104.541,55.57Z" transform="translate(-79.475 -53.06)" fill="#fff"/>
      <path id="Path_21" data-name="Path 21" d="M109.4,55.607a.22.22,0,0,1,.158.061.221.221,0,0,1,0,.308.215.215,0,0,1-.158.063h-1.262a.194.194,0,0,1-.157-.071.2.2,0,0,1-.055-.141.573.573,0,0,1,.016-.1.3.3,0,0,1,.059-.1l.977-1.263-.008.055h-.8a.215.215,0,0,1-.219-.22.2.2,0,0,1,.063-.151.215.215,0,0,1,.157-.061h1.208a.2.2,0,0,1,.153.066.21.21,0,0,1,.054.169.524.524,0,0,1-.013.078.287.287,0,0,1-.053.094l-.961,1.243v-.023Z" transform="translate(-81.638 -53.136)" fill="#fff"/>
      <path id="Path_22" data-name="Path 22" d="M113.153,53.825a.226.226,0,0,1,.169.067.232.232,0,0,1,.067.173v1.659a.233.233,0,0,1-.067.171.241.241,0,0,1-.337,0,.234.234,0,0,1-.067-.171v-.192l.087.035a.222.222,0,0,1-.054.123.748.748,0,0,1-.149.144.945.945,0,0,1-.222.12A.766.766,0,0,1,112.3,56a.9.9,0,0,1-.49-.139.977.977,0,0,1-.347-.384,1.317,1.317,0,0,1,0-1.13.987.987,0,0,1,.343-.384.865.865,0,0,1,.479-.139.919.919,0,0,1,.554.18.741.741,0,0,1,.16.159.255.255,0,0,1,.057.135l-.142.051v-.287a.235.235,0,0,1,.067-.171A.227.227,0,0,1,113.153,53.825Zm-.792,1.745a.532.532,0,0,0,.3-.086.576.576,0,0,0,.2-.235.744.744,0,0,0,.073-.333.756.756,0,0,0-.073-.338.584.584,0,0,0-.2-.235.531.531,0,0,0-.3-.087.525.525,0,0,0-.3.087.576.576,0,0,0-.2.235.754.754,0,0,0-.073.338.744.744,0,0,0,.073.333.577.577,0,0,0,.2.235A.524.524,0,0,0,112.361,55.57Z" transform="translate(-83.314 -53.06)" fill="#fff"/>
      <path id="Path_23" data-name="Path 23" d="M116.249,55.963a.225.225,0,0,1-.169-.069.233.233,0,0,1-.067-.171V54.1a.233.233,0,0,1,.067-.171.242.242,0,0,1,.338,0,.235.235,0,0,1,.067.171v.369l-.027-.263a.6.6,0,0,1,.112-.167.639.639,0,0,1,.155-.121.7.7,0,0,1,.184-.073.832.832,0,0,1,.2-.023.3.3,0,0,1,.2.067.2.2,0,0,1,.08.157.233.233,0,0,1-.067.186.221.221,0,0,1-.145.057.328.328,0,0,1-.136-.027.335.335,0,0,0-.139-.027.34.34,0,0,0-.143.033.391.391,0,0,0-.134.1.534.534,0,0,0-.1.175.724.724,0,0,0-.037.245v.93a.235.235,0,0,1-.067.171A.226.226,0,0,1,116.249,55.963Z" transform="translate(-85.61 -53.06)" fill="#fff"/>
      <path id="Path_24" data-name="Path 24" d="M119.55,54.985a.235.235,0,0,1-.239.239.218.218,0,0,1-.164-.069.234.234,0,0,1-.067-.171V52.561a.235.235,0,0,1,.239-.239.219.219,0,0,1,.167.069.238.238,0,0,1,.064.171Z" transform="translate(-87.116 -52.322)" fill="#fff"/>
      <path id="Path_25" data-name="Path 25" d="M122.312,53.825a.226.226,0,0,1,.168.067.232.232,0,0,1,.067.173v1.659a.234.234,0,0,1-.067.171.241.241,0,0,1-.337,0,.233.233,0,0,1-.067-.171v-.192l.087.035a.223.223,0,0,1-.055.123.735.735,0,0,1-.149.144.922.922,0,0,1-.221.12.769.769,0,0,1-.277.049.9.9,0,0,1-.49-.139.982.982,0,0,1-.348-.384,1.317,1.317,0,0,1,0-1.13,1,1,0,0,1,.344-.384.862.862,0,0,1,.478-.139.919.919,0,0,1,.554.18.74.74,0,0,1,.16.159.251.251,0,0,1,.057.135l-.141.051v-.287a.234.234,0,0,1,.067-.171A.228.228,0,0,1,122.312,53.825Zm-.792,1.745a.53.53,0,0,0,.3-.086.58.58,0,0,0,.2-.235.751.751,0,0,0,.073-.333.763.763,0,0,0-.073-.338.588.588,0,0,0-.2-.235.53.53,0,0,0-.3-.087.521.521,0,0,0-.3.087.582.582,0,0,0-.2.235.768.768,0,0,0-.073.338.758.758,0,0,0,.073.333.583.583,0,0,0,.2.235A.521.521,0,0,0,121.521,55.57Z" transform="translate(-87.811 -53.06)" fill="#fff"/>
      <path id="Path_26" data-name="Path 26" d="M126.275,53.824a.628.628,0,0,1,.463.151.754.754,0,0,1,.2.39l-.067-.036.032-.063a.894.894,0,0,1,.145-.194.877.877,0,0,1,.237-.177.767.767,0,0,1,.741.049.619.619,0,0,1,.2.324,1.713,1.713,0,0,1,.054.449v1a.233.233,0,0,1-.067.171.241.241,0,0,1-.337,0,.235.235,0,0,1-.066-.171v-1a.79.79,0,0,0-.032-.233.317.317,0,0,0-.114-.167.384.384,0,0,0-.236-.063.49.49,0,0,0-.255.063.4.4,0,0,0-.159.167.509.509,0,0,0-.053.233v1a.235.235,0,0,1-.067.171.242.242,0,0,1-.337,0,.235.235,0,0,1-.067-.171v-1a.825.825,0,0,0-.031-.233.321.321,0,0,0-.115-.167.382.382,0,0,0-.235-.063.493.493,0,0,0-.255.063.4.4,0,0,0-.159.167.509.509,0,0,0-.053.233v1a.235.235,0,0,1-.067.171.241.241,0,0,1-.337,0,.233.233,0,0,1-.067-.171V54.1a.233.233,0,0,1,.067-.171.241.241,0,0,1,.337,0,.235.235,0,0,1,.067.171v.169l-.059-.012a.939.939,0,0,1,.1-.143.869.869,0,0,1,.154-.143.812.812,0,0,1,.2-.108A.7.7,0,0,1,126.275,53.824Z" transform="translate(-90.106 -53.059)" fill="#fff"/>
      <path id="Path_27" data-name="Path 27" d="M133.508,53.825a.227.227,0,0,1,.169.067.234.234,0,0,1,.067.173v1.659a.235.235,0,0,1-.067.171.241.241,0,0,1-.337,0,.233.233,0,0,1-.067-.171v-.192l.086.035a.214.214,0,0,1-.054.123.744.744,0,0,1-.149.144.956.956,0,0,1-.222.12.768.768,0,0,1-.276.049.9.9,0,0,1-.491-.139.981.981,0,0,1-.347-.384,1.317,1.317,0,0,1,0-1.13.991.991,0,0,1,.343-.384.867.867,0,0,1,.479-.139.919.919,0,0,1,.554.18.745.745,0,0,1,.161.159.253.253,0,0,1,.057.135l-.141.051v-.287a.234.234,0,0,1,.067-.171A.226.226,0,0,1,133.508,53.825Zm-.793,1.745a.534.534,0,0,0,.3-.086.584.584,0,0,0,.2-.235.744.744,0,0,0,.073-.333.756.756,0,0,0-.073-.338.592.592,0,0,0-.2-.235.535.535,0,0,0-.3-.087.526.526,0,0,0-.3.087.58.58,0,0,0-.2.235.761.761,0,0,0-.073.338.751.751,0,0,0,.073.333.581.581,0,0,0,.2.235A.526.526,0,0,0,132.716,55.57Z" transform="translate(-93.307 -53.06)" fill="#fff"/>
      <path id="Path_28" data-name="Path 28" d="M139.756,53.825a.226.226,0,0,1,.169.067.232.232,0,0,1,.067.173v1.659a.233.233,0,0,1-.067.171.241.241,0,0,1-.337,0,.233.233,0,0,1-.067-.171v-.192l.086.035a.218.218,0,0,1-.054.123.749.749,0,0,1-.149.144.946.946,0,0,1-.222.12.766.766,0,0,1-.276.049.9.9,0,0,1-.49-.139.977.977,0,0,1-.347-.384,1.312,1.312,0,0,1,0-1.13.987.987,0,0,1,.343-.384.867.867,0,0,1,.479-.139.919.919,0,0,1,.554.18.741.741,0,0,1,.16.159.253.253,0,0,1,.057.135l-.14.051v-.287a.234.234,0,0,1,.067-.171A.226.226,0,0,1,139.756,53.825Zm-.793,1.745a.533.533,0,0,0,.3-.086.58.58,0,0,0,.2-.235.744.744,0,0,0,.073-.333.755.755,0,0,0-.073-.338.588.588,0,0,0-.2-.235.534.534,0,0,0-.3-.087.525.525,0,0,0-.3.087.576.576,0,0,0-.2.235.754.754,0,0,0-.073.338.744.744,0,0,0,.073.333.577.577,0,0,0,.2.235A.524.524,0,0,0,138.964,55.57Z" transform="translate(-96.375 -53.06)" fill="#fff"/>
      <path id="Path_29" data-name="Path 29" d="M142.825,55.344a.815.815,0,0,1-.086.386.648.648,0,0,1-.232.253.6.6,0,0,1-.326.09.21.21,0,0,1-.159-.065.218.218,0,0,1-.06-.155v-.043a.176.176,0,0,1,.057-.137.4.4,0,0,1,.143-.078.251.251,0,0,0,.133-.088.3.3,0,0,0,.049-.135,1.229,1.229,0,0,0,.01-.165V53.446a.234.234,0,0,1,.067-.171.241.241,0,0,1,.337,0,.235.235,0,0,1,.067.171v1.9Zm-.242-2.393a.314.314,0,0,1-.189-.043.183.183,0,0,1-.054-.153v-.075a.173.173,0,0,1,.061-.155.335.335,0,0,1,.186-.041.317.317,0,0,1,.192.043.185.185,0,0,1,.055.153v.074a.177.177,0,0,1-.059.155A.338.338,0,0,1,142.583,52.951Z" transform="translate(-98.349 -52.402)" fill="#fff"/>
      <path id="Path_30" data-name="Path 30" d="M145.966,53.825a.228.228,0,0,1,.169.067.234.234,0,0,1,.067.173v1.659a.235.235,0,0,1-.067.171.242.242,0,0,1-.338,0,.233.233,0,0,1-.067-.171v-.192l.087.035a.222.222,0,0,1-.054.123.762.762,0,0,1-.149.144.926.926,0,0,1-.222.12.766.766,0,0,1-.276.049.9.9,0,0,1-.491-.139.981.981,0,0,1-.347-.384,1.317,1.317,0,0,1,0-1.13.992.992,0,0,1,.344-.384.865.865,0,0,1,.479-.139.919.919,0,0,1,.554.18.733.733,0,0,1,.161.159.255.255,0,0,1,.057.135l-.142.051v-.287a.234.234,0,0,1,.067-.171A.228.228,0,0,1,145.966,53.825Zm-.792,1.745a.529.529,0,0,0,.3-.086.577.577,0,0,0,.2-.235.751.751,0,0,0,.073-.333.763.763,0,0,0-.073-.338.585.585,0,0,0-.2-.235.53.53,0,0,0-.3-.087.523.523,0,0,0-.3.087.581.581,0,0,0-.2.235.761.761,0,0,0-.073.338.751.751,0,0,0,.073.333.582.582,0,0,0,.2.235A.523.523,0,0,0,145.174,55.57Z" transform="translate(-99.424 -53.06)" fill="#fff"/>
      <path id="Path_31" data-name="Path 31" d="M149.948,53.825a.689.689,0,0,1,.441.122.615.615,0,0,1,.208.324,1.647,1.647,0,0,1,.057.449v1a.235.235,0,0,1-.067.171.241.241,0,0,1-.337,0,.233.233,0,0,1-.067-.171v-1a.756.756,0,0,0-.034-.233.323.323,0,0,0-.119-.167.416.416,0,0,0-.247-.063.52.52,0,0,0-.265.063.426.426,0,0,0-.165.167.48.48,0,0,0-.057.233v1a.235.235,0,0,1-.067.171.241.241,0,0,1-.337,0,.235.235,0,0,1-.067-.171V54.1a.235.235,0,0,1,.067-.171.241.241,0,0,1,.337,0,.235.235,0,0,1,.067.171v.168l-.059-.012a.783.783,0,0,1,.1-.143.948.948,0,0,1,.157-.143.792.792,0,0,1,.2-.108A.708.708,0,0,1,149.948,53.825Z" transform="translate(-101.72 -53.06)" fill="#fff"/>
      <path id="Path_32" data-name="Path 32" d="M152.791,55.638a.216.216,0,0,1-.035-.141.187.187,0,0,1,.1-.149.212.212,0,0,1,.133-.033.223.223,0,0,1,.137.073.918.918,0,0,0,.239.177.7.7,0,0,0,.314.063,1.109,1.109,0,0,0,.129-.017.248.248,0,0,0,.124-.063.194.194,0,0,0,.053-.151.173.173,0,0,0-.059-.137.5.5,0,0,0-.155-.086c-.064-.023-.135-.046-.213-.067s-.164-.049-.249-.078a1.076,1.076,0,0,1-.234-.111.539.539,0,0,1-.173-.182.561.561,0,0,1-.067-.287.515.515,0,0,1,.11-.333.718.718,0,0,1,.285-.212.922.922,0,0,1,.367-.074,1.172,1.172,0,0,1,.255.03,1,1,0,0,1,.255.094.625.625,0,0,1,.2.171.278.278,0,0,1,.051.141.168.168,0,0,1-.074.149.192.192,0,0,1-.138.041.2.2,0,0,1-.129-.053.47.47,0,0,0-.179-.137.61.61,0,0,0-.257-.051.659.659,0,0,0-.128.014.253.253,0,0,0-.119.059.213.213,0,0,0,.008.286.437.437,0,0,0,.159.086c.067.022.138.044.214.065s.158.046.239.074a.967.967,0,0,1,.223.114.536.536,0,0,1,.164.183.577.577,0,0,1,.063.285.515.515,0,0,1-.118.341.747.747,0,0,1-.294.214.951.951,0,0,1-.361.072,1.4,1.4,0,0,1-.463-.08A.8.8,0,0,1,152.791,55.638Z" transform="translate(-103.649 -53.061)" fill="#fff"/>
      <path id="Path_33" data-name="Path 33" d="M156.84,55.761a.235.235,0,0,1-.067.171.241.241,0,0,1-.337,0,.236.236,0,0,1-.067-.171v-1.62a.236.236,0,0,1,.067-.171.241.241,0,0,1,.337,0,.235.235,0,0,1,.067.171Z" transform="translate(-105.422 -53.098)" fill="#fff"/>
    </g>
  </g>
</svg>
