<?xml version="1.0" encoding="UTF-8" standalone="no"?>
<!-- Created with Inkscape (http://www.inkscape.org/) -->
<svg
   xmlns:svg="http://www.w3.org/2000/svg"
   xmlns="http://www.w3.org/2000/svg"
   version="1.0"
   width="956.69287"
   height="652.32281"
   id="svg2">
  <defs
     id="defs4" />
  <path
     d="M 459.81285,338.6234 C 463.91956,336.67587 470.62964,336.9331 470.62964,334.76508 C 470.35463,332.57869 467.01792,331.1456 464.63457,327.80171 C 455.52282,314.77527 444.21105,304.00869 430.55258,298.9561 C 423.4025,296.03481 420.02913,298.20282 422.17415,300.16872 C 427.47254,305.22131 430.11258,314.57315 437.04264,322.5103 C 439.20599,324.89879 442.32268,327.30565 445.67772,328.22429 C 436.78597,328.22429 429.63589,331.89889 424.83251,333.09313 C 422.17415,333.80968 414.49242,335.94095 408.27736,333.09313 C 407.06734,332.57869 403.2723,332.33984 407.80069,337.41078 C 408.97403,338.84389 411.39405,340.27697 414.27241,341.69169 C 429.63589,349.18788 443.27603,346.06447 459.81285,338.6234 M 624.3378,267.92413 C 625.74947,264.8191 626.73949,262.44898 626.95949,260.97913 C 627.2345,254.49346 624.57614,256.90032 623.8428,258.09458 C 620.96445,263.60646 614.29104,265.99497 611.65101,267.20759 C 607.32431,268.93463 599.89923,270.34936 593.3725,275.38356 C 595.05918,272.73785 596.28752,269.39396 596.50753,266.27055 C 597.24087,256.38589 594.12417,248.00778 595.05918,241.52213 C 595.79252,238.6192 591.96082,238.85806 588.36744,245.10487 C 580.94238,256.38589 578.77902,270.80869 579.03569,285.54382 C 579.2557,289.34703 576.39566,292.21322 577.349,293.62795 C 578.28402,295.33662 584.75575,291.99275 588.82579,290.76176 C 605.16094,287.39949 617.15106,281.8876 624.3378,267.92413 M 589.57746,310.9353 C 591.70415,308.54683 593.3725,306.61765 593.88585,305.22131 C 596.28752,298.68052 592.91417,300.37084 591.96082,301.32622 C 587.4141,305.9011 579.71403,306.13997 577.074,306.61765 C 572.05063,307.11372 564.40554,306.36043 556.22881,309.3001 C 558.85049,307.11372 561.01384,304.00869 562.22386,301.12412 C 566.07389,291.51505 565.34055,282.12644 568.47558,275.87963 C 569.88728,273.47277 565.83555,272.49901 560.29883,277.31272 C 549.51874,286.46248 543.047,300.16872 538.97696,315.05085 C 537.76696,318.67033 534.17358,320.59949 534.65027,322.5103 C 535.36527,324.62318 542.58867,322.96961 547.09871,323.17171 C 564.40554,324.62318 577.82569,322.96961 589.57746,310.9353 M 542.332,341.69169 C 545.21035,340.27697 547.57538,338.84389 548.80373,337.41078 C 553.35044,332.33984 549.51874,332.57869 548.2904,333.09313 C 542.05699,335.94095 534.65027,333.80968 531.9919,333.09313 C 526.98684,331.89889 519.81844,328.22429 510.90835,328.22429 C 514.28172,327.30565 517.36175,324.89879 519.54345,322.5103 C 526.73017,314.57315 529.13186,305.22131 534.41192,300.16872 C 536.55694,298.20282 533.20192,296.03481 525.99683,298.9561 C 512.35671,304.00869 501.0816,314.77527 491.95151,327.80171 C 489.56815,331.1456 486.19478,332.57869 486.19478,334.76508 C 485.97479,336.9331 492.68484,336.67587 497.01156,338.6234 C 513.32837,346.06447 526.98684,349.18788 542.332,341.69169 M 478.29304,363.3167 C 479.96139,358.77858 487.4048,351.33751 487.4048,346.28494 C 487.4048,341.21401 483.31643,337.1352 478.29304,337.1352 C 473.25131,337.1352 469.16296,341.21401 469.16296,346.28494 C 469.16296,351.33751 476.86303,358.77858 478.29304,363.3167 M 487.4048,321.31605 C 487.4048,316.26347 479.96139,308.54683 478.29304,304.00869 C 476.86303,308.54683 469.16296,316.26347 469.16296,321.31605 C 469.16296,326.35025 473.25131,330.4658 478.29304,330.4658 C 483.31643,330.4658 487.4048,326.35025 487.4048,321.31605 M 567.98059,61.025816 C 569.17226,64.388082 570.63893,69.936722 574.23231,74.989288 C 572.52729,73.501085 569.66727,72.582445 567.52224,72.582445 C 560.07884,72.104723 553.82712,74.474861 548.54706,73.739926 C 546.8787,73.280596 547.09871,76.146788 551.92043,79.031352 C 560.07884,84.322778 571.09728,86.049842 582.15238,85.535396 C 585.01241,85.535396 587.17577,87.721789 588.36744,86.729641 C 589.57746,86.049842 586.68078,81.456587 585.94742,78.112713 C 583.0874,66.060029 578.77902,56.89189 568.21891,51.655601 C 565.83555,50.700197 563.89221,49.965281 562.92053,49.965281 C 558.13548,49.487579 559.8405,51.655601 560.79385,52.390516 C 564.84556,54.301304 567.02724,59.335497 567.98059,61.025816 M 509.97336,48.274962 C 511.8617,48.991505 520.00178,51.177899 525.99683,47.09909 C 522.89847,40.337832 514.97839,38.188184 512.83338,37.453268 C 510.67003,36.975566 502.74995,34.550332 496.49821,38.665886 C 499.63326,45.390398 507.55333,47.595164 509.97336,48.274962 M 623.58613,188.18532 C 623.58613,185.50286 622.39446,182.15898 620.52443,180.24819 C 615.92272,172.77037 608.77265,168.69159 605.63762,163.38176 C 604.90429,160.99329 602.26425,163.639 603.23593,169.88581 C 604.4276,181.88338 610.91767,193.47675 619.51608,203.74725 C 621.67945,206.17249 621.20277,209.79197 622.88945,210.26967 C 624.3378,211.00458 626.73949,204.72101 629.37952,201.5976 C 638.23461,189.82053 643.77132,179.23767 640.89297,165.31095 C 640.17795,162.66522 639.68295,160.29512 638.94961,159.10088 C 635.59458,154.25039 634.91624,157.6494 634.91624,158.58643 C 636.05291,164.37391 632.71622,169.88581 631.76287,172.0722 C 629.81952,175.89378 625.51115,181.22195 623.58613,188.18532 M 527.92186,37.692109 C 531.9919,38.923099 534.65027,42.744695 535.62192,43.957312 C 537.52862,46.841876 539.67363,51.41674 543.76201,54.779006 C 542.05699,54.04407 539.47196,53.584761 537.52862,54.04407 C 530.81854,55.036219 525.99683,58.104507 521.43179,58.637326 C 519.81844,58.398485 520.73512,61.025816 525.28183,62.477294 C 533.20192,65.619072 543.047,65.122998 552.37876,62.716135 C 554.78045,61.999592 557.20047,63.414306 557.89714,62.477294 C 559.1255,61.742359 555.73379,58.104507 554.57879,55.513921 C 549.73875,45.666004 544.22034,38.427045 534.17358,36.056927 C 532.24858,35.54248 530.32355,35.303639 529.38853,35.54248 C 525.28183,36.056927 526.98684,37.453268 527.92186,37.692109 M 594.34418,132.88261 C 598.45089,143.66756 607.5443,152.37635 617.62772,159.79905 C 620.24944,161.72821 620.74444,165.09046 622.39446,165.09046 C 623.8428,165.31095 624.81448,159.10088 626.24449,155.70187 C 631.5062,142.7489 634.14623,131.43113 627.93117,119.37845 C 626.48281,117.00833 625.51115,115.09754 624.57614,114.14216 C 620.24944,110.50428 620.52443,113.68283 620.96445,114.84033 C 623.36614,119.65405 621.67945,125.44153 621.20277,127.83002 C 620.24944,131.66999 617.62772,137.67796 617.86606,144.64133 C 617.15106,142.2712 615.00604,139.36828 613.06268,138.19241 C 606.81096,132.14767 599.14756,130.21851 595.33419,126.1581 C 593.88585,124.22894 592.19916,127.35234 594.34418,132.88261 M 638.7296,209.55311 C 637.50127,215.52433 632.25787,219.89712 630.31453,221.5323 C 626.73949,224.43524 620.52443,228.05472 615.92272,234.54039 C 616.91272,231.63745 616.91272,228.05472 615.92272,225.40901 C 614.01603,216.05715 608.49764,209.25915 607.32431,203.06745 C 607.32431,200.40336 603.95094,201.5976 602.26425,208.37723 C 598.90922,220.8525 601.29257,234.77923 605.85761,248.22827 C 607.08597,251.62728 605.39928,254.95279 606.81096,256.18378 C 608.03931,257.13918 612.82436,252.34383 616.38106,249.91859 C 630.07619,241.98146 639.68295,233.56663 642.06631,218.44564 C 642.30465,215.32223 642.56132,212.897 642.30465,211.44554 C 640.6363,205.45594 638.94961,208.37723 638.7296,209.55311 M 593.88585,100.93197 C 586.18576,97.05526 578.52234,97.05526 573.5173,94.427929 C 571.81229,92.976451 570.85894,96.375462 574.65398,101.15244 C 581.41905,110.26544 592.43749,116.3469 604.4276,120.38897 C 607.32431,121.61996 608.77265,124.70662 610.42267,124.22894 C 611.87101,123.95333 610.91767,117.96373 611.39435,114.14216 C 613.06268,100.19704 612.36603,88.677173 602.99759,78.810883 C 601.07257,76.62449 599.40421,75.209776 598.45089,74.750447 C 593.3725,72.582445 594.60083,75.430245 595.05918,76.146788 C 598.67088,80.262342 598.90922,86.233566 599.14756,88.677173 C 599.14756,92.774355 598.19421,99.241654 600.35756,105.98454 C 598.90922,103.81654 596.28752,101.66689 593.88585,100.93197 M 399.86227,164.61276 C 412.82406,204.24333 456.45782,203.74725 492.4465,204.72101 C 509.24002,204.97824 532.4869,209.07542 536.81361,224.17802 C 539.67363,234.30155 536.81361,245.82141 529.13186,251.14958 C 509.71668,264.8191 484.7831,265.99497 459.81285,258.55389 C 438.23431,252.34383 416.65576,232.1519 409.94571,204.72101 C 407.06734,204.48217 404.90399,204.48217 402.97896,204.48217 L 402.97896,264.08418 L 409.94571,264.08418 C 409.94571,262.44898 410.42237,260.97913 411.39405,259.03159 C 413.30073,254.73232 417.88412,252.34383 423.1275,254.21787 C 440.39768,260.46468 462.25121,270.60658 484.04976,270.60658 C 504.93164,270.60658 537.52862,267.68527 555.03712,237.64542 C 562.4622,225.1518 563.89221,206.17249 556.4488,187.67088 C 548.80373,168.4711 529.86522,158.58643 512.61337,156.19794 C 478.54971,151.40259 450.49943,158.58643 424.83251,142.95101 C 417.15078,138.67009 415.00574,126.37856 419.03912,120.38897 C 433.44926,98.506718 462.47122,98.029036 487.4048,101.85061 C 512.61337,107.39927 534.17358,130.21851 542.79033,153.77271 L 547.83205,153.77271 L 547.83205,97.349238 L 540.92032,97.349238 C 540.92032,99.241654 540.40699,100.45427 539.47196,102.34669 C 537.52862,106.66434 532.96358,109.12632 527.70185,107.14204 C 518.11342,104.29422 511.16503,98.763952 500.86159,96.614303 C 472.07798,87.721789 434.14593,88.41996 411.63239,110.50428 C 397.95559,124.70662 394.82056,145.61509 399.86227,164.61276 M 340.16835,249.91859 C 343.78006,252.34383 348.56509,257.13918 349.99512,256.18378 C 351.4618,254.95279 349.53677,251.62728 350.72846,248.22827 C 355.53184,234.77923 357.67686,220.8525 354.32182,208.37723 C 352.87348,201.5976 349.29845,200.40336 349.29845,203.06745 C 348.08843,209.25915 342.79003,216.05715 340.64502,225.40901 C 339.91168,228.05472 339.91168,231.63745 340.64502,234.54039 C 336.09831,228.05472 329.84659,224.43524 326.50988,221.5323 C 324.3282,219.89712 319.04814,215.52433 318.11312,209.55311 C 317.61813,208.37723 315.93144,205.45594 314.28142,211.44554 C 314.28142,212.897 314.28142,215.32223 314.75811,218.44564 C 317.1598,233.56663 326.50988,241.98146 340.16835,249.91859 M 334.17328,165.09046 C 335.85997,165.09046 336.55666,161.72821 338.97668,159.79905 C 349.29845,152.37635 358.13519,143.66756 362.20525,132.88261 C 364.62525,127.35234 362.70024,124.22894 361.50856,126.1581 C 357.42018,130.21851 349.99512,132.14767 343.78006,138.19241 C 341.6167,139.36828 339.69169,142.2712 338.97668,144.64133 C 338.97668,137.67796 336.31832,131.66999 335.36497,127.83002 C 334.86998,125.44153 333.43995,119.65405 335.85997,114.84033 C 336.09831,113.68283 336.31832,110.50428 331.9916,114.14216 C 331.29493,115.09754 330.08491,117.00833 328.67325,119.37845 C 322.65985,131.43113 325.07987,142.7489 330.57992,155.70187 C 331.9916,159.10088 332.74327,165.31095 334.17328,165.09046 M 346.1634,124.22894 C 347.83175,124.70662 349.29845,121.61996 352.41514,120.38897 C 364.16692,116.3469 375.14869,110.26544 381.89543,101.15244 C 385.69047,96.375462 385.01213,92.976451 383.0871,94.427929 C 378.02707,97.05526 370.36365,97.05526 362.70024,100.93197 C 360.29855,101.66689 357.67686,103.81654 356.22851,105.98454 C 358.39186,99.241654 357.42018,92.774355 357.67686,88.677173 C 357.67686,86.233566 357.93353,80.262342 361.50856,76.146788 C 362.20525,75.430245 363.17691,72.582445 358.39186,74.750447 C 357.21852,75.209776 355.53184,76.62449 353.60681,78.810883 C 344.25673,88.677173 343.54172,100.19704 345.17341,114.14216 C 345.66841,117.96373 344.73339,123.95333 346.1634,124.22894 M 333.69662,210.26967 C 335.36497,209.79197 335.12663,206.17249 337.29,203.74725 C 345.66841,193.47675 352.41514,181.88338 353.36847,169.88581 C 354.32182,163.639 351.64512,160.99329 350.98513,163.38176 C 347.83175,168.69159 340.64502,172.77037 336.09831,180.24819 C 334.42996,182.15898 332.96328,185.50286 332.96328,188.18532 C 331.29493,181.22195 326.71156,175.89378 324.8232,172.0722 C 323.86987,169.88581 320.4965,164.37391 321.72483,158.58643 C 321.72483,157.6494 321.21151,154.25039 317.83814,159.10088 C 317.1598,160.29512 316.42646,162.66522 315.71143,165.31095 C 312.83308,179.23767 318.33313,189.82053 327.4449,201.5976 C 329.84659,204.72101 332.24828,211.00458 333.69662,210.26967 M 446.63107,48.274962 C 449.05109,47.595164 456.95283,45.390398 460.06953,38.665886 C 453.83614,34.550332 445.91606,36.975566 443.75269,37.453268 C 441.58935,38.188184 433.70594,40.337832 430.55258,47.09909 C 436.54762,51.177899 444.70604,48.991505 446.63107,48.274962 M 367.00863,310.9353 C 378.79707,322.96961 392.18053,324.62318 409.48738,323.17171 C 414.03406,322.96961 421.45914,324.62318 421.93583,322.5103 C 422.43082,320.59949 418.81913,318.67033 417.62744,315.05085 C 413.53907,300.16872 407.06734,286.46248 396.25057,277.31272 C 390.76885,272.49901 386.68048,273.47277 388.12882,275.87963 C 391.26385,282.12644 390.54885,291.51505 394.34388,301.12412 C 395.5539,304.00869 397.69892,307.11372 400.37561,309.3001 C 392.18053,306.36043 384.51713,307.11372 379.49374,306.61765 C 376.85371,306.13997 369.44696,305.9011 364.62525,301.32622 C 363.69026,300.37084 360.29855,298.68052 362.70024,305.22131 C 363.17691,306.61765 364.84526,308.54683 367.00863,310.9353 M 404.40897,62.716135 C 413.77741,65.122998 423.60416,65.802796 431.74424,62.477294 C 436.08929,61.025816 437.04264,58.637326 435.35596,58.876187 C 430.82758,58.398485 426.0242,55.27506 419.31413,54.301304 C 417.37079,53.823602 414.74909,54.04407 413.0624,54.779006 C 417.15078,51.41674 419.31413,46.841876 421.18414,44.196153 C 422.17415,43.001908 424.83251,38.923099 428.90256,37.967715 C 429.83757,37.692109 431.54259,36.056927 427.47254,35.54248 C 426.50087,35.303639 424.83251,35.54248 422.66916,36.056927 C 412.58572,38.427045 407.06734,45.666004 402.28229,55.73439 C 401.09062,58.104507 397.69892,61.999592 398.9456,62.716135 C 399.64228,63.414306 402.04397,61.999592 404.40897,62.716135 M 332.74327,258.09458 C 331.9916,256.90032 329.3699,254.49346 329.60825,260.97913 C 329.84659,262.44898 330.81827,264.8191 332.24828,267.92413 C 339.45335,281.8876 351.4618,287.39949 367.74197,290.76176 C 371.81199,291.99275 378.28372,295.33662 379.2554,293.62795 C 380.44709,292.21322 377.34873,289.34703 377.58705,285.54382 C 377.80706,270.80869 375.66204,256.38589 368.21863,245.10487 C 364.84526,238.85806 360.79355,238.6192 361.50856,241.52213 C 362.4619,248.00778 359.36354,256.38589 360.07855,266.27055 C 360.29855,269.39396 361.50856,272.73785 363.17691,275.38356 C 356.70518,270.34936 349.29845,268.93463 344.9534,267.20759 C 342.3317,265.99497 335.85997,263.60646 332.74327,258.09458 M 374.92868,85.774237 C 386.22215,86.049842 397.22225,84.580012 405.399,79.031352 C 409.94571,76.367276 410.42237,73.501085 408.49735,73.997159 C 403.45564,74.750447 397.22225,72.325212 389.79717,72.784542 C 387.41382,72.784542 384.79212,73.739926 382.86711,75.209776 C 386.68048,70.175583 388.12882,64.645296 389.32051,61.28303 C 390.29217,59.59273 392.18053,54.5034 396.52556,52.647729 C 397.47891,51.876069 399.14726,49.763185 394.34388,50.222495 C 393.42722,50.222495 391.26385,50.902293 389.1005,51.876069 C 378.5404,57.167496 374.21368,66.280498 371.09698,78.333181 C 370.36365,81.456587 367.74197,86.233566 368.93364,86.968482 C 370.14366,87.721789 372.307,85.774237 374.92868,85.774237"
     id="path8040"
     style="fill:#003a73;fill-opacity:1;fill-rule:nonzero;stroke:none" />
  <g
     transform="translate(14.401421,0)"
     id="g10791">
    <path
       d="M 137.70011,618.76351 L 137.70011,616.24907 L 133.5892,616.24907 L 133.5892,575.06023 L 137.70011,575.06023 L 137.70011,572.54578 L 118.64893,572.54578 L 118.64893,575.19315 L 122.82635,575.19315 L 122.82635,593.4461 L 105.11886,593.4461 L 105.11886,575.06023 L 109.30959,575.06023 L 109.30959,572.54578 L 90.245109,572.54578 L 90.245109,575.06023 L 94.369314,575.06023 L 94.369314,616.24907 L 90.245109,616.24907 L 90.245109,618.76351 L 109.17657,618.76351 L 109.17657,616.24907 L 105.11886,616.24907 L 105.11886,596.027 L 122.82635,596.027 L 122.82635,616.24907 L 118.64893,616.24907 L 118.64893,618.76351 L 137.70011,618.76351 z"
       id="path8785"
       style="fill:#003a73;fill-opacity:1;fill-rule:nonzero;stroke:none" />
    <path
       d="M 192.75164,596.027 C 193.2971,581.76548 184.87575,571.3749 170.06849,571.3749 C 159.55841,571.3749 147.45187,577.02934 146.77337,595.77442 C 146.40086,604.87414 152.68031,619.93429 170.06849,619.93429 C 187.64295,619.93429 192.37913,604.44847 192.75164,596.027 M 181.44332,596.14698 C 181.44332,609.05159 178.30361,617.59262 170.06849,617.59262 C 161.34113,617.59262 158.33445,606.53715 158.33445,596.14698 C 158.33445,585.39729 160.60943,572.66545 170.06849,572.66545 C 179.22158,572.66545 181.44332,585.94293 181.44332,596.14698"
       id="path8789"
       style="fill:#003a73;fill-opacity:1;fill-rule:nonzero;stroke:none" />
    <path
       d="M 242.53483,590.12039 L 242.53483,572.54578 L 201.66528,572.54578 L 201.66528,590.12039 L 202.88921,590.12039 C 202.88921,576.35068 211.92257,575.06023 215.06228,575.06023 L 216.11329,575.06023 L 216.11329,616.24907 L 211.92257,616.24907 L 211.92257,618.76351 L 230.98705,618.76351 L 230.98705,616.24907 L 226.86284,616.24907 L 226.86284,575.06023 L 228.08682,575.06023 C 230.66777,575.06023 241.29757,576.35068 241.29757,590.12039 L 242.53483,590.12039 z"
       id="path8793"
       style="fill:#003a73;fill-opacity:1;fill-rule:nonzero;stroke:none" />
    <path
       d="M 293.46218,618.76351 L 293.46218,602.47967 L 291.98542,602.47967 C 291.98542,611.51293 284.66829,616.24907 279.55958,616.24907 L 266.2823,616.24907 L 266.2823,596.21344 L 271.76351,596.21344 C 276.48639,596.45277 279.55958,598.30221 279.55958,606.16459 L 280.98309,606.16459 L 280.98309,584.65248 L 279.55958,584.65248 C 279.55958,589.20219 276.36667,594.0582 271.76351,594.0582 L 266.2823,594.0582 L 266.2823,575.06023 L 276.48639,575.06023 C 287.30244,575.06023 289.39118,577.77415 291.24042,589.32206 L 292.41116,589.32206 L 292.41116,572.54578 L 251.40854,572.54578 L 251.40854,575.06023 L 255.53275,575.06023 L 255.53275,616.24907 L 251.40854,616.24907 L 251.40854,618.76351 L 293.46218,618.76351 z"
       id="path8797"
       style="fill:#003a73;fill-opacity:1;fill-rule:nonzero;stroke:none" />
    <path
       d="M 339.40053,618.76351 L 339.40053,600.39089 L 338.04353,600.39089 C 336.75307,607.45504 334.42486,616.24907 322.43808,616.24907 L 317.20964,616.24907 L 317.20964,575.06023 L 321.38706,575.06023 L 321.38706,572.54578 L 302.33588,572.54578 L 302.33588,575.06023 L 306.46008,575.06023 L 306.46008,616.24907 L 302.33588,616.24907 L 302.33588,618.76351 L 339.40053,618.76351 z"
       id="path8801"
       style="fill:#003a73;fill-opacity:1;fill-rule:nonzero;stroke:none" />
    <path
       d="M 387.89326,603.95624 C 387.89326,594.73655 381.37433,588.52383 371.23675,588.15127 C 361.64463,587.79207 354.3275,587.79207 354.3275,580.96715 C 354.3275,574.63446 360.72668,573.46368 365.70234,573.46368 C 378.72684,573.46368 382.54506,585.51716 383.09055,587.6724 L 384.87328,587.6724 L 384.87328,572.54578 L 383.09055,572.54578 C 383.03732,573.9559 383.09055,575.92501 381.37433,575.92501 C 379.09937,575.92501 374.8022,571.3749 365.09035,571.3749 C 355.61799,571.3749 348.80639,577.77415 348.80639,586.55472 C 348.80639,594.3643 355.2588,601.05589 364.65132,601.18922 C 373.63146,601.30878 381.74683,601.80101 381.74683,609.05159 C 381.74683,615.62382 374.66917,617.34004 368.21677,617.47296 C 357.04151,617.59262 352.05256,610.10281 349.96383,602.10711 L 348.24763,602.10711 L 348.24763,618.76351 L 349.96383,618.76351 C 349.96383,618.76351 350.33633,615.38428 352.35853,615.38428 C 356.11022,615.38428 357.70669,619.93429 368.46955,619.93429 C 381.18808,619.93429 387.89326,612.49728 387.89326,603.95624"
       id="path8805"
       style="fill:#003a73;fill-opacity:1;fill-rule:nonzero;stroke:none" />
    <path
       d="M 458.21765,606.28456 L 456.55468,606.28456 C 456.55468,608.4929 456.43493,612.31115 453.48147,612.31115 C 450.47478,612.31115 447.33507,607.69468 447.33507,607.69468 C 448.14661,606.28456 450.47478,601.80101 450.47478,593.4461 C 450.47478,592.08919 450.23533,590.79864 449.98255,589.50818 L 447.46809,590.00041 C 447.7741,596.57264 448.14661,601.80101 445.49912,606.16459 L 430.6786,591.1713 C 432.90035,589.74783 438.79396,586.86082 438.79396,580.78072 C 438.79396,576.60357 436.33274,571.3749 428.53667,571.3749 C 421.33926,571.3749 414.88686,576.4837 414.88686,583.41514 C 414.88686,587.91174 416.73611,590.12039 420.18183,594.48397 C 417.65406,595.65475 409.11296,599.8319 409.11296,608.1337 C 409.11296,612.9895 412.6784,619.93429 424.47897,619.93429 C 436.27954,619.93429 439.96471,616.24907 440.64321,615.74349 C 441.6809,616.67473 443.53014,618.52387 447.89383,618.52387 C 456.80743,618.52387 457.84514,612.43082 458.09792,610.34204 C 458.3374,608.67903 458.21765,606.28456 458.21765,606.28456 M 434.19081,580.78072 C 434.19081,583.97382 433.1398,586.55472 428.96237,589.44173 C 428.96237,589.44173 422.62972,583.85415 422.62972,578.99804 C 422.62972,576.11114 424.9047,573.03801 428.53667,573.03801 C 432.10212,573.03801 434.19081,576.96278 434.19081,580.78072 M 439.04674,614.14693 C 437.19749,615.87651 431.84934,617.04729 430.13314,617.04729 C 423.86699,617.04729 419.13081,611.39326 419.13081,604.68801 C 419.13081,602.22667 420.18183,598.11578 422.39024,596.82533 L 439.04674,614.14693 z"
       id="path8809"
       style="fill:#003a73;fill-opacity:1;fill-rule:nonzero;stroke:none" />
    <path
       d="M 527.85027,607.76114 L 526.30702,607.76114 C 526.30702,610.76781 525.38906,615.50395 523.06086,615.50395 C 520.16062,615.50395 520.7859,612.61725 520.29364,606.16459 C 519.73489,597.49053 513.96099,596.14698 511.07406,595.65475 C 513.04304,595.09576 521.58414,594.17786 521.58414,584.46605 C 521.58414,577.89402 518.81693,572.54578 507.13609,572.54578 L 479.5438,572.54578 L 479.5438,575.06023 L 483.65471,575.06023 L 483.65471,616.24907 L 479.5438,616.24907 L 479.5438,618.76351 L 498.59498,618.76351 L 498.59498,616.24907 L 494.41756,616.24907 L 494.41756,596.69231 L 501.60167,596.69231 C 508.73256,596.69231 508.73256,599.8319 508.73256,608.4929 C 508.73256,617.59262 513.70821,619.93429 518.44443,619.93429 C 525.76157,619.93429 527.85027,615.19815 527.85027,607.76114 M 510.82128,585.14461 C 510.82128,590.67907 508.30686,594.17786 501.60167,594.17786 L 494.41756,594.17786 L 494.41756,575.06023 L 502.28018,575.06023 C 508.54631,575.06023 510.82128,579.61024 510.82128,585.14461"
       id="path8813"
       style="fill:#003a73;fill-opacity:1;fill-rule:nonzero;stroke:none" />
    <path
       d="M 578.79091,618.76351 L 578.79091,602.47967 L 577.32748,602.47967 C 577.32748,611.51293 570.01034,616.24907 564.90164,616.24907 L 551.63765,616.24907 L 551.63765,596.21344 L 557.09227,596.21344 C 561.82841,596.45277 564.90164,598.30221 564.90164,606.16459 L 566.31186,606.16459 L 566.31186,584.65248 L 564.90164,584.65248 C 564.90164,589.20219 561.70874,594.0582 557.09227,594.0582 L 551.63765,594.0582 L 551.63765,575.06023 L 561.82841,575.06023 C 572.64455,575.06023 574.73322,577.77415 576.58246,589.32206 L 577.75315,589.32206 L 577.75315,572.54578 L 536.75057,572.54578 L 536.75057,575.06023 L 540.87479,575.06023 L 540.87479,616.24907 L 536.75057,616.24907 L 536.75057,618.76351 L 578.79091,618.76351 z"
       id="path8817"
       style="fill:#003a73;fill-opacity:1;fill-rule:nonzero;stroke:none" />
    <path
       d="M 627.32349,603.95624 C 627.32349,594.73655 620.80468,588.52383 610.66709,588.15127 C 601.07494,587.79207 593.7578,587.79207 593.7578,580.96715 C 593.7578,574.63446 600.15695,573.46368 605.13263,573.46368 C 618.17047,573.46368 621.97536,585.51716 622.52079,587.6724 L 624.30357,587.6724 L 624.30357,572.54578 L 622.52079,572.54578 C 622.46759,573.9559 622.52079,575.92501 620.80468,575.92501 C 618.52967,575.92501 614.23255,571.3749 604.52063,571.3749 C 595.04825,571.3749 588.23669,577.77415 588.23669,586.55472 C 588.23669,594.3643 594.68904,601.05589 604.09497,601.18922 C 613.06177,601.30878 621.17713,601.80101 621.17713,609.05159 C 621.17713,615.62382 614.11278,617.34004 607.66042,617.47296 C 596.47182,617.59262 591.48279,610.10281 589.39412,602.10711 L 587.6779,602.10711 L 587.6779,618.76351 L 589.39412,618.76351 C 589.39412,618.76351 589.76668,615.38428 591.80214,615.38428 C 595.54048,615.38428 597.15028,619.93429 607.89986,619.93429 C 620.61835,619.93429 627.32349,612.49728 627.32349,603.95624"
       id="path8821"
       style="fill:#003a73;fill-opacity:1;fill-rule:nonzero;stroke:none" />
    <path
       d="M 682.12231,596.027 C 682.681,581.76548 674.25973,571.3749 659.43912,571.3749 C 648.92907,571.3749 636.82248,577.02934 636.14402,595.77442 C 635.78482,604.87414 642.05095,619.93429 659.43912,619.93429 C 677.02686,619.93429 681.74975,604.44847 682.12231,596.027 M 670.81394,596.14698 C 670.81394,609.05159 667.68761,617.59262 659.43912,617.59262 C 650.71175,617.59262 647.70508,606.53715 647.70508,596.14698 C 647.70508,585.39729 649.98009,572.66545 659.43912,572.66545 C 668.6055,572.66545 670.81394,585.94293 670.81394,596.14698"
       id="path8825"
       style="fill:#003a73;fill-opacity:1;fill-rule:nonzero;stroke:none" />
    <path
       d="M 739.3423,607.76114 L 737.81242,607.76114 C 737.81242,610.76781 736.89442,615.50395 734.55296,615.50395 C 731.66606,615.50395 732.27795,612.61725 731.78572,606.16459 C 731.22694,597.49053 725.45303,596.14698 722.56613,595.65475 C 724.53514,595.09576 733.07618,594.17786 733.07618,584.46605 C 733.07618,577.89402 730.30905,572.54578 718.64147,572.54578 L 691.03591,572.54578 L 691.03591,575.06023 L 695.16015,575.06023 L 695.16015,616.24907 L 691.03591,616.24907 L 691.03591,618.76351 L 710.08708,618.76351 L 710.08708,616.24907 L 705.90963,616.24907 L 705.90963,596.69231 L 713.10711,596.69231 C 720.23802,596.69231 720.23802,599.8319 720.23802,608.4929 C 720.23802,617.59262 725.2136,619.93429 729.94984,619.93429 C 737.26698,619.93429 739.3423,615.19815 739.3423,607.76114 M 722.3267,585.14461 C 722.3267,590.67907 719.7989,594.17786 713.10711,594.17786 L 705.90963,594.17786 L 705.90963,575.06023 L 713.77231,575.06023 C 720.05169,575.06023 722.3267,579.61024 722.3267,585.14461"
       id="path8829"
       style="fill:#003a73;fill-opacity:1;fill-rule:nonzero;stroke:none" />
    <path
       d="M 789.12559,590.12039 L 789.12559,572.54578 L 748.256,572.54578 L 748.256,590.12039 L 749.47989,590.12039 C 749.47989,576.35068 758.51325,575.06023 761.65294,575.06023 L 762.70396,575.06023 L 762.70396,616.24907 L 758.51325,616.24907 L 758.51325,618.76351 L 777.56443,618.76351 L 777.56443,616.24907 L 773.45354,616.24907 L 773.45354,575.06023 L 774.69078,575.06023 C 777.27179,575.06023 787.9016,576.35068 787.9016,590.12039 L 789.12559,590.12039 z"
       id="path8833"
       style="fill:#003a73;fill-opacity:1;fill-rule:nonzero;stroke:none" />
    <path
       d="M 837.64492,603.95624 C 837.64492,594.73655 831.13926,588.52383 820.98842,588.15127 C 811.40962,587.79207 804.09238,587.79207 804.09238,580.96715 C 804.09238,574.63446 810.47828,573.46368 815.46731,573.46368 C 828.49179,573.46368 832.29669,585.51716 832.85547,587.6724 L 834.63815,587.6724 L 834.63815,572.54578 L 832.85547,572.54578 C 832.80227,573.9559 832.85547,575.92501 831.13926,575.92501 C 828.86425,575.92501 824.55388,571.3749 814.85531,571.3749 C 805.38293,571.3749 798.55801,577.77415 798.55801,586.55472 C 798.55801,594.3643 805.01037,601.05589 814.41629,601.18922 C 823.39645,601.30878 831.49846,601.80101 831.49846,609.05159 C 831.49846,615.62382 824.43411,617.34004 817.98175,617.47296 C 806.79315,617.59262 801.81747,610.10281 799.7288,602.10711 L 798.01258,602.10711 L 798.01258,618.76351 L 799.7288,618.76351 C 799.7288,618.76351 800.10125,615.38428 802.12347,615.38428 C 805.87516,615.38428 807.47161,619.93429 818.22119,619.93429 C 830.95303,619.93429 837.64492,612.49728 837.64492,603.95624"
       id="path8837"
       style="fill:#003a73;fill-opacity:1;fill-rule:nonzero;stroke:none" />
  </g>
  <g
     id="g10807">
    <path
       d="M 152.99959,486.54934 C 152.99959,459.20971 133.68233,440.79714 103.60222,439.70647 C 75.171782,438.6155 53.486412,438.6155 53.486412,418.38008 C 53.486412,399.6083 72.444496,396.13621 87.198492,396.13621 C 125.84633,396.13621 137.14135,431.8705 138.79105,438.24294 L 144.07268,438.24294 L 144.07268,393.40894 L 138.79105,393.40894 C 138.60476,397.59944 138.79105,403.42655 133.68233,403.42655 C 126.93724,403.42655 114.17882,389.94989 85.375878,389.94989 C 57.317941,389.94989 37.082718,408.89445 37.082718,434.95698 C 37.082718,458.11905 56.213729,477.9816 84.098718,478.34081 C 110.71981,478.71337 134.77324,480.16354 134.77324,501.67596 C 134.77324,521.1793 113.81962,526.27496 94.675312,526.64721 C 61.508697,527.00641 46.741369,504.77579 40.541739,481.08144 L 35.43303,481.08144 L 35.43303,530.47881 L 40.541739,530.47881 C 40.541739,530.47881 41.63265,520.44784 47.64603,520.44784 C 58.768089,520.44784 63.504269,533.93785 95.407026,533.93785 C 133.13687,533.93785 152.99959,511.8801 152.99959,486.54934"
       id="path8841"
       style="fill:#003a73;fill-opacity:1;fill-rule:nonzero;stroke:none" />
    <path
       d="M 285.69268,530.47881 L 285.69268,523.90658 L 274.03846,523.90658 L 274.03846,464.67762 C 274.03846,447.18324 260.00288,430.40697 235.74985,430.40697 C 216.24635,430.40697 207.69192,438.6155 200.40138,445.53358 L 200.40138,393.40894 L 157.20364,393.40894 L 157.20364,399.9675 L 168.3124,399.9675 L 168.3124,523.90658 L 156.28565,523.90658 L 156.28565,530.47881 L 211.69639,530.47881 L 211.69639,523.90658 L 200.40138,523.90658 L 200.40138,467.77745 C 200.40138,454.10102 208.05112,439.70647 223.72313,439.70647 C 233.94051,439.70647 240.49934,449.55131 240.49934,458.47826 L 240.49934,523.90658 L 228.45931,523.90658 L 228.45931,530.47881 L 285.69268,530.47881 z"
       id="path8845"
       style="fill:#003a73;fill-opacity:1;fill-rule:nonzero;stroke:none" />
    <path
       d="M 388.01299,481.08144 L 388.01299,473.96387 C 388.01299,451.73295 372.15475,428.77066 338.61558,428.77066 C 308.17628,428.77066 285.57295,447.18324 285.57295,482.17241 C 285.57295,516.80237 310.54438,533.93785 340.62449,533.93785 C 359.94175,533.93785 384.18147,525.37011 387.28127,495.47629 L 382.90427,495.47629 C 382.90427,503.13918 373.24566,525.37011 349.55139,525.37011 C 321.12098,525.37011 317.47571,504.04403 317.47571,481.08144 L 388.01299,481.08144 z M 358.11912,474.69564 L 317.47571,474.69564 C 317.47571,474.69564 316.37147,434.59777 338.25639,434.59777 C 361.93735,434.59777 358.11912,474.69564 358.11912,474.69564"
       id="path8849"
       style="fill:#003a73;fill-opacity:1;fill-rule:nonzero;stroke:none" />
    <path
       d="M 486.54167,452.27859 C 486.54167,442.07454 479.96954,430.04776 466.66562,430.04776 C 450.07568,430.04776 439.87158,442.80631 437.14427,446.45148 L 437.14427,432.2297 L 394.30574,432.2297 L 394.30574,438.6155 L 403.97765,438.6155 L 403.97765,523.90658 L 391.93763,523.90658 L 391.93763,530.47881 L 447.70758,530.47881 L 447.70758,523.90658 L 436.05336,523.90658 L 436.05336,481.08144 C 436.05336,459.20971 448.43928,436.23408 465.93392,436.23408 C 469.40623,436.23408 471.04264,437.3384 473.05151,439.70647 C 466.66562,437.69761 456.27528,444.08341 456.27528,454.83278 C 456.27528,463.40052 464.4838,469.41386 471.77434,469.41386 C 479.96954,469.41386 486.54167,460.84633 486.54167,452.27859"
       id="path8853"
       style="fill:#003a73;fill-opacity:1;fill-rule:nonzero;stroke:none" />
    <path
       d="M 608.4719,506.4121 L 608.4719,498.93533 L 603.37655,498.93533 C 603.37655,504.04403 603.37655,522.27027 595.52723,522.27027 C 590.61811,522.27027 587.87748,519.17044 587.87748,514.4343 L 587.87748,482.53161 C 587.87748,464.30506 592.42739,428.77066 541.03445,428.77066 C 510.76806,428.77066 495.46857,440.79714 495.46857,454.83278 C 495.46857,459.20971 497.46418,470.14563 510.76806,470.14563 C 516.98099,470.14563 525.17618,463.40052 525.17618,455.01922 C 525.17618,444.44261 515.33132,440.06568 515.33132,440.06568 C 520.0675,437.69761 524.63072,435.87487 531.37581,435.87487 C 543.76173,435.87487 555.07005,443.16551 555.07005,455.73763 C 555.07005,489.27662 489.64148,462.66876 489.64148,506.22566 C 489.64148,517.72057 496.20028,533.93785 521.71717,533.93785 C 546.86154,533.93785 551.61102,523.90658 556.34725,516.80237 C 562.17436,526.64721 566.73763,533.57864 580.40071,533.57864 C 600.99513,533.57864 608.4719,523.90658 608.4719,506.4121 M 553.97908,504.41659 C 553.97908,515.35219 541.93911,524.63834 536.47119,524.63834 C 527.54429,524.63834 521.71717,514.97994 521.71717,505.50725 C 521.71717,482.90417 541.03445,484.54048 553.97908,473.60467 L 553.97908,504.41659 z"
       id="path8857"
       style="fill:#003a73;fill-opacity:1;fill-rule:nonzero;stroke:none" />
    <path
       d="M 676.72087,505.50725 L 676.72087,499.66709 L 671.7985,499.66709 C 671.7985,506.78466 671.7985,521.91107 659.9447,521.91107 C 654.66302,521.91107 648.82266,518.07977 648.82266,508.96629 L 648.82266,438.6155 L 667.06226,438.6155 L 667.06226,432.2297 L 648.82266,432.2297 L 648.82266,398.14508 L 644.08642,398.14508 C 640.99993,414.00315 630.42333,432.2297 608.17925,432.2297 L 608.17925,438.6155 L 620.21929,438.6155 L 620.21929,508.96629 C 620.21929,521.91107 630.42333,533.93785 648.29047,533.93785 C 671.7985,533.93785 676.72087,514.80686 676.72087,505.50725"
       id="path8861"
       style="fill:#003a73;fill-opacity:1;fill-rule:nonzero;stroke:none" />
    <path
       d="M 790.44264,482.17241 C 790.44264,454.83278 775.67534,428.77066 734.4864,428.77066 C 699.49713,428.77066 681.44375,452.09215 681.44375,482.17241 C 681.44375,515.7114 702.95617,533.93785 736.30903,533.93785 C 764.92576,533.93785 790.44264,517.72057 790.44264,482.17241 M 759.45785,480.5361 C 759.45785,499.66709 755.81258,527.00641 735.21816,527.00641 C 713.53277,527.00641 711.52391,493.10822 711.52391,482.90417 C 711.52391,466.31423 714.98295,434.95698 736.85457,434.95698 C 755.44002,434.95698 759.45785,459.94148 759.45785,480.5361"
       id="path8865"
       style="fill:#003a73;fill-opacity:1;fill-rule:nonzero;stroke:none" />
    <path
       d="M 921.25984,530.47881 L 921.25984,523.90658 L 910.32403,523.90658 L 910.32403,464.30506 C 910.32403,445.90584 897.37936,429.31599 871.67624,429.31599 C 851.81349,429.31599 841.78242,438.6155 835.95531,445.90584 L 835.95531,432.2297 L 792.75751,432.2297 L 792.75751,438.6155 L 803.86629,438.6155 L 803.86629,523.90658 L 791.83951,523.90658 L 791.83951,530.47881 L 847.62278,530.47881 L 847.62278,523.90658 L 835.95531,523.90658 L 835.95531,469.78642 C 835.95531,456.10988 844.15049,440.06568 858.9178,440.06568 C 867.11298,440.06568 876.41248,445.17438 876.41248,456.46909 L 876.41248,523.90658 L 864.3857,523.90658 L 864.3857,530.47881 L 921.25984,530.47881 z"
       id="path8869"
       style="fill:#003a73;fill-opacity:1;fill-rule:nonzero;stroke:none" />
  </g>
</svg>
